<svg width="28" height="26" viewBox="0 0 28 26" fill="none" xmlns="http://www.w3.org/2000/svg">
<path d="M1.43333 17.3083C1.19413 17.3083 1 17.1229 1 16.8945V2.24138C1 1.55697 1.58327 1 2.3 1H25.7C26.4167 1 27 1.55697 27 2.24138V6.30629C27 6.5347 26.8059 6.72008 26.5667 6.72008C26.3275 6.72008 26.1333 6.5347 26.1333 6.30629V2.24138C26.1333 2.01379 25.9383 1.82759 25.7 1.82759H2.3C2.06167 1.82759 1.86667 2.01379 1.86667 2.24138V16.8945C1.86667 17.1229 1.67253 17.3083 1.43333 17.3083Z" fill="#0086CA" stroke="#0086CA" stroke-width="0.6"/>
<path d="M13.9969 25H9.23021C8.99101 25 8.79688 24.8146 8.79688 24.5862C8.79688 24.3578 8.99101 24.1724 9.23021 24.1724H10.0969C10.8136 24.1724 11.3969 23.6154 11.3969 22.931V20.8621C11.3969 20.6337 11.591 20.4483 11.8302 20.4483C12.0694 20.4483 12.2635 20.6337 12.2635 20.8621V22.931C12.2635 23.397 12.1015 23.8265 11.8293 24.1724H13.9969C14.2361 24.1724 14.4302 24.3578 14.4302 24.5862C14.4302 24.8146 14.2361 25 13.9969 25Z" fill="#0086CA" stroke="#0086CA" stroke-width="0.6"/>
<path d="M15.0111 20.8621H2.3C1.58327 20.8621 1 20.3051 1 19.6207V17.1379C1 16.9095 1.19413 16.7242 1.43333 16.7242H15.0111C15.2503 16.7242 15.4444 16.9095 15.4444 17.1379C15.4444 17.3664 15.2503 17.5517 15.0111 17.5517H1.86667V19.6207C1.86667 19.8483 2.06167 20.0345 2.3 20.0345H15.0111C15.2503 20.0345 15.4444 20.2199 15.4444 20.4483C15.4444 20.6767 15.2503 20.8621 15.0111 20.8621Z" fill="#0086CA" stroke="#0086CA" stroke-width="0.6"/>
<path d="M18.7693 6.7931H23.1026C23.3418 6.7931 23.5359 6.60772 23.5359 6.37931C23.5359 6.15089 23.3418 5.96552 23.1026 5.96552H18.7693C18.5301 5.96552 18.3359 6.15089 18.3359 6.37931C18.3359 6.60772 18.5301 6.7931 18.7693 6.7931Z" fill="#0086CA" stroke="#0086CA" stroke-width="0.6"/>
<path d="M20.5036 23.3448H21.3703C21.6095 23.3448 21.8036 23.1594 21.8036 22.931C21.8036 22.7026 21.6095 22.5172 21.3703 22.5172H20.5036C20.2644 22.5172 20.0703 22.7026 20.0703 22.931C20.0703 23.1594 20.2644 23.3448 20.5036 23.3448Z" fill="#0086CA" stroke="#0086CA" stroke-width="0.6"/>
<path fill-rule="evenodd" clip-rule="evenodd" d="M17.0339 25H24.8339C26.029 25 27.0005 24.0723 27.0005 22.931V6.3793C27.0005 5.23806 26.029 4.31033 24.8339 4.31033H17.0339C15.8387 4.31033 14.8672 5.23806 14.8672 6.3793V22.931C14.8672 24.0723 15.8387 25 17.0339 25ZM15.7339 6.3793C15.7339 5.69489 16.3171 5.13792 17.0339 5.13792H24.8339C25.5506 5.13792 26.1339 5.69489 26.1339 6.3793V22.931C26.1339 23.6154 25.5506 24.1724 24.8339 24.1724H17.0339C16.3171 24.1724 15.7339 23.6154 15.7339 22.931V6.3793Z" fill="#0086CA"/>
<path d="M24.8339 24.7H17.0339V25.3H24.8339V24.7ZM26.7005 22.931C26.7005 23.8937 25.8765 24.7 24.8339 24.7V25.3C26.1815 25.3 27.3005 24.2508 27.3005 22.931H26.7005ZM26.7005 6.3793V22.931H27.3005V6.3793H26.7005ZM24.8339 4.61033C25.8765 4.61033 26.7005 5.41664 26.7005 6.3793H27.3005C27.3005 5.05948 26.1815 4.01033 24.8339 4.01033V4.61033ZM17.0339 4.61033H24.8339V4.01033H17.0339V4.61033ZM15.1672 6.3793C15.1672 5.41664 15.9912 4.61033 17.0339 4.61033V4.01033C15.6862 4.01033 14.5672 5.05948 14.5672 6.3793H15.1672ZM15.1672 22.931V6.3793H14.5672V22.931H15.1672ZM17.0339 24.7C15.9912 24.7 15.1672 23.8937 15.1672 22.931H14.5672C14.5672 24.2508 15.6862 25.3 17.0339 25.3V24.7ZM17.0339 4.83792C16.1646 4.83792 15.4339 5.51631 15.4339 6.3793H16.0339C16.0339 5.87346 16.4696 5.43792 17.0339 5.43792V4.83792ZM24.8339 4.83792H17.0339V5.43792H24.8339V4.83792ZM26.4339 6.3793C26.4339 5.51631 25.7031 4.83792 24.8339 4.83792V5.43792C25.3981 5.43792 25.8339 5.87346 25.8339 6.3793H26.4339ZM26.4339 22.931V6.3793H25.8339V22.931H26.4339ZM24.8339 24.4724C25.7031 24.4724 26.4339 23.794 26.4339 22.931H25.8339C25.8339 23.4369 25.3981 23.8724 24.8339 23.8724V24.4724ZM17.0339 24.4724H24.8339V23.8724H17.0339V24.4724ZM15.4339 22.931C15.4339 23.794 16.1646 24.4724 17.0339 24.4724V23.8724C16.4696 23.8724 16.0339 23.4369 16.0339 22.931H15.4339ZM15.4339 6.3793V22.931H16.0339V6.3793H15.4339Z" fill="#0086CA"/>
</svg>
