<svg width="26" height="26" viewBox="0 0 26 26" fill="none" xmlns="http://www.w3.org/2000/svg">
<path d="M22 3.50003H4C3.72386 3.50003 3.5 3.72389 3.5 4.00003V15H22.5V4.00003C22.5 3.72389 22.2761 3.50003 22 3.50003Z" stroke="white"/>
<path d="M24.5 15.1176C24.7761 15.1176 25 14.8938 25 14.6176V3.5C24.9983 2.11997 23.88 1.00165 22.5 1H3.5C2.11997 1.00165 1.00165 2.11997 1 3.5V17.5C1.00165 18.88 2.11997 19.9983 3.5 20H9V22.2325L7.7225 23.0825C7.58302 23.1756 7.49947 23.3323 7.5 23.5V24C7.5 24.5523 7.94772 25 8.5 25H17.5C18.0523 25 18.5 24.5523 18.5 24V23.5C18.5 23.3329 18.4165 23.1768 18.2775 23.084L17 22.2325V20.0882C17 19.8121 16.7761 19.5882 16.5 19.5882C16.2239 19.5882 16 19.8121 16 20.0882V22.5C16 22.6671 16.0835 22.8232 16.2225 22.916L17.5 23.7675V24H8.5V23.7675L9.7775 22.9175C9.91698 22.8244 10.0005 22.6677 10 22.5V20H22.5C23.88 19.9983 24.9983 18.88 25 17.5V15C25 14.7239 24.7761 14.5 24.5 14.5H1.88235C1.60621 14.5 1.38235 14.7239 1.38235 15C1.38235 15.2761 1.60621 15.5 1.88235 15.5H24V17.5C24 18.3284 23.3284 19 22.5 19H3.5C2.67157 19 2 18.3284 2 17.5V3.5C2 2.67157 2.67157 2 3.5 2H22.5C23.3284 2 24 2.67157 24 3.5V14.6176C24 14.8938 24.2239 15.1176 24.5 15.1176Z" fill="white" stroke="white" stroke-width="0.4"/>
<path d="M10.8534 5.35239C10.6581 5.1572 10.3416 5.1572 10.1464 5.35239L7.14639 8.35239C6.9512 8.54764 6.9512 8.86414 7.14639 9.05939L10.1464 12.0594C10.3426 12.2489 10.6544 12.2462 10.8473 12.0533C11.0402 11.8604 11.0429 11.5486 10.8534 11.3524L8.20689 8.70589L10.8534 6.05939C11.0486 5.86414 11.0486 5.54764 10.8534 5.35239Z" fill="white"/>
<path d="M15.1448 12.0594C15.3401 12.2546 15.6566 12.2546 15.8518 12.0594L18.8518 9.05936C19.047 8.86411 19.047 8.54761 18.8518 8.35236L15.8518 5.35236C15.7263 5.22239 15.5404 5.17026 15.3656 5.21601C15.1908 5.26177 15.0543 5.3983 15.0085 5.57311C14.9627 5.74792 15.0149 5.93383 15.1448 6.05936L17.7913 8.70586L15.1448 11.3524C14.9497 11.5476 14.9497 11.8641 15.1448 12.0594Z" fill="white"/>
</svg>
