<svg width="26" height="24" viewBox="0 0 26 24" fill="none" xmlns="http://www.w3.org/2000/svg">
<path d="M5.62669 15.7312C6.60378 15.7313 7.39709 16.4683 7.40161 17.3803C7.40614 18.2922 6.62017 19.0361 5.64312 19.0447C4.66606 19.0532 3.86532 18.3232 3.85156 17.4113C3.85837 16.4989 4.64915 15.7609 5.62669 15.7545" fill="white"/>
<path d="M11.2282 8.25235C12.2086 8.25235 13.0034 8.99412 13.0034 9.90913C13.0034 10.8241 12.2086 11.5659 11.2282 11.5659C10.2479 11.5659 9.45312 10.8241 9.45312 9.90913C9.45994 8.99676 10.2507 8.25871 11.2282 8.25235" fill="white"/>
<path d="M17.9236 11.9976C18.9039 11.9976 19.6987 12.7394 19.6987 13.6544C19.6987 14.5694 18.9039 15.3112 17.9236 15.3112C16.9432 15.3112 16.1484 14.5694 16.1484 13.6544C16.1484 12.7394 16.9432 11.9976 17.9236 11.9976Z" fill="white"/>
<path d="M23.3142 4.57706C24.0322 4.57706 24.6794 4.98072 24.9542 5.59982C25.2289 6.21891 25.0771 6.93152 24.5694 7.40536C24.0617 7.8792 23.2982 8.02094 22.6349 7.76451C21.9716 7.50807 21.5391 6.90394 21.5391 6.23384C21.5391 5.31882 22.3338 4.57706 23.3142 4.57706Z" fill="white"/>
<path d="M0.625043 0C0.279841 0 0 0.261185 0 0.583374V22.9683C0 23.2543 0.118694 23.5274 0.327753 23.7225C0.518794 23.9008 0.77038 24 1.0317 24H25.0892C25.4344 24 25.7143 23.7388 25.7143 23.4166C25.7143 23.0944 25.4344 22.8333 25.0892 22.8333H3.25008C2.14552 22.8333 1.25009 21.9378 1.25009 20.8333V0.583374C1.25009 0.261185 0.970245 0 0.625043 0Z" fill="white"/>
<path fill-rule="evenodd" clip-rule="evenodd" d="M5.62511 15.1478C4.49404 15.1357 3.50421 15.855 3.23948 16.8814C2.97474 17.9078 3.50542 18.9687 4.51848 19.4383C5.53154 19.908 6.75792 19.6616 7.47422 18.8445C8.19053 18.0274 8.20651 16.8567 7.51274 16.0229L10.4379 12.0209C10.6918 12.1013 10.9575 12.1446 11.2255 12.1493C11.9104 12.1552 12.5654 11.8877 13.0256 11.4142L15.6258 13.141C15.5858 13.3096 15.5649 13.4817 15.5633 13.6544C15.5633 14.8916 16.6379 15.8945 17.9635 15.8945C19.289 15.8945 20.3636 14.8916 20.3636 13.6544C20.3617 13.1475 20.1718 12.6569 19.8261 12.2659L22.6138 8.28732C23.7488 8.62131 24.9734 8.11978 25.4786 7.11408C25.9837 6.10837 25.6135 4.90899 24.6124 4.30835C23.6113 3.70771 22.2885 3.89125 21.518 4.73771C20.7474 5.58417 20.767 6.83221 21.5637 7.65727L18.7885 11.5775C18.5128 11.4799 18.2208 11.4286 17.926 11.4259C17.2706 11.4255 16.6433 11.6741 16.1883 12.1143L13.5757 10.4108C13.5886 10.2594 13.5886 10.1072 13.5757 9.95577C13.6265 8.94348 12.9429 8.02538 11.9087 7.71693C10.8744 7.40848 9.74707 7.78651 9.15961 8.63877C8.57215 9.49104 8.67088 10.6053 9.40037 11.3559L6.51267 15.3111C6.23104 15.2033 5.92954 15.1478 5.62511 15.1478ZM23.3139 5.1021C23.949 5.1021 24.4639 5.58268 24.4639 6.17551C24.4639 6.76834 23.949 7.24892 23.3139 7.24892C22.6787 7.24892 22.1638 6.76834 22.1638 6.17551C22.1638 5.58268 22.6787 5.1021 23.3139 5.1021ZM19.076 13.6544C19.076 13.0615 18.5611 12.581 17.926 12.581C17.2908 12.581 16.7759 13.0615 16.7759 13.6544C16.7759 14.2472 17.2908 14.7278 17.926 14.7278C18.5611 14.7278 19.076 14.2472 19.076 13.6544ZM11.2254 8.83568C11.8606 8.83568 12.3755 9.31626 12.3755 9.90908C12.3755 10.5019 11.8606 10.9825 11.2254 10.9825C10.5903 10.9825 10.0754 10.5019 10.0754 9.90908C10.0754 9.31626 10.5903 8.83568 11.2254 8.83568ZM4.5604 17.7931C4.73685 18.1971 5.1577 18.4612 5.62512 18.4613C6.25065 18.4615 6.7616 17.995 6.7752 17.4113C6.78536 16.9751 6.51168 16.5766 6.08283 16.4031C5.65398 16.2296 5.15527 16.3155 4.82114 16.6206C4.48702 16.9257 4.38395 17.3892 4.5604 17.7931Z" fill="white"/>
</svg>
