<svg width="565" height="553" viewBox="0 0 565 553" fill="none" xmlns="http://www.w3.org/2000/svg">
<g clip-path="url(#clip0_1261_5429)">
<mask id="mask0_1261_5429" style="mask-type:luminance" maskUnits="userSpaceOnUse" x="-27" y="0" width="592" height="553">
<path d="M565 0H-27V553H565V0Z" fill="white"/>
</mask>
<g mask="url(#mask0_1261_5429)">
<path d="M454.163 253.489L422.794 350.69C421.862 353.581 419.01 355.562 415.778 355.562H382.389C378.343 355.562 375.06 358.626 375.06 362.406V428.462C375.06 432.242 378.343 435.306 382.389 435.306H425.541H327.226C323.179 435.306 319.898 432.242 319.898 428.462V362.406C319.898 358.626 323.179 355.562 327.226 355.562H360.614C363.847 355.562 366.698 353.581 367.63 350.69L398.032 256.48C400.296 249.467 407.211 244.668 415.053 244.668H447.145C452.059 244.668 455.581 249.095 454.163 253.489Z" stroke="#57585B" stroke-width="2.76428" stroke-miterlimit="10" stroke-linecap="round"/>
<path d="M388.082 308.701H430.734C434.187 308.701 437.233 306.587 438.22 303.497L452.553 259.129C453.511 256.147 451.102 253.139 447.795 253.139H405.113C401.661 253.139 398.643 255.253 397.628 258.343L383.323 302.711C382.366 305.693 384.745 308.701 388.082 308.701Z" fill="#11393C"/>
<path d="M388.082 308.701H424.931C428.384 308.701 431.43 306.587 432.417 303.497L446.75 259.129C447.708 256.147 445.299 253.139 441.992 253.139H405.142C401.69 253.139 398.643 255.253 397.628 258.343L383.323 302.711C382.366 305.693 384.745 308.701 388.082 308.701Z" fill="#4A9FA2"/>
<path d="M405.823 336.121H327.927C324.321 336.121 321.398 338.851 321.398 342.219V351.708H412.351V342.219C412.351 338.851 409.429 336.121 405.823 336.121Z" fill="#4A9FA2"/>
<path d="M413.508 345.986H320.251C318.634 345.986 317.32 347.211 317.32 348.724V352.348C317.32 353.859 318.634 355.086 320.251 355.086H413.508C415.125 355.086 416.438 353.859 416.438 352.348V348.724C416.438 347.211 415.125 345.986 413.508 345.986Z" fill="#11393C"/>
<path d="M415.055 244.668H447.146C452.059 244.668 455.58 249.095 454.162 253.489L422.796 350.692C421.864 353.581 419.013 355.562 415.78 355.562H382.392C378.345 355.562 375.062 358.625 375.062 362.406V428.462C375.062 432.242 378.345 435.306 382.392 435.306H425.543" stroke="#808081" stroke-width="2.76428" stroke-miterlimit="10" stroke-linecap="round"/>
<path d="M52.3516 436.411C52.3516 426.433 158.441 418.342 289.309 418.342C420.177 418.342 526.266 426.433 526.266 436.411C526.266 446.389 420.177 454.48 289.309 454.48C158.441 454.48 52.3516 446.389 52.3516 436.411Z" fill="#EDEDED"/>
<path d="M380.42 147.83H303.016V103.824H380.42V147.83Z" fill="#3B5564"/>
<path d="M380.42 103.822L372.884 110.862L310.554 140.788L303.016 147.828H380.42V103.822Z" fill="#304753"/>
<path d="M310.555 110.863H372.885V140.789H310.555V110.863Z" fill="#D0F4F3"/>
<path d="M310.555 110.861V140.787L372.883 110.861H310.555Z" fill="#E3F8F8"/>
<path d="M91.7953 147.83H14.3906V103.824H91.7953V147.83Z" fill="#F8D05E"/>
<path d="M91.7953 103.822L84.2591 110.862L21.9288 140.788L14.3906 147.828H91.7953V103.822Z" fill="#E8BA4A"/>
<path d="M21.9297 110.863H84.2581V140.789H21.9297V110.863Z" fill="#D0F4F3"/>
<path d="M21.9297 110.861V140.787L84.2581 110.861H21.9297Z" fill="#E3F8F8"/>
<path d="M314.263 437.365C314.699 428.695 311.595 420.201 311.595 420.201C311.595 420.201 302.937 415.96 300.798 422.49C298.662 429.015 289.561 430.171 284.918 430.556C281.533 430.835 280.968 434.982 280.919 436.805L314.263 437.365Z" fill="#11393C"/>
<path d="M362.797 217.351C351.235 220.736 344.755 232.231 331.214 246.95C331.214 246.95 322.015 228.729 315.728 209.576L309.453 210.951C309.453 210.951 317.432 267.918 325.653 267.846C333.874 267.773 360.824 253.26 364.491 244.226C368.16 235.191 362.797 217.351 362.797 217.351Z" fill="#D14E4E"/>
<path d="M367.063 437.188L367.181 433.368C367.289 429.832 363.985 422.189 364.057 419.832C364.13 417.474 354.23 421.486 354.23 421.486C354.23 421.486 354.01 426.171 350.627 429.386C348.458 431.444 348.021 435.151 347.984 437.188H367.063Z" fill="#11393C"/>
<path d="M398.093 307.748L354.505 306.01C354.505 306.01 307.835 309.217 285.197 322.771C276.036 328.253 297.98 422.794 297.98 422.794H314.688L308.748 343.998C308.748 343.998 356.476 342.692 370.574 336.807C384.669 330.923 398.093 307.748 398.093 307.748Z" fill="#4F4439"/>
<path d="M351.792 422.794C351.792 422.794 345.558 321.771 351.465 317.196C357.371 312.617 415.399 305.428 415.399 305.428C415.399 305.428 415.281 332.871 399.721 341.382C384.16 349.892 373.41 351.887 373.41 351.887L365.969 422.794H351.792Z" fill="#706457"/>
<path d="M415.262 308.397C417.101 289.527 424.794 235.672 424.248 233.019C422.51 224.63 408.586 213.342 390.076 212.475C388.055 212.379 386.144 212.338 384.339 212.366C369.563 212.515 361.471 216.418 355.908 223.654C354.306 225.741 351.685 232.819 351.107 242.423C348.927 278.555 354.504 306.01 354.504 306.01C365.193 316.109 415.262 308.397 415.262 308.397Z" fill="#E46260"/>
<path d="M377.461 202.418C377.461 202.418 378.794 217.353 382.252 220.814C382.252 220.814 384.721 216.307 395.946 214.943C395.946 214.943 391.765 204.373 395.172 195.754C395.172 195.754 391.044 196.196 390.224 194.592C390.224 194.592 390.456 201.344 377.461 202.418Z" fill="#DD8766"/>
<path d="M388.403 224.507L386.675 220.808C378.785 221.35 376.435 217.774 376.435 217.774L373.969 220.808C374.447 213.611 378.77 211.47 378.77 211.47C378.973 213.936 380.075 214.939 380.075 214.939L381.932 218.736L385.401 215.454C389.563 216.213 394.786 211.146 394.786 211.146L397.79 213.611C398.804 219.547 388.403 224.507 388.403 224.507Z" fill="#D14E4E"/>
<path d="M386.682 220.808C378.836 223.077 376.438 217.772 376.438 217.772C377.585 215.21 379.093 215.456 379.093 215.456L381.424 221.559L385.084 217.826L386.682 220.808Z" fill="#E46260"/>
<path d="M382.64 220.073C382.64 220.073 381.147 224.482 379.51 231.294C377.86 238.093 376.112 247.262 374.922 256.506C374.332 261.13 373.875 265.768 373.529 270.123C373.392 272.302 373.26 274.409 373.135 276.405C372.988 278.404 372.982 280.298 372.91 282.043C372.759 285.536 372.788 288.447 372.779 290.487C372.771 292.525 372.769 293.692 372.769 293.692C372.769 293.692 372.75 292.525 372.717 290.487C372.686 288.449 372.601 285.532 372.684 282.036C372.723 280.29 372.69 278.393 372.8 276.391C372.885 274.389 372.976 272.28 373.071 270.096C373.334 265.73 373.699 261.074 374.202 256.432C375.212 247.146 376.787 237.915 378.313 231.052C379.82 224.187 381.253 219.674 381.253 219.674L382.64 220.073Z" fill="#D14E4E"/>
<path d="M384.543 241.74L395.944 243.491L393.406 257.215L382.164 255.731C382.164 255.731 383.274 244.732 384.543 241.74Z" fill="#D14E4E"/>
<path d="M310.09 200.187C310.09 200.187 312.173 204.372 313.624 206.193C315.074 208.016 317.682 213.529 312.695 215.994C307.708 218.458 297.489 211.89 297.489 211.89C294.172 208.842 295.296 205.329 295.296 205.329C293.698 203.996 294.69 200.763 294.69 200.763L292.969 197.704C296.661 196.004 296.336 199.623 300.54 202.854C301.557 203.634 304.36 204.209 305.706 204.709L305.71 204.706C307.538 205.387 309.173 205.75 309.173 205.75C309.173 205.75 309.169 205.747 309.171 205.738C309.14 205.512 308.788 202.509 308.943 200.984C309.109 199.403 310.09 200.187 310.09 200.187Z" fill="#F3A079"/>
<path d="M297.104 209.683C297.104 209.683 296.804 207.069 297.684 206.98C297.684 206.98 298.829 207.374 299.169 208.248C299.508 209.121 299.216 210.547 301.307 211.98C303.398 213.411 302.27 204.206 302.27 204.206C301.375 206.246 297.91 204.129 297.477 202.542C297.046 200.956 296.332 200.356 295.653 200.099C294.972 199.845 294.695 200.764 294.695 200.764C294.695 200.764 295.268 200.667 295.755 200.979C296.243 201.292 297.933 203.115 298.005 203.952C298.078 204.79 297.738 203.139 296.928 203.48C296.119 203.82 295.895 204.582 295.895 204.582C295.895 204.582 296.709 203.964 297.222 204.608C297.732 205.251 297.918 206.528 297.918 206.528C297.918 206.528 295.423 206.078 297.104 209.683Z" fill="#DD8766"/>
<path d="M309.174 205.749C309.174 205.749 306.815 207.262 308.385 209.387C309.964 211.512 308.418 212.706 308.418 212.706C308.418 212.706 304.201 208.205 305.708 204.707L305.712 204.705C307.54 205.386 309.174 205.749 309.174 205.749Z" fill="#DD8766"/>
<path d="M401.037 203.412C388.212 217.043 372.036 206.201 373.448 198.271C373.9 195.732 375.692 191.94 378.14 188.229C378.692 187.386 379.275 186.549 379.886 185.733C384.037 180.203 389.367 175.583 393.438 176.678C407.614 180.477 413.864 189.779 401.037 203.412Z" fill="#F3A079"/>
<path d="M388.132 177.753C388.132 177.753 398.13 177.507 405.445 187.281C405.445 187.281 400.781 196.911 398.307 200.97C398.307 200.97 400.849 204.875 391.392 209.566C391.392 209.566 396.346 212.638 407.644 201.119C417.436 191.135 410.214 186.528 410.214 186.528C410.214 186.528 411.065 179.789 401.339 173.363C393.363 168.091 387.057 171.371 388.132 177.753Z" fill="#135B6B"/>
<path d="M392.395 191.526C391.75 192.331 390.859 192.723 390.407 192.4C389.957 192.077 390.112 191.163 390.757 190.357C391.402 189.552 392.292 189.162 392.743 189.483C393.195 189.806 393.038 190.72 392.395 191.526Z" fill="#1A4750"/>
<path d="M384.198 186.68C383.553 187.486 382.664 187.88 382.214 187.556C381.761 187.234 381.917 186.319 382.562 185.514C383.206 184.708 384.095 184.316 384.546 184.639C384.998 184.962 384.843 185.875 384.198 186.68Z" fill="#1A4750"/>
<path d="M384.673 188.825C384.673 188.825 380.463 190.704 379.389 189.182C378.316 187.658 376.659 191.874 381.639 193.598C381.639 193.598 384.208 192.444 384.673 188.825Z" fill="#DD774E"/>
<path d="M377.539 195.355C377.539 195.355 384.022 198.981 384.163 200.269C384.333 201.802 382.832 201.83 380.364 200.357C376.925 198.301 377.539 195.355 377.539 195.355Z" fill="white"/>
<path d="M393.688 196.278C393.381 197.061 392.317 197.432 391.311 197.108C390.305 196.786 389.74 195.889 390.046 195.108C390.353 194.326 391.417 193.954 392.423 194.278C393.429 194.6 393.995 195.496 393.688 196.278Z" fill="#EC7C66"/>
<path d="M380.139 188.502C379.476 189 378.456 188.792 377.824 188.048C378.374 187.207 378.959 186.374 379.569 185.559C379.832 185.695 380.064 185.889 380.258 186.133C380.886 186.935 380.831 187.997 380.139 188.502Z" fill="#EC7C66"/>
<path d="M396.682 188.103C396.778 188.17 396.904 188.195 397.032 188.162C397.26 188.101 397.401 187.88 397.35 187.665C396.892 185.755 394.834 184.735 394.745 184.694C394.542 184.594 394.285 184.675 394.173 184.876C394.057 185.074 394.132 185.318 394.335 185.417C394.354 185.427 396.153 186.323 396.526 187.879C396.55 187.974 396.607 188.05 396.682 188.103Z" fill="#135B6B"/>
<path d="M384.403 181.413C384.577 181.534 384.827 181.501 384.976 181.336C385.438 180.818 386.656 181.456 387.046 181.723C387.232 181.849 387.5 181.804 387.64 181.619C387.781 181.433 387.744 181.181 387.559 181.053C386.771 180.512 385.208 179.858 384.344 180.822C384.188 180.995 384.203 181.251 384.378 181.394C384.387 181.402 384.395 181.407 384.403 181.413Z" fill="#135B6B"/>
<path d="M398.635 200.886C398.635 200.886 403.256 199.825 404.106 203.111C404.955 206.396 397.136 208.831 394.896 206.929C392.656 205.027 398.635 200.886 398.635 200.886Z" fill="#F3A079"/>
<path d="M394.561 171.338C390.514 170.058 385.184 174.619 387.632 178.986L388.774 177.887L390.57 180.935L391.129 179.024L397.031 184.622L397.085 182.336C397.085 182.336 401.541 186.656 405.208 187.483C408.875 188.312 402.835 173.952 394.561 171.338Z" fill="#135B6B"/>
<path d="M375.363 258.381C374.341 260.659 369.493 259.089 369.493 259.089C369.493 259.089 366.553 258.771 365.063 258.421C365.063 258.421 364.616 260.201 363.781 260.089C362.934 259.977 363.566 256.99 363.566 256.99C363.566 256.99 361.091 259.605 360.578 259.215C360.077 258.831 361.202 255.85 361.202 255.85C361.202 255.85 359.482 255.381 359.219 255.804C359.091 256.005 358.529 256.743 357.918 257.35C357.321 257.963 356.702 258.421 356.435 258.101C355.901 257.459 357.449 253.977 357.449 253.977C357.449 253.977 356.541 253.729 356.16 253.744C355.777 253.77 354.104 256.107 353.486 254.241C353.486 254.241 354.505 251.712 357.175 250.732C358.478 250.253 362.864 250.163 365.218 250.615C368.655 251.289 372.898 253.22 373.592 253.877C374.282 254.549 376.386 256.101 375.363 258.381Z" fill="#F3A079"/>
<path d="M363.644 256.956C363.644 256.956 363.901 255.06 364.938 254.987C365.976 254.915 367.761 255.13 367.761 255.13C367.761 255.13 365.727 254.588 364.349 254.66C362.974 254.733 362.246 258.293 362.246 258.293L363.644 256.956Z" fill="#DD8766"/>
<path d="M364.263 253.266C363.997 253.265 362.883 253.308 362.409 253.655C361.864 254.039 361.19 255.771 361.19 255.771C361.19 255.771 359.489 255.31 359.229 255.729C359.103 255.925 358.547 256.651 357.942 257.251C358.072 256.954 359.021 254.68 360.234 253.684C361.414 252.695 363.864 253.171 364.263 253.266Z" fill="#DD8766"/>
<path d="M360.366 252.165C360.366 252.165 358.03 252.795 357.403 253.899C357.403 253.899 356.501 253.654 356.121 253.669C357.897 251.555 360.366 252.165 360.366 252.165Z" fill="#DD8766"/>
<path d="M375.466 258.423C374.443 260.717 369.578 259.132 369.578 259.132C369.578 259.132 366.629 258.809 365.134 258.455C365.154 257.725 365.709 257.553 365.948 257.014C365.948 257.014 368.018 257.63 368.544 257.36C368.544 257.36 370.378 258.231 371.43 257.919C372.473 257.601 373.428 260.012 375.466 258.423Z" fill="#DD8766"/>
<path d="M420.24 223.36C408.332 219.45 409.16 237.818 414.152 256.272L371.681 255.089L370.759 260.068C370.759 260.068 427.229 277.035 436.051 274.202C440.816 272.674 433.498 249.284 427.898 236.082C423.126 224.831 420.24 223.36 420.24 223.36Z" fill="#D14E4E"/>
<path d="M187.032 148.338C198.241 157.951 216.938 201.943 216.938 201.943L237.817 176.132L244.808 178.365C244.808 178.365 231.923 213.6 221.844 221.627C211.765 229.655 194.204 203.79 194.204 203.79L187.032 148.338Z" fill="#11393C"/>
<path d="M241.139 163.433C241.139 163.433 240.176 167.981 239.235 170.062C238.296 172.143 237.161 178.11 242.564 179.641C247.966 181.172 256.15 172.75 256.15 172.75C258.579 169.104 256.626 165.817 256.626 165.817C257.828 164.195 256.073 161.162 256.073 161.162L256.967 157.804C252.996 156.793 254.209 160.332 250.974 164.322C250.191 165.287 247.641 166.375 246.473 167.123L246.466 167.121C244.881 168.136 243.402 168.799 243.402 168.799C243.402 168.799 243.403 168.795 243.401 168.788C243.373 168.558 242.966 165.502 242.438 164.014C241.886 162.471 241.139 163.433 241.139 163.433Z" fill="#F3A079"/>
<path d="M256.064 170.384C256.064 170.384 255.707 167.747 254.848 167.821C254.848 167.821 253.853 168.421 253.746 169.347C253.638 170.271 254.267 171.625 252.629 173.424C250.991 175.221 249.802 165.926 249.802 165.926C251.153 167.775 253.932 165.049 253.952 163.401C253.972 161.755 254.506 161.031 255.089 160.655C255.672 160.277 256.163 161.134 256.163 161.134C256.163 161.134 255.591 161.144 255.206 161.541C254.819 161.94 253.66 164.05 253.798 164.89C253.934 165.731 253.852 164.037 254.705 164.226C255.56 164.413 255.961 165.125 255.961 165.125C255.961 165.125 255.034 164.664 254.704 165.393C254.375 166.123 254.514 167.418 254.514 167.418C254.514 167.418 256.778 166.516 256.064 170.384Z" fill="#DD8766"/>
<path d="M243.364 168.839C243.364 168.839 245.964 169.896 244.996 172.276C244.021 174.658 245.775 175.551 245.775 175.551C245.775 175.551 248.666 170.345 246.388 167.179L246.383 167.176C244.82 168.182 243.364 168.839 243.364 168.839Z" fill="#DD8766"/>
<path d="M168.639 139.914C168.639 139.914 158.701 137.142 150.963 138.611C143.224 140.078 145.522 149.113 145.522 149.113L162.809 148.573L171.549 149.113L168.639 139.914Z" fill="#11393C"/>
<path d="M145.672 437.187V434.021C145.672 430.373 149.316 423.754 149.316 421.322C149.316 418.89 159.392 423.297 159.392 423.297C159.392 423.297 159.471 426.969 162.857 430.373C165.439 432.971 165.443 436.303 165.3 437.187H145.672Z" fill="#11393C"/>
<path d="M214.436 437.188L212.693 436.427L211.877 437.188H205.226C204.565 435.402 202.315 428.608 204.346 423.898C206.702 418.432 213.991 419.892 213.991 419.892C213.991 419.892 218.941 426.337 221.804 427.492C224.668 428.645 235.601 432.781 236.903 435.455C237.292 436.253 236.63 436.796 236.82 437.188H214.436Z" fill="#11393C"/>
<path d="M192.097 233.555C195.872 284.683 206.181 351.694 217.365 422.182C217.365 422.182 215.171 425.512 202.732 423.77L164.422 274.098C164.26 273.701 163.849 273.439 163.395 273.439C162.801 273.439 162.315 273.871 162.292 274.425C161.851 285.704 157.979 320.212 160.06 424.249C160.06 424.249 153.522 427.603 146.549 424.249C146.549 424.249 121.851 270.374 127.538 240.914L192.097 233.555Z" fill="#4A9FA2"/>
<path d="M195.484 182.995C195.484 183.903 195.469 184.824 195.469 185.76C195.442 188.172 195.411 190.639 195.355 193.12C195.355 194.039 195.324 194.975 195.295 195.897C195.252 198.58 195.181 201.278 195.093 203.947C195.063 204.895 195.035 205.844 195.004 206.78C194.933 209.259 194.846 211.725 194.743 214.111C194.716 215.059 194.672 216.008 194.643 216.929C194.527 219.585 194.411 222.146 194.31 224.573C194.266 225.534 194.223 226.482 194.163 227.404C194.076 229.466 193.975 231.415 193.888 233.219C193.83 234.221 193.788 235.183 193.73 236.092C193.627 238.07 193.527 239.819 193.453 241.268C193.382 242.515 193.308 243.545 193.266 244.344C193.192 245.605 193.148 246.283 193.148 246.283C193.148 246.283 185.242 254.224 167.817 256.799C137.164 261.338 126.689 251.053 126.689 251.053C126.689 251.053 126.531 249.535 126.283 246.879C126.182 245.999 126.093 244.996 125.977 243.87C125.79 241.852 125.558 239.48 125.297 236.836C125.209 235.916 125.122 234.953 125.035 233.965C124.803 231.659 124.571 229.18 124.339 226.591C124.252 225.671 124.165 224.723 124.078 223.772C123.846 221.251 123.614 218.637 123.368 215.981C123.281 215.045 123.207 214.111 123.12 213.162C122.931 210.994 122.743 208.784 122.54 206.588C122.467 205.654 122.395 204.718 122.308 203.784C120.625 183.823 119.29 164.334 120.074 160.77C121.438 154.591 130.446 146.716 143.286 143.37C146.565 142.517 150.075 141.96 153.776 141.798C158.78 141.581 163.494 141.539 167.817 141.758C178.901 142.3 187.49 144.481 192.076 149.522C192.264 149.7 192.422 149.889 192.583 150.077C192.975 150.552 193.308 151.338 193.612 152.423C193.888 153.398 194.12 154.605 194.324 156C194.455 156.84 194.556 157.747 194.656 158.723C194.875 160.689 195.035 162.926 195.152 165.351C195.194 166.233 195.239 167.152 195.268 168.088C195.339 170.053 195.397 172.114 195.426 174.268C195.442 175.175 195.455 176.084 195.469 177.018C195.484 178.957 195.484 180.963 195.484 182.995Z" fill="white"/>
<path d="M150.966 142.003C150.966 142.003 144.496 143.826 148.649 146.085C152.804 148.343 160.059 153.177 167.313 150.083C174.567 146.988 174.515 139.954 150.966 142.003Z" fill="#CDCFD0"/>
<path d="M172.031 141.613C172.031 141.613 181.722 142.927 180.788 175.946C179.854 208.966 183.27 267.844 183.27 267.844L195.481 257.955L194.131 219.872C194.131 219.872 199.865 164.707 192.58 150.077C192.58 150.077 186.332 142.018 172.031 141.613Z" fill="#1A4750"/>
<path d="M165.711 139.512C165.711 139.512 179.313 139.795 188.923 154.475L184.155 161.534L189.828 175.932L180.789 197.268C180.789 197.268 182.576 147.851 165.711 142.157V139.512Z" fill="#11393C"/>
<path d="M168.179 138.08C168.179 138.08 166.12 142.81 168.517 146.361C168.517 146.361 160.909 152.159 150.961 144.987C150.961 144.987 156.046 133.526 151.369 125.449C151.369 125.449 152.532 125.505 154.375 125.695C154.375 125.695 156.522 138.08 168.179 138.08Z" fill="#DD8766"/>
<path d="M147.258 142.51C147.258 142.51 158.684 169.158 157.667 195.584C156.647 222.01 150.301 267.844 150.301 267.844L124.429 262.666L122.945 211.145V155.317C122.945 155.317 130.797 144.322 147.258 142.51Z" fill="#1A4750"/>
<path d="M121.922 276.693C121.922 276.693 123.694 279.219 124.123 280.432C124.638 281.89 124.34 285.464 124.34 285.464C124.34 285.464 124.195 285.8 123.659 285.475C122.827 284.973 123.574 283.054 122.286 282.475C120.999 281.899 121.922 276.693 121.922 276.693Z" fill="#DD8766"/>
<path d="M112.727 272.444C112.727 272.444 119.621 271.669 121.159 273.46C121.159 273.46 122.335 278.732 122.966 280.425C123.656 282.285 123.283 288.768 122.221 289.899C119.408 292.891 119.259 292.72 118.582 292.038C117.903 291.359 120.279 289.717 120.455 288.775C120.544 288.311 119.855 286.117 119.855 286.117C119.876 287.078 119.377 288.602 118.292 289.203C116.946 289.951 115.814 290.737 115.12 290.336C113.861 289.612 117.039 287.917 116.803 287.095C116.718 286.798 116.439 284.899 116.439 284.899C116.104 285.445 116.073 286.412 115.654 286.862C115.116 287.436 112.636 289.034 112.182 288.466C111.474 287.583 113.772 286.215 113.785 285.351C113.793 285.008 113.466 283.515 113.466 283.515C113.466 283.515 112.847 284.717 112.429 285.044C111.944 285.42 109.723 286.406 109.586 285.933C109.23 284.693 111.435 284.182 111.659 282.413C111.845 280.942 111.114 277.533 112.056 276.06C113 274.589 112.727 272.444 112.727 272.444Z" fill="#F3A079"/>
<path d="M123.649 154.477C123.649 154.477 132.305 168.757 131.45 178.133C131.046 182.554 122.245 218.318 122.245 218.318C122.245 218.318 124.396 263.726 121.086 274.051C121.086 274.051 114.01 273.847 112.399 272.426C112.399 272.426 104.383 243.982 106.027 216.154C107.634 188.934 116.797 160.494 123.649 154.477Z" fill="#11393C"/>
<path d="M150.959 138.609C150.959 138.609 138.628 140.756 137.297 154.478L146.243 161.31L144.129 173.392L157.462 199.784C157.462 199.784 160.389 180.94 150.406 151.088C150.406 151.088 148.777 140.458 150.959 138.609Z" fill="#11393C"/>
<path d="M180.079 125.505C179.864 126.465 179.619 127.4 179.316 128.336C178.968 129.545 178.56 130.701 178.092 131.805C177.06 134.452 175.838 136.724 174.632 138.096C171.426 141.765 162.939 141.709 157.102 137.212C153.241 134.23 150.56 129.331 151.3 122.283C153.162 104.58 164.916 102.899 177.812 110.248C181.517 112.363 181.569 119.059 180.079 125.505Z" fill="#F3A079"/>
<path d="M180.917 114.588C180.917 114.588 174.11 107.468 161.201 108.724C161.201 108.724 156.796 118.221 155.298 122.576C155.298 122.576 150.406 123.344 153.294 132.97C153.294 132.97 147.381 131.514 148.642 116.178C149.735 102.884 158.459 104.919 158.459 104.919C158.459 104.919 161.789 99.1247 171.417 100.377C181.356 101.67 185.663 110.069 180.917 114.588Z" fill="#4F4439"/>
<path d="M166.758 120.523C166.567 121.493 166.878 122.367 167.451 122.472C168.025 122.577 168.643 121.873 168.832 120.903C169.021 119.932 168.712 119.059 168.139 118.954C167.566 118.849 166.947 119.552 166.758 120.523Z" fill="#1A4750"/>
<path d="M176.109 122.941C175.92 123.911 176.229 124.785 176.802 124.89C177.375 124.995 177.994 124.291 178.183 123.321C178.372 122.348 178.063 121.477 177.489 121.372C176.916 121.267 176.3 121.968 176.109 122.941Z" fill="#1A4750"/>
<path d="M178.065 131.779C177.032 134.429 175.808 136.703 174.6 138.077C171.39 141.751 162.889 141.694 157.044 137.191C155.364 133.374 154.701 128.434 155.205 122.503L155.744 121.041C155.744 121.041 156.142 125.826 162.754 128.178C167.719 129.928 174.802 131.229 178.065 131.779Z" fill="#706457"/>
<path d="M174.047 124.141C174.047 124.141 175.49 128.267 177.443 128.027C179.398 127.785 177.209 131.654 172.376 129.323C172.376 129.323 171.502 126.797 174.047 124.141Z" fill="#DD774E"/>
<path d="M162.114 122.833C161.708 123.55 162.154 124.524 163.109 125.01C164.067 125.498 165.168 125.312 165.572 124.594C165.978 123.879 165.532 122.903 164.577 122.417C163.622 121.931 162.52 122.117 162.114 122.833Z" fill="#EC7C66"/>
<path d="M177.395 126.959C177.462 127.743 178.341 128.317 179.377 128.274C179.661 127.345 179.915 126.401 180.137 125.448C179.844 125.354 179.526 125.319 179.196 125.34C178.12 125.424 177.313 126.15 177.395 126.959Z" fill="#EC7C66"/>
<path d="M166.617 115.253C166.498 115.229 166.39 115.157 166.327 115.047C166.216 114.849 166.293 114.606 166.499 114.502C168.33 113.58 170.571 114.352 170.668 114.386C170.89 114.463 171.001 114.695 170.922 114.903C170.842 115.113 170.602 115.22 170.38 115.143C170.36 115.134 168.396 114.465 166.903 115.216C166.813 115.261 166.711 115.272 166.617 115.253Z" fill="#4F4439"/>
<path d="M180.212 119.264C179.998 119.22 179.848 119.028 179.875 118.82C179.961 118.173 178.621 117.744 178.145 117.647C177.917 117.6 177.768 117.386 177.816 117.172C177.864 116.956 178.087 116.822 178.314 116.866C179.281 117.064 180.874 117.718 180.718 118.926C180.688 119.145 180.478 119.297 180.245 119.268C180.233 119.267 180.224 119.266 180.212 119.264Z" fill="#4F4439"/>
<path d="M155.18 122.602C155.18 122.602 152.807 118.727 149.618 120.258C146.43 121.789 149.938 128.765 153.002 129.085C156.063 129.406 155.18 122.602 155.18 122.602Z" fill="#F3A079"/>
<path d="M173.823 132.948L166.998 132.423C166.998 132.423 166.109 135.926 169.52 136.5C172.931 137.074 173.823 132.948 173.823 132.948Z" fill="white"/>
<path d="M191.25 284.033V432.189C191.25 433.909 192.743 435.306 194.587 435.306H279.249C281.093 435.306 282.586 433.909 282.586 432.189V284.033C282.586 282.311 284.079 280.916 285.923 280.916H511.846C513.688 280.916 515.183 282.311 515.183 284.033V432.189C515.183 433.909 513.688 435.306 511.846 435.306H427.184C425.34 435.306 423.847 433.909 423.847 432.189V284.033C423.847 282.311 422.354 280.916 420.51 280.916H194.587C192.743 280.916 191.25 282.311 191.25 284.033Z" stroke="#57585B" stroke-width="2.76428" stroke-miterlimit="10" stroke-linecap="round"/>
<path d="M511.846 280.916C513.69 280.916 515.183 282.309 515.183 284.033V432.189C515.183 433.909 513.69 435.304 511.846 435.304H427.184C425.34 435.304 423.847 433.909 423.847 432.189V284.033C423.847 282.309 422.354 280.916 420.51 280.916H194.587C192.745 280.916 191.25 282.309 191.25 284.033V432.189C191.25 433.909 192.745 435.304 194.587 435.304" stroke="#808081" stroke-width="2.76428" stroke-miterlimit="10" stroke-linecap="round"/>
<path d="M429.256 278.814H184.887C183.993 278.814 183.266 278.135 183.266 277.298V271.084H429.256V278.814Z" fill="#CDCFD0"/>
<path d="M523.162 269.174H429.258V278.816H521.541C522.437 278.816 523.162 278.136 523.162 277.3V269.174Z" fill="#B8B9BB"/>
<path d="M441.503 266.93H178.612C177.757 266.93 177.062 267.575 177.062 268.375V272.687C177.062 273.485 177.757 274.134 178.612 274.134H441.503V266.93Z" fill="white"/>
<path d="M527.566 266.93H425.721C424.866 266.93 424.172 267.575 424.172 268.375V272.687C424.172 273.485 424.866 274.134 425.721 274.134H527.566C528.561 274.134 529.367 273.382 529.367 272.452V268.61C529.367 267.681 528.561 266.93 527.566 266.93Z" fill="#E2E3E4"/>
<path d="M349.234 266.928V261.869L374.758 264.124C375.681 264.205 376.385 264.926 376.385 265.792V266.928H349.234Z" fill="#4F4439"/>
<path d="M349.237 261.869H306.633C305.641 261.869 304.836 262.621 304.836 263.548V266.93H349.237V261.869Z" fill="#706457"/>
<path d="M338.192 244.476H262.956C260.617 244.476 258.555 242.719 258.348 240.551L253.29 187.276C253.085 185.11 254.814 183.352 257.153 183.352H332.389C334.728 183.352 336.792 185.11 336.997 187.276L342.055 240.551C342.262 242.719 340.531 244.476 338.192 244.476Z" fill="#706457"/>
<path d="M335.294 244.476H260.057C257.719 244.476 255.657 242.719 255.45 240.551L250.392 187.276C250.186 185.11 251.916 183.352 254.254 183.352H329.491C331.829 183.352 333.893 185.11 334.098 187.276L339.157 240.551C339.364 242.719 337.632 244.476 335.294 244.476Z" fill="#4F4439"/>
<path d="M268.047 266.93H309.03L305.954 263.957C305.538 263.556 304.985 263.303 304.389 263.243L288.535 261.642L300.689 239.618L297.679 222.732H282.963L276.214 261.661L270.563 262.998C269.678 263.207 268.979 263.843 268.73 264.664L268.047 266.93Z" fill="#4F4439"/>
<path d="M275.297 266.93L282.624 224.664C282.818 223.551 283.845 222.732 285.054 222.732H294.333C295.992 222.732 297.176 224.236 296.683 225.716L282.959 266.93H275.297Z" fill="#706457"/>
<path d="M527.804 61.4537C527.804 78.41 513.089 92.1555 494.937 92.1555C476.785 92.1555 462.07 78.41 462.07 61.4537C462.07 44.4975 476.785 30.752 494.937 30.752C513.089 30.752 527.804 44.4975 527.804 61.4537Z" fill="#E84F40"/>
<path d="M467.461 78.2734C473.334 86.6287 483.44 92.1543 494.94 92.1543C513.091 92.1543 527.807 78.4087 527.807 61.4525C527.807 59.3802 527.58 57.358 527.16 55.4004C507.626 85.6374 480.469 82.2106 467.461 78.2734Z" fill="#C84039"/>
<path d="M523.333 61.4531C523.333 76.1002 510.619 87.9765 494.938 87.9765C479.258 87.9765 466.547 76.1002 466.547 61.4531C466.547 46.8045 479.258 34.9297 494.938 34.9297C510.619 34.9297 523.333 46.8045 523.333 61.4531Z" fill="white"/>
<path d="M469.302 63.2915C469.302 48.6429 482.014 36.7681 497.696 36.7681C503.3 36.7681 508.511 38.3065 512.912 40.9244C508.017 37.1799 501.761 34.9297 494.941 34.9297C479.259 34.9297 466.547 46.8045 466.547 61.4531C466.547 70.8659 471.81 79.1123 479.724 83.8202C473.364 78.955 469.302 71.5674 469.302 63.2915Z" fill="#E3EAEA"/>
<path d="M518.881 61.453C518.881 73.8058 508.159 83.8201 494.935 83.8201C481.713 83.8201 470.992 73.8058 470.992 61.453C470.992 49.1002 481.713 39.0859 494.935 39.0859C508.159 39.0859 518.881 49.1002 518.881 61.453Z" stroke="#252525" stroke-width="0.5" stroke-miterlimit="10" stroke-linecap="round"/>
<path d="M494.938 42.6523V61.4543L510.15 54.0506" stroke="#252525" stroke-width="0.5" stroke-linecap="round" stroke-linejoin="round"/>
<path d="M496.987 61.4545C496.987 62.5104 496.069 63.3679 494.939 63.3679C493.809 63.3679 492.891 62.5104 492.891 61.4545C492.891 60.3985 493.809 59.541 494.939 59.541C496.069 59.541 496.987 60.3985 496.987 61.4545Z" fill="#252525"/>
<path d="M496.131 42.6524C496.131 43.2702 495.594 43.7717 494.933 43.7717C494.27 43.7717 493.734 43.2702 493.734 42.6524C493.734 42.0347 494.27 41.5332 494.933 41.5332C495.594 41.5332 496.131 42.0347 496.131 42.6524Z" fill="#252525"/>
<path d="M495.636 39.0876C495.636 39.4479 495.322 39.7406 494.935 39.7406C494.549 39.7406 494.234 39.4479 494.234 39.0876C494.234 38.7258 494.549 38.4316 494.935 38.4316C495.322 38.4316 495.636 38.7258 495.636 39.0876Z" fill="#252525"/>
<path d="M512.367 46.1014C512.093 46.3558 511.65 46.3558 511.376 46.1014C511.104 45.8455 511.104 45.4307 511.376 45.1763C511.65 44.9204 512.093 44.9204 512.367 45.1763C512.64 45.4307 512.64 45.8455 512.367 46.1014Z" fill="#252525"/>
<path d="M518.887 62.1078C518.499 62.1078 518.188 61.8151 518.188 61.4533C518.188 61.093 518.499 60.7988 518.887 60.7988C519.274 60.7988 519.586 61.093 519.586 61.4533C519.586 61.8151 519.274 62.1078 518.887 62.1078Z" fill="#252525"/>
<path d="M511.376 77.7303C511.104 77.4744 511.104 77.0611 511.376 76.8052C511.65 76.5493 512.093 76.5493 512.367 76.8052C512.64 77.0611 512.64 77.4744 512.367 77.7303C512.093 77.9862 511.65 77.9862 511.376 77.7303Z" fill="#252525"/>
<path d="M494.234 83.819C494.234 83.4572 494.548 83.166 494.935 83.166C495.321 83.166 495.636 83.4572 495.636 83.819C495.636 84.1808 495.321 84.475 494.935 84.475C494.548 84.475 494.234 84.1808 494.234 83.819Z" fill="#252525"/>
<path d="M477.51 76.8052C477.784 76.5493 478.227 76.5493 478.5 76.8052C478.773 77.0611 478.773 77.4759 478.5 77.7318C478.227 77.9877 477.784 77.9877 477.51 77.7318C477.236 77.4759 477.236 77.0611 477.51 76.8052Z" fill="#252525"/>
<path d="M470.999 60.7988C471.386 60.7988 471.697 61.0915 471.697 61.4533C471.697 61.8136 471.386 62.1078 470.999 62.1078C470.612 62.1078 470.297 61.8136 470.297 61.4533C470.297 61.0915 470.612 60.7988 470.999 60.7988Z" fill="#252525"/>
<path d="M478.5 45.1763C478.773 45.4307 478.773 45.8455 478.5 46.1014C478.227 46.3558 477.784 46.3558 477.51 46.1014C477.236 45.8455 477.236 45.4307 477.51 45.1763C477.784 44.9204 478.227 44.9204 478.5 45.1763Z" fill="#252525"/>
<path d="M511.349 53.8829C511.349 54.5006 510.814 55.0021 510.151 55.0021C509.49 55.0021 508.953 54.5006 508.953 53.8829C508.953 53.2652 509.49 52.7637 510.151 52.7637C510.814 52.7637 511.349 53.2652 511.349 53.8829Z" fill="#252525"/>
</g>
</g>
<defs>
<clipPath id="clip0_1261_5429">
<rect width="565" height="553" fill="white"/>
</clipPath>
</defs>
</svg>
