<svg width="321" height="282" viewBox="0 0 321 282" fill="none" xmlns="http://www.w3.org/2000/svg">
<g clip-path="url(#clip0_1261_4998)">
<mask id="mask0_1261_4998" style="mask-type:luminance" maskUnits="userSpaceOnUse" x="0" y="0" width="321" height="282">
<path d="M321 0H0V282H321V0Z" fill="white"/>
</mask>
<g mask="url(#mask0_1261_4998)">
<path d="M255.569 189.907C269.656 199.434 269.73 214.876 255.734 224.403L190.041 269.122C176.045 278.648 153.285 278.648 139.198 269.122L73.0746 224.404C58.988 214.878 58.9138 199.435 72.9091 189.909L138.603 145.19C152.598 135.663 175.358 135.663 189.445 145.19L255.569 189.907Z" fill="#79AEF5"/>
<path d="M244.172 240.358L252.66 234.535" stroke="#79AEF5" stroke-width="0.84" stroke-miterlimit="10"/>
<path d="M209.953 263.833L240.475 242.893" stroke="#79AEF5" stroke-width="0.84" stroke-miterlimit="10"/>
<path d="M210.357 265.203C210.357 266.749 209.287 268.002 207.967 268.002C206.648 268.002 205.578 266.749 205.578 265.203C205.578 263.657 206.648 262.404 207.967 262.404C209.287 262.404 210.357 263.657 210.357 265.203Z" stroke="#79AEF5" stroke-width="0.84" stroke-miterlimit="10"/>
<path d="M255.733 182.812L190.039 227.531C176.044 237.058 153.283 237.057 139.197 227.531L73.0728 182.813C65.9843 178.019 62.4439 171.728 62.4591 165.445L62.4375 174.345C62.4224 180.627 65.9631 186.919 73.0516 191.713L139.175 236.431C153.262 245.957 176.022 245.957 190.017 236.43L255.711 191.712C262.664 186.979 266.144 180.786 266.159 174.585L266.181 165.685C266.166 171.887 262.686 178.079 255.733 182.812Z" fill="#A6D0F4"/>
<path d="M255.569 148.315C269.656 157.842 269.73 173.285 255.734 182.811L190.041 227.53C176.045 237.057 153.285 237.056 139.198 227.53L73.0746 182.812C58.988 173.286 58.9138 157.843 72.9091 148.317L138.603 103.598C152.598 94.0715 175.358 94.0715 189.445 103.598L255.569 148.315Z" fill="white"/>
<path d="M250.668 163.655C253.569 165.617 253.584 168.794 250.709 170.751C247.834 172.708 243.152 172.708 240.251 170.746C237.357 168.789 237.342 165.613 240.217 163.656C243.092 161.698 247.774 161.698 250.668 163.655Z" fill="#A6D0F4"/>
<path d="M251.534 146.171L251.487 165.411C251.485 166.599 250.818 167.783 249.489 168.688C246.811 170.511 242.451 170.511 239.749 168.684C238.393 167.767 237.716 166.562 237.719 165.359L237.765 146.119C237.762 147.322 238.44 148.527 239.796 149.444C242.498 151.271 246.858 151.271 249.535 149.448C250.865 148.544 251.531 147.358 251.534 146.171Z" fill="#CBDCEB"/>
<path d="M249.498 142.84C252.199 144.667 252.213 147.625 249.536 149.448C246.858 151.27 242.498 151.27 239.796 149.443C237.101 147.62 237.087 144.663 239.765 142.84C242.442 141.017 246.802 141.017 249.498 142.84Z" fill="white"/>
<path d="M248.424 143.57C250.528 144.993 250.539 147.296 248.454 148.716C246.369 150.135 242.974 150.135 240.87 148.712C238.772 147.293 238.761 144.99 240.846 143.57C242.931 142.151 246.325 142.151 248.424 143.57Z" fill="#713336"/>
<path d="M239.345 146.718C239.345 146.718 235.891 133.272 234.672 131.249C234.672 129.464 237.821 131.607 239.04 134.938C240.259 138.27 241.376 145.766 241.376 145.766C241.376 145.766 241.173 128.513 243.713 124.705C245.338 125.181 244.323 144.1 244.119 145.528C244.119 145.528 249.198 132.915 252.551 130.297C254.074 130.535 247.675 146.123 247.675 146.123C247.675 146.123 250.316 140.293 255.09 139.221C255.09 139.221 251.332 145.528 249.808 147.194C249.808 147.194 248.081 150.288 243.51 149.693C243.51 149.693 240.361 149.455 239.345 146.718Z" fill="#4CA15C"/>
<path d="M198.995 30.103H196.859V27.6016H198.995V30.103Z" fill="#79AEF5"/>
<path d="M204.225 36.2281H200.172V31.4805H204.225V36.2281Z" fill="#79AEF5"/>
<path d="M192.444 26.8526L192.361 61.068L175.719 49.813L175.802 15.5977L192.444 26.8526Z" stroke="#79AEF5" stroke-width="0.84" stroke-miterlimit="10"/>
<path d="M190.263 28.2877L190.838 27.8965L190.755 62.1118L190.18 62.5035L190.263 28.2877Z" fill="#BDC5CB"/>
<path d="M173.625 17.0319L174.2 16.6406L190.843 27.8956L190.268 28.2868L173.625 17.0319Z" fill="white"/>
<path d="M190.264 28.2862L190.182 62.5019L173.539 51.247L173.622 17.0312L190.264 28.2862Z" fill="#EAF1F7"/>
<path d="M178.245 29.7372V30.0376C178.245 30.2145 178.081 30.3254 177.95 30.237L176.739 29.4194C176.678 29.3783 176.641 29.3021 176.641 29.22V28.9199C176.641 28.7427 176.804 28.6321 176.935 28.7206L178.147 29.5378C178.207 29.5789 178.245 29.6551 178.245 29.7372Z" fill="#94A3C0"/>
<path d="M182.081 33.8032V34.104C182.081 34.2809 181.917 34.3918 181.786 34.3038L176.739 30.9144C176.678 30.8734 176.641 30.7972 176.641 30.715V30.4142C176.641 30.2373 176.804 30.1264 176.935 30.2144L181.982 33.6038C182.043 33.6449 182.081 33.7207 182.081 33.8032Z" fill="#94A3C0"/>
<path d="M180 35.3959L180 35.6967C180 35.8736 179.837 35.9845 179.706 35.8965L176.739 33.9047C176.678 33.8637 176.641 33.7875 176.641 33.7049V33.4041C176.641 33.2272 176.804 33.1167 176.935 33.2047L179.901 35.1965C179.962 35.2376 180 35.3134 180 35.3959Z" fill="#94A3C0"/>
<path d="M181.298 34.7717L181.298 35.0725C181.298 35.2494 181.135 35.3603 181.004 35.2723L176.739 32.4084C176.678 32.3673 176.641 32.2915 176.641 32.209L176.641 31.9082C176.641 31.7313 176.804 31.6208 176.935 31.7084L181.2 34.5723C181.261 34.6134 181.298 34.6892 181.298 34.7717Z" fill="#94A3C0"/>
<path d="M178.245 37.2411V37.5415C178.245 37.7184 178.081 37.8293 177.95 37.7409L176.739 36.9233C176.678 36.8822 176.641 36.8064 176.641 36.7243V36.4239C176.641 36.2466 176.804 36.136 176.935 36.2245L178.147 37.0417C178.207 37.0828 178.245 37.159 178.245 37.2411Z" fill="#94A3C0"/>
<path d="M182.081 41.3071V41.6079C182.081 41.7848 181.917 41.8957 181.786 41.8077L176.739 38.4183C176.678 38.3773 176.641 38.3015 176.641 38.219V37.9181C176.641 37.7412 176.804 37.6303 176.935 37.7183L181.982 41.1077C182.043 41.1488 182.081 41.2246 182.081 41.3071Z" fill="#94A3C0"/>
<path d="M180 42.9001L180 43.201C180 43.3778 179.837 43.4884 179.706 43.4003L176.739 41.4086C176.678 41.3675 176.641 41.2917 176.641 41.2092V40.9083C176.641 40.7315 176.804 40.6205 176.935 40.7086L179.901 42.7003C179.962 42.7414 180 42.8176 180 42.9001Z" fill="#94A3C0"/>
<path d="M181.298 42.2775L181.298 42.5784C181.298 42.7552 181.135 42.8662 181.004 42.7781L176.739 39.9143C176.678 39.8732 176.641 39.7974 176.641 39.7149L176.641 39.414C176.641 39.2372 176.804 39.1266 176.935 39.2143L181.2 42.0782C181.261 42.1192 181.298 42.195 181.298 42.2775Z" fill="#94A3C0"/>
<path d="M165.21 32.3759C168.065 34.3064 170.371 38.984 170.361 42.8266C170.352 46.6692 168.031 48.2212 165.177 46.2906C162.322 44.36 160.014 39.6781 160.023 35.8355C160.033 31.9929 162.356 30.4453 165.21 32.3759Z" stroke="#79AEF5" stroke-width="0.84" stroke-miterlimit="10"/>
<path d="M167.069 37.4258L168.175 39.6754L163.936 42.5049L161.875 38.3299L162.993 37.5837L163.943 39.5123L167.069 37.4258Z" fill="#79AEF5"/>
<mask id="mask1_1261_4998" style="mask-type:alpha" maskUnits="userSpaceOnUse" x="126" y="31" width="48" height="50">
<path d="M172.618 78.3614C169.219 75.6618 153.369 63.0752 153.369 63.0752L153.538 35.834L127.922 53.4026" fill="white"/>
<path d="M172.618 78.3614C169.219 75.6618 153.369 63.0752 153.369 63.0752L153.538 35.834L127.922 53.4026" stroke="#FF3D3D" stroke-width="4.2"/>
</mask>
<g mask="url(#mask1_1261_4998)">
<path d="M129.805 51.6022L153.394 35.8809V63.036L172.103 77.8043" stroke="#79AEF5" stroke-width="0.84" stroke-miterlimit="10"/>
</g>
<g opacity="0.940602">
<path d="M107.251 51.1504L107.258 53.9602L101.664 57.7432L101.679 63.7931L99.3731 65.3525L99.3516 56.4924L107.251 51.1504Z" fill="#79AEF5"/>
<path d="M107.258 53.961L129.733 38.762L129.773 55.4336L129.791 62.962L125.732 65.7071L101.723 81.944L101.679 63.7939L101.664 57.7439L107.258 53.961ZM129.127 62.5293L129.073 40.0905L102.321 58.1822L102.375 80.621L129.127 62.5293Z" fill="#79AEF5"/>
<path d="M132.299 53.7271L132.325 64.359L125.742 68.8108L125.734 65.7073L129.793 62.9622L129.775 55.4342L132.299 53.7271Z" fill="#79AEF5"/>
<path d="M120.44 64.2874C120.448 64.2823 120.456 64.2767 120.464 64.2716C120.489 64.2554 120.513 64.2396 120.537 64.2231C120.561 64.2069 120.586 64.1903 120.61 64.1737C120.617 64.1682 120.625 64.1626 120.633 64.1571C120.649 64.1457 120.665 64.1342 120.681 64.1228C120.691 64.1161 120.7 64.1094 120.709 64.1026C120.724 64.0924 120.739 64.0817 120.753 64.0711C120.763 64.0639 120.773 64.0564 120.783 64.0493C120.797 64.0387 120.811 64.0284 120.825 64.0178C120.835 64.0107 120.845 64.0028 120.854 63.9957C120.869 63.9846 120.883 63.9735 120.898 63.9625C120.907 63.9554 120.917 63.9483 120.926 63.9412C120.941 63.9293 120.956 63.9175 120.971 63.9056C120.979 63.8989 120.988 63.8922 120.997 63.8855C121.015 63.8717 121.032 63.8571 121.049 63.8433C121.091 63.8093 121.115 63.79 121.139 63.7702C121.166 63.7473 121.187 63.7296 121.208 63.7118C121.216 63.7051 121.223 63.6988 121.231 63.692C121.247 63.6786 121.263 63.6652 121.278 63.6518C121.287 63.6443 121.295 63.6368 121.304 63.6293C121.319 63.6162 121.333 63.6032 121.348 63.5902C121.357 63.5823 121.365 63.5748 121.374 63.5669C121.389 63.5539 121.403 63.5404 121.418 63.5274C121.427 63.5195 121.435 63.512 121.444 63.5041C121.459 63.4907 121.473 63.4769 121.488 63.4635C121.496 63.4556 121.505 63.4481 121.513 63.4402C121.529 63.4252 121.545 63.4106 121.561 63.3956C121.568 63.3888 121.574 63.3825 121.581 63.3758C121.601 63.3565 121.622 63.3375 121.642 63.3182C121.673 63.2882 121.696 63.2653 121.719 63.2424C121.747 63.2143 121.767 63.195 121.787 63.1753C121.822 63.1397 121.838 63.1227 121.854 63.1062C121.861 63.0987 121.869 63.0916 121.876 63.0841C121.891 63.0687 121.906 63.0525 121.921 63.0367C121.929 63.0288 121.937 63.0209 121.944 63.0126C121.96 62.9968 121.974 62.9806 121.99 62.9644C121.997 62.9569 122.003 62.9498 122.011 62.9423C122.027 62.925 122.043 62.9072 122.059 62.8898C122.095 62.8503 122.113 62.8306 122.132 62.8105C122.188 62.7481 122.232 62.6975 122.276 62.6462C122.301 62.6178 122.321 62.5945 122.341 62.5708C122.372 62.5353 122.389 62.5148 122.406 62.4942C122.438 62.4551 122.454 62.4358 122.471 62.4161C122.504 62.3758 122.52 62.3556 122.537 62.3355C122.569 62.2956 122.587 62.2731 122.604 62.251C122.679 62.1567 122.743 62.0738 122.806 61.9897C122.828 61.9608 122.847 61.9344 122.867 61.9076C122.895 61.8708 122.912 61.8471 122.929 61.8235C122.958 61.784 122.974 61.7607 122.991 61.7374C123.019 61.6979 123.036 61.6742 123.053 61.6497C123.082 61.6095 123.101 61.5818 123.119 61.5546C123.203 61.433 123.284 61.3134 123.362 61.1918C123.385 61.1562 123.403 61.1286 123.42 61.101C123.444 61.0631 123.461 61.0362 123.478 61.009C123.502 60.9699 123.52 60.9415 123.537 60.913C123.636 60.752 123.729 60.5937 123.82 60.433C123.84 60.3963 123.857 60.367 123.873 60.3374C123.895 60.2983 123.911 60.2687 123.927 60.2387C124.037 60.0374 124.14 59.8392 124.238 59.6386C124.256 59.6007 124.271 59.5703 124.286 59.5391C124.305 59.4993 124.32 59.4677 124.335 59.4365C124.418 59.2612 124.495 59.0903 124.569 58.9181C123.713 58.7286 121.96 58.684 121.867 58.6816C121.866 58.6844 121.838 58.7393 121.783 58.8352C121.595 59.1657 121.102 59.9513 120.438 60.3998C120.031 60.6754 119.559 60.8238 119.055 60.662C119.03 60.6537 119.004 60.645 118.979 60.6351C118.896 60.7496 117.319 62.9257 116.422 64.3075C116.452 64.3383 116.482 64.3679 116.512 64.3968C116.53 64.4133 116.543 64.426 116.557 64.4382C116.577 64.4564 116.59 64.4674 116.603 64.4785C116.625 64.4974 116.638 64.5085 116.651 64.5192C116.674 64.5373 116.688 64.5492 116.703 64.5606C116.754 64.6001 116.804 64.6356 116.854 64.6688C116.876 64.6826 116.89 64.6917 116.905 64.7008C116.927 64.715 116.942 64.7237 116.956 64.7319C116.98 64.7462 116.996 64.7548 117.011 64.7635C117.069 64.7951 117.122 64.8224 117.177 64.8472C117.198 64.8567 117.215 64.8638 117.23 64.8705C117.255 64.8808 117.271 64.8875 117.286 64.8934C117.312 64.9037 117.328 64.9096 117.344 64.9155C117.407 64.938 117.464 64.9562 117.523 64.9724C117.546 64.9787 117.563 64.9834 117.58 64.9878C117.606 64.9941 117.622 64.9977 117.639 65.0012C117.666 65.0071 117.682 65.0107 117.699 65.0138C117.728 65.0194 117.746 65.0229 117.765 65.0261C117.808 65.0332 117.85 65.0395 117.891 65.0442C117.913 65.0466 117.932 65.0486 117.951 65.0502C117.979 65.0525 117.995 65.0537 118.012 65.0549C118.042 65.0569 118.059 65.0581 118.075 65.0588C118.106 65.06 118.124 65.0604 118.142 65.0608C118.193 65.062 118.236 65.0616 118.279 65.0604C118.301 65.0596 118.321 65.0588 118.342 65.0577C118.371 65.0561 118.389 65.0545 118.406 65.0533C118.438 65.0509 118.455 65.0498 118.471 65.0482C118.505 65.045 118.521 65.0431 118.538 65.0411C118.572 65.0371 118.592 65.0344 118.613 65.0312C118.662 65.0245 118.706 65.0166 118.751 65.0083C118.782 65.0024 118.8 64.9992 118.817 64.9957C118.823 64.9945 118.83 64.9929 118.836 64.9913C118.852 64.9878 118.868 64.9846 118.884 64.9811C118.891 64.9795 118.898 64.9779 118.904 64.9763C118.92 64.9728 118.937 64.9684 118.953 64.9645C118.959 64.9629 118.966 64.9613 118.972 64.9597C118.99 64.955 119.008 64.9507 119.026 64.9459C119.085 64.9297 119.13 64.9163 119.177 64.9017C119.21 64.8911 119.227 64.8855 119.245 64.8796C119.252 64.8772 119.259 64.8749 119.267 64.8725C119.282 64.8674 119.298 64.8614 119.314 64.8559C119.322 64.8532 119.33 64.8504 119.337 64.8476C119.353 64.8421 119.368 64.8362 119.384 64.8306C119.392 64.8275 119.4 64.8247 119.408 64.8216C119.424 64.8156 119.44 64.8093 119.456 64.803C119.463 64.8003 119.47 64.7975 119.477 64.7947C119.497 64.7864 119.518 64.7781 119.538 64.7699C119.57 64.7564 119.594 64.7466 119.617 64.7363C119.651 64.7213 119.669 64.7134 119.688 64.7051C119.696 64.7016 119.703 64.6976 119.711 64.6941C119.727 64.6869 119.743 64.6794 119.759 64.6719C119.767 64.668 119.776 64.6633 119.784 64.6593C119.799 64.6522 119.815 64.6447 119.83 64.6372C119.839 64.6329 119.848 64.6285 119.857 64.6242C119.872 64.6163 119.888 64.6084 119.903 64.6005C119.912 64.5961 119.92 64.5918 119.928 64.5875C119.946 64.5784 119.964 64.5689 119.981 64.5594C120.024 64.5365 120.048 64.5235 120.072 64.5101C120.103 64.4923 120.123 64.4813 120.144 64.4694C120.152 64.4647 120.16 64.4599 120.168 64.4552C120.184 64.4457 120.2 64.4366 120.216 64.4272C120.225 64.4216 120.234 64.4161 120.244 64.4106C120.259 64.4015 120.274 64.3924 120.289 64.3833C120.299 64.3774 120.308 64.3711 120.317 64.3652C120.333 64.3557 120.348 64.3462 120.363 64.3368C120.372 64.3308 120.382 64.3253 120.391 64.3194C120.407 64.3091 120.423 64.2981 120.44 64.2874Z" fill="#4B5CC0"/>
<path d="M119.271 60.2321C119.209 60.3833 119.133 60.5294 119.055 60.6621C119.559 60.8239 120.031 60.6755 120.438 60.3999C121.102 59.9514 121.595 59.1658 121.783 58.8353C121.699 58.8085 121.615 58.7647 121.547 58.6936C121.441 58.4279 121.382 57.9403 121.353 57.6367L120.786 58.5854C120.682 58.7611 120.558 58.8973 120.434 58.9814C120.31 59.0651 120.185 59.0971 120.08 59.0635L119.498 58.8784C119.486 58.8748 119.475 58.8709 119.463 58.8669C119.438 59.2001 119.381 59.8042 119.271 60.2321Z" fill="#CBDCEB"/>
<path d="M119.11 55.9042C118.902 56.0447 118.858 56.0388 118.856 56.0384L118.719 57.2319L118.752 57.631C118.759 57.7115 118.769 57.7889 118.782 57.8632C118.873 58.3819 119.115 58.7384 119.466 58.8659C119.478 58.8699 119.489 58.8738 119.501 58.8774L120.083 59.0626C120.188 59.0961 120.313 59.0641 120.437 58.9804C120.561 58.8963 120.685 58.7601 120.79 58.5844L121.356 57.6357L121.369 57.614C121.732 57.0076 121.981 56.3147 122.076 55.6637C122.091 55.5619 122.102 55.4608 122.109 55.3613L122.165 54.5705L121.69 52.8235C121.686 52.8176 121.616 52.7019 121.439 52.8216C121.343 52.8863 121.217 53.0217 121.057 53.2866C120.602 54.0391 120.554 54.7209 119.768 55.3882C119.456 55.6542 119.247 55.8114 119.11 55.9042Z" fill="#CBDCEB"/>
<path d="M119.812 51.8741C118.976 52.7474 118.522 53.9085 118.397 54.984C118.332 55.5438 118.42 56.1589 118.518 56.6192C118.609 57.0417 118.704 57.32 118.709 57.3346L118.72 57.2316L118.857 56.0381C118.86 56.0385 118.903 56.0444 119.111 55.9038C119.249 55.8111 119.457 55.6539 119.769 55.3878C120.555 54.7206 120.603 54.0388 121.059 53.2863C121.219 53.0214 121.345 52.886 121.441 52.8212C121.617 52.7016 121.688 52.8173 121.692 52.8232L122.167 54.5702L122.178 54.612C122.181 54.6006 122.225 54.3823 122.282 54.0846C122.343 53.7652 122.415 53.368 122.454 53.0944C122.53 52.565 122.324 51.5081 121.993 51.15C121.734 50.8705 121.053 50.9384 120.369 51.4015C120.181 51.5287 119.992 51.6862 119.812 51.8741Z" fill="#96432A"/>
<path d="M121.785 58.8346C121.84 58.7387 121.868 58.6838 121.869 58.681C121.961 58.6834 123.714 58.7284 124.571 58.9167C125.305 57.2072 125.743 55.3596 125.739 53.6718C125.73 49.7925 123.388 48.2271 120.505 50.1762C117.623 52.1254 115.295 56.8487 115.305 60.7285C115.309 62.4304 115.763 63.6867 116.514 64.3961C116.483 64.3673 116.453 64.3377 116.424 64.3069C117.321 62.9251 118.898 60.749 118.981 60.6345C119.006 60.6444 119.031 60.653 119.057 60.6613C119.135 60.5287 119.211 60.3826 119.273 60.2314C119.383 59.8034 119.44 59.1994 119.465 58.8662C119.114 58.7387 118.872 58.3822 118.781 57.8634C118.759 57.9037 118.731 57.9368 118.695 57.9605C118.261 58.1496 118.03 57.1784 118.308 56.7856C118.352 56.7228 118.394 56.681 118.433 56.6545C118.462 56.6348 118.49 56.6237 118.516 56.6198C118.417 56.1594 118.33 55.5443 118.395 54.9845C118.519 53.9091 118.974 52.748 119.809 51.8747C119.989 51.6867 120.178 51.5292 120.366 51.4021C121.051 50.939 121.731 50.8711 121.99 51.1506C122.321 51.5087 122.527 52.5656 122.451 53.095C122.412 53.3686 122.34 53.7658 122.279 54.0851C122.31 54.0449 122.343 54.0101 122.379 53.9857C122.418 53.9592 122.46 53.945 122.504 53.9478C122.783 53.9636 122.558 55.2427 122.153 55.6193C122.106 55.6541 122.09 55.6612 122.075 55.664C121.98 56.315 121.731 57.0079 121.368 57.6143C121.383 57.9392 121.443 58.4272 121.549 58.6929C121.617 58.7639 121.701 58.8077 121.785 58.8346Z" fill="#58AFFB"/>
<path d="M114.482 64.4414L114.485 65.6053L105.393 71.7535L105.391 70.5896L114.482 64.4414Z" fill="#79AEF5"/>
<path d="M109.979 64.7852L109.982 65.949L105.386 69.0573L105.383 67.8934L109.979 64.7852Z" fill="#79AEF5"/>
<path d="M107.159 63.332L107.162 64.5066L105.378 65.7131L105.375 64.5385L107.159 63.332Z" fill="#79AEF5"/>
</g>
<path d="M114.482 95.3477L114.485 96.5115L105.393 102.66L105.391 101.496L114.482 95.3477Z" fill="#79AEF5"/>
<path d="M109.979 95.6934L109.982 96.8572L105.386 99.9659L105.383 98.8016L109.979 95.6934Z" fill="#79AEF5"/>
<path d="M107.159 94.2402L107.162 95.4144L105.378 96.6209L105.375 95.4463L107.159 94.2402Z" fill="#79AEF5"/>
<path d="M114.482 85.4766L114.485 86.6404L105.393 92.7887L105.391 91.6248L114.482 85.4766Z" fill="#79AEF5"/>
<path d="M109.979 85.8223L109.982 86.9861L105.386 90.0948L105.383 88.9305L109.979 85.8223Z" fill="#79AEF5"/>
<path d="M107.159 84.3691L107.162 85.5433L105.378 86.7498L105.375 85.5753L107.159 84.3691Z" fill="#79AEF5"/>
<path d="M37.7709 133.348L37.7736 134.512L28.6824 140.66L28.6797 139.496L37.7709 133.348Z" fill="#79AEF5"/>
<path d="M33.2679 133.693L33.2709 134.857L28.6746 137.966L28.6719 136.802L33.2679 133.693Z" fill="#79AEF5"/>
<path d="M30.4477 132.24L30.4508 133.414L28.6668 134.621L28.6641 133.446L30.4477 132.24Z" fill="#79AEF5"/>
<mask id="mask2_1261_4998" style="mask-type:alpha" maskUnits="userSpaceOnUse" x="52" y="112" width="43" height="32">
<path d="M92.5426 142.821C92.5702 138.337 92.7061 116.373 92.7061 116.373L53.9453 142.035" stroke="#FF3D3D" stroke-width="4.2"/>
</mask>
<g mask="url(#mask2_1261_4998)">
<path d="M55.375 141.642L92.7929 116.393V139.26" stroke="#79AEF5" stroke-width="0.84" stroke-miterlimit="10"/>
</g>
<path d="M29.3339 146.52C29.1664 146.977 29.0693 147.454 29.0703 147.896L29.1071 163.11C29.1101 164.31 29.8354 164.794 30.7266 164.191L50.1043 151.086C50.9954 150.483 51.7167 149.021 51.7137 147.822L51.6766 132.608C51.6756 132.166 51.5765 131.821 51.4073 131.592L40.3932 147.857L29.3339 146.52Z" stroke="#79AEF5" stroke-width="0.84" stroke-miterlimit="10"/>
<path d="M30.6814 144.631C29.9383 145.289 29.5695 145.885 29.3359 146.521L40.3939 147.859L51.4093 131.593C51.1737 131.275 50.803 131.178 50.3716 131.356L30.6814 144.631Z" stroke="#79AEF5" stroke-width="0.84" stroke-miterlimit="10"/>
<path d="M208.664 57.5625C208.875 57.628 209.179 57.7686 209.469 57.9316C209.919 58.1843 210.212 58.4496 210.421 58.7919C210.59 59.0647 210.689 59.3928 210.696 59.7055C210.71 60.2408 210.447 60.4434 210.107 60.3948L210.108 60.413C210.362 60.6629 210.52 61.0363 210.607 61.5018C210.728 62.1288 210.815 62.5646 210.887 62.7596L210.451 62.5141C210.394 62.3696 210.313 61.9787 210.209 61.4205C210.098 60.8054 209.919 60.4967 209.535 60.2637L209.138 60.0407L209.18 61.7999L208.759 61.563L208.664 57.5625ZM209.129 59.6435L209.56 59.8855C210.01 60.1386 210.288 59.9921 210.277 59.529C210.264 59.0059 209.954 58.6064 209.508 58.3505C209.305 58.2364 209.161 58.1788 209.093 58.165L209.129 59.6435Z" fill="#79AEF5"/>
<path d="M213.012 62.0735L211.742 61.3597L211.779 62.8256L213.196 63.6223L213.208 64.0633L211.368 63.0289L211.266 58.9688L213.028 59.9581L213.039 60.3971L211.698 59.6443L211.731 60.9262L213 61.6392L213.012 62.0735Z" fill="#79AEF5"/>
<path d="M216.041 65.5264C215.888 65.5359 215.58 65.4577 215.181 65.2335C214.258 64.7143 213.544 63.5986 213.509 62.2646C213.475 60.9929 214.145 60.5212 215.158 61.0897C215.565 61.3183 215.825 61.5709 215.938 61.7059L215.848 62.0767C215.686 61.8903 215.456 61.6898 215.185 61.5374C214.419 61.1074 213.926 61.43 213.955 62.4971C213.982 63.4932 214.46 64.3934 215.257 64.8411C215.514 64.9859 215.775 65.0665 215.942 65.0594L216.041 65.5264Z" fill="#79AEF5"/>
<path d="M216.461 61.9396C216.673 62.0052 216.977 62.1469 217.269 62.3104C217.72 62.5638 218.014 62.8295 218.224 63.1734C218.395 63.447 218.495 63.7762 218.505 64.0905C218.521 64.6282 218.259 64.8319 217.918 64.7834L217.919 64.8015C218.175 65.0522 218.334 65.4277 218.424 65.8951C218.548 66.5244 218.638 66.9623 218.71 67.1581L218.273 66.9117C218.216 66.7665 218.133 66.374 218.025 65.8134C217.911 65.1959 217.73 64.886 217.346 64.6523L216.947 64.4284L216.998 66.1952L216.575 65.9575L216.461 61.9396ZM216.936 64.0293L217.368 64.2721C217.82 64.526 218.098 64.3787 218.084 63.9136C218.068 63.3882 217.756 62.987 217.309 62.7304C217.105 62.6159 216.96 62.5583 216.893 62.5445L216.936 64.0293Z" fill="#79AEF5"/>
<path d="M219.49 63.5896L219.563 66.0015C219.591 66.9162 219.928 67.4875 220.367 67.7339C220.854 68.0075 221.153 67.7824 221.125 66.8791L221.049 64.4649L221.477 64.705L221.552 67.0832C221.591 68.3387 221.076 68.5566 220.365 68.1567C219.693 67.7789 219.173 67.0149 219.135 65.7488L219.062 63.3496L219.49 63.5896Z" fill="#79AEF5"/>
<path d="M222.634 65.3549L222.766 69.4406L222.342 69.2022L222.211 65.1172L222.634 65.3549Z" fill="#79AEF5"/>
<path d="M224.012 66.5665L223.014 66.0063L223 65.5586L225.428 66.9218L225.443 67.3699L224.44 66.8069L224.561 70.449L224.132 70.2074L224.012 66.5665Z" fill="#79AEF5"/>
<path d="M228.641 70.9758C228.596 70.3903 228.543 69.6872 228.529 69.1799L228.514 69.1716C228.419 69.5885 228.301 70.022 228.155 70.4942L227.645 72.1582L227.322 71.9766L226.722 69.7247C226.546 69.0598 226.396 68.4586 226.287 67.9212L226.277 67.9157C226.285 68.4199 226.284 69.0918 226.276 69.6888L226.249 71.3975L225.844 71.1697L225.933 67.2051L226.473 67.5087L227.103 69.8017C227.257 70.3828 227.385 70.8961 227.483 71.3686L227.497 71.3769C227.566 71.0098 227.667 70.6252 227.795 70.1906L228.31 68.5395L228.851 68.8435L229.204 73.0588L228.789 72.8251L228.641 70.9758Z" fill="#79AEF5"/>
<path d="M231.495 72.4601L230.215 71.7408L230.27 73.2217L231.698 74.0243L231.714 74.47L229.861 73.4278L229.711 69.3262L231.487 70.323L231.503 70.7664L230.151 70.0076L230.199 71.3025L231.479 72.0215L231.495 72.4601Z" fill="#79AEF5"/>
<path d="M232.265 74.7813L232.109 70.6738L232.573 70.9344L233.708 73.6036C233.972 74.2231 234.18 74.7636 234.353 75.2733L234.362 75.2729C234.302 74.7012 234.272 74.1947 234.247 73.5543L234.18 71.8365L234.58 72.0612L234.742 76.1742L234.312 75.9318L233.183 73.255C232.936 72.6688 232.698 72.0762 232.515 71.5384L232.5 71.5365C232.545 72.0675 232.573 72.5665 232.599 73.2491L232.667 75.0068L232.265 74.7813Z" fill="#79AEF5"/>
<path d="M235.973 73.281L234.971 72.718L234.953 72.2676L237.393 73.6371L237.412 74.0884L236.404 73.5226L236.552 77.1888L236.121 76.946L235.973 73.281Z" fill="#79AEF5"/>
<g opacity="0.5">
<path d="M213.625 74.2669L213.625 76.2543C213.626 77.4257 212.543 78.1584 211.677 77.5741L203.659 72.1634C203.256 71.8918 203.008 71.3892 203.008 70.8447L203.008 68.8573C203.007 67.6856 204.089 66.9528 204.956 67.5375L212.974 72.9478C213.376 73.2199 213.625 73.7224 213.625 74.2669Z" fill="#79AEF5"/>
<path d="M239.013 101.176L239.013 103.168C239.013 104.338 237.934 105.071 237.067 104.489L203.661 82.0578C203.258 81.7866 203.008 81.2828 203.008 80.738L203.008 78.7458C203.008 77.5756 204.087 76.8429 204.954 77.4244L238.359 99.8562C238.763 100.127 239.013 100.631 239.013 101.176Z" fill="#79AEF5"/>
<path d="M225.247 111.719L225.248 113.711C225.248 114.881 224.169 115.614 223.302 115.032L203.669 101.849C203.265 101.578 203.016 101.074 203.016 100.528V98.5366C203.015 97.3668 204.095 96.6337 204.961 97.2156L224.594 110.399C224.998 110.67 225.247 111.173 225.247 111.719Z" fill="#79AEF5"/>
<path d="M233.841 107.594L233.841 109.586C233.841 110.756 232.761 111.489 231.895 110.907L203.67 91.9539C203.266 91.6831 203.017 91.1797 203.017 90.6341L203.016 88.6419C203.016 87.4721 204.095 86.7394 204.962 87.3209L233.188 106.274C233.591 106.545 233.841 107.049 233.841 107.594Z" fill="#79AEF5"/>
</g>
<path d="M123.113 99.9618C123.113 99.9618 122.282 103.235 124.019 105.535C125.605 107.746 125.303 108.366 125.001 109.162C124.699 109.958 122.811 112.435 123.037 115.885C123.264 119.335 131.496 117.743 132.251 115.354C133.006 112.966 129.985 108.985 129.759 105.977C129.532 102.97 131.345 99.0774 129.155 98.1042C126.964 97.1311 124.17 96.4232 123.113 99.9618Z" fill="#BB543E"/>
<g opacity="0.35">
<path d="M105.844 172.806C105.844 181.406 115.212 188.378 126.768 188.378C138.324 188.378 147.692 181.406 147.692 172.806C147.692 164.206 138.324 157.234 126.768 157.234C115.212 157.234 105.844 164.206 105.844 172.806Z" fill="#A6D0F4"/>
</g>
<g opacity="0.35">
<path d="M136.836 189.084C136.836 193.885 142.065 197.777 148.516 197.777C154.966 197.777 160.195 193.885 160.195 189.084C160.195 184.284 154.966 180.393 148.516 180.393C142.065 180.393 136.836 184.284 136.836 189.084Z" fill="#A6D0F4"/>
</g>
<path d="M139.247 170.865C139.001 174.07 136.426 176.246 134.103 177.419C131.573 178.696 128.791 179.211 126.046 179.17C123.244 179.128 120.384 178.5 117.857 177.044C115.653 175.774 113.313 173.469 113.32 170.334C113.315 172.616 113.452 174.503 114.856 176.285C116.664 178.579 119.386 179.815 121.946 180.434C126.942 181.642 133.744 181.059 137.539 176.554C139.065 174.742 139.274 172.831 139.279 170.42C139.274 170.569 139.264 170.717 139.247 170.865Z" fill="#ADCDFC"/>
<path d="M135.445 165.03C140.53 168.469 140.563 174.046 135.511 177.485C130.459 180.924 122.234 180.923 117.149 177.485C112.064 174.046 112.043 168.469 117.095 165.03C122.147 161.591 130.36 161.592 135.445 165.03Z" fill="white"/>
<path d="M127.678 160.387L127.656 173.047L126.297 173.973L126.319 161.312L127.678 160.387Z" fill="#C7D8F2"/>
<path d="M126.32 161.312L126.297 173.973L124.93 173.047L124.952 160.387L126.32 161.312Z" fill="#7BAEFF"/>
<path d="M128.311 158.08L126.326 159.431L124.328 158.08L126.313 156.729L128.311 158.08Z" fill="#4DA5DC"/>
<path d="M113.414 114.989C113.414 114.989 109.327 117.802 108.242 120.661C107.157 123.52 107.447 143.581 113.143 152.476C118.838 161.371 129.416 162.642 131.857 161.371C134.298 160.1 148.401 151.841 149.486 147.711C150.571 143.581 145.147 140.404 142.163 138.815C139.179 137.227 137.281 135.003 135.654 129.285C134.027 123.567 133.213 113.718 131.314 112.13C129.416 110.541 124.805 108 113.414 114.989Z" fill="#25437F"/>
<path d="M133.668 158.541C135.658 157.505 145.398 151.824 149.517 147.522C150.389 143.485 145.099 140.379 142.162 138.816C139.178 137.227 137.28 135.003 135.653 129.285C134.026 123.567 133.212 113.719 131.313 112.13C129.415 110.542 124.804 108 113.413 114.989C113.413 114.989 111.549 116.274 110.005 117.988C108.98 121.322 109.347 140.888 114.954 149.645C120.65 158.541 131.227 159.811 133.668 158.541Z" fill="#254DA1"/>
<path d="M146.197 181.994C146.197 181.994 145.442 184.412 145.895 185.12C146.348 185.828 146.499 188.304 146.499 188.304L147.254 188.835L147.556 187.066C147.556 187.066 147.859 188.481 148.463 189.189C149.067 189.896 151.483 191.135 153.447 191.666C155.41 192.197 156.015 192.019 156.166 191.135C156.317 190.25 154.051 187.066 152.691 186.005C151.332 184.943 146.197 181.994 146.197 181.994Z" fill="#254DA1"/>
<path d="M150.626 181.758C150.626 181.758 151.481 183.881 152.086 184.765C152.69 185.65 154.351 187.243 154.2 188.127C154.049 189.012 152.539 188.835 150.726 188.127C148.914 187.42 148.461 185.474 147.554 184.943C146.648 184.412 146.044 183.822 146.195 181.994C146.346 180.166 150.626 181.758 150.626 181.758Z" fill="#FF9554"/>
<path d="M142.462 152.778C142.462 152.778 141.01 149.459 143.644 147.726C146.278 145.994 148.209 148.674 148.675 149.936C149.142 151.199 150.568 154.751 150.596 158.087C150.624 161.423 150.833 182.23 150.833 182.23C150.833 182.23 148.745 184.524 146.415 181.782C146.415 181.782 143.835 156.798 143.768 155.598C143.701 154.398 142.462 152.778 142.462 152.778Z" fill="#FF9554"/>
<path d="M141.767 184.588C141.767 184.588 141.012 187.006 141.465 187.714C141.918 188.421 142.069 190.898 142.069 190.898L142.825 191.429L143.127 189.66C143.127 189.66 143.429 191.075 144.033 191.783C144.637 192.491 147.054 193.729 149.017 194.26C150.981 194.791 151.585 194.614 151.736 193.729C151.887 192.845 149.621 189.66 148.262 188.598C146.903 187.537 141.767 184.588 141.767 184.588Z" fill="#254DA1"/>
<path d="M135.121 158.876C135.121 158.876 133.309 155.81 135.725 153.686C138.142 151.563 140.358 153.922 140.962 155.102C141.566 156.281 143.378 159.584 143.781 162.886C144.184 166.189 146.198 184.353 146.198 184.353C146.198 184.353 144.385 186.948 141.767 184.589C141.767 184.589 136.934 162.651 136.732 161.471C136.531 160.292 135.121 158.876 135.121 158.876Z" fill="#FF9554"/>
<path d="M146.196 184.354C146.196 184.354 147.052 186.477 147.656 187.361C148.26 188.246 149.922 189.839 149.771 190.723C149.62 191.608 148.109 191.431 146.297 190.723C144.484 190.015 144.031 188.069 143.125 187.538C142.218 187.007 141.614 186.418 141.765 184.589C141.916 182.761 146.196 184.354 146.196 184.354Z" fill="#FF9554"/>
<path d="M146.002 145.431C145.267 144.624 136.738 136.113 136.738 136.113L122.641 138.708C122.641 138.708 122.842 146.256 126.266 151.21C129.689 156.164 132.911 158.641 132.911 158.641C132.911 158.641 134.12 159.821 135.529 160.057C135.529 160.057 135.882 158.523 137.996 157.108C140.111 155.693 147.21 150.031 148.116 150.208C149.023 150.385 149.174 150.916 149.174 150.916C149.174 150.916 148.418 148.085 146.002 145.431Z" fill="#62759A"/>
<path d="M135.192 110.273C135.192 110.273 137.255 110.401 138.45 113.708C139.645 117.016 141.165 125.412 141.6 126.176C142.034 126.94 141.491 129.229 138.885 129.865C138.885 129.865 136.604 126.558 134.974 122.487C133.345 118.415 132.694 112.054 135.192 110.273Z" fill="#C7D8F2"/>
<path d="M126.806 108.567C126.806 108.567 121.15 113.3 120.591 114.874C120.031 116.449 119.912 120.831 121.077 123.752C122.243 126.674 121.817 137.422 122.237 139.524C122.657 141.626 127.497 142.29 130.492 141.611C133.487 140.933 137.11 138.395 136.997 134.304C136.884 130.213 136.392 127.958 138.238 118.289C138.584 116.478 137.132 114.271 136.401 111.168C136.247 110.513 134.367 109.826 134.367 109.826C134.367 109.826 132.381 108.289 126.806 108.567Z" fill="#C7D8F2"/>
<path d="M124.766 112.506C124.766 112.506 119.889 111.362 117.8 120.171C116.503 126.229 115.27 131.382 115.998 132.499C116.726 133.616 118.842 134.622 120.195 133.339C121.549 132.056 125.584 117.499 125.483 116.053C125.382 114.607 125.808 113.458 124.766 112.506Z" fill="#C7D8F2"/>
<path d="M137.8 119.816C137.8 119.816 135.736 125.669 125.852 123.379C123.897 123.252 122.051 128.468 123.245 131.266C124.253 133.627 125.411 138.153 125.62 141.651C127.209 141.95 129.058 141.936 130.488 141.612C133.483 140.933 137.106 138.395 136.993 134.304C136.887 130.472 136.448 128.251 137.911 120.035C137.84 119.897 137.8 119.816 137.8 119.816Z" fill="#A9C9E6"/>
<path d="M126.665 108.302C126.665 108.302 126.177 108.684 126.231 109.575C126.285 110.465 128.457 113.837 129.326 114.346C130.195 114.854 131.118 111.865 131.118 111.865C131.118 111.865 132.965 112.755 133.616 112.119C134.268 111.483 132.476 109.066 131.987 108.621C131.499 108.175 127.697 107.857 126.665 108.302Z" fill="white"/>
<path d="M135.425 138.178L145.545 149.501L137.69 154.631L127.57 143.309L135.425 138.178Z" fill="white"/>
<path d="M137.234 140.793C137.234 140.793 136.475 142.288 136.309 142.937C136.142 143.586 135.615 144.832 135.834 145.177C136.052 145.523 136.795 144.955 136.952 144.567C137.109 144.178 137.41 143.995 137.41 143.995C137.41 143.995 137.447 144.435 137.509 145.169C137.571 145.902 137.798 147.469 138.295 147.744C138.793 148.02 139.521 146.899 139.875 146.228C140.229 145.557 140.222 143.596 140.025 143.137C139.828 142.678 139.297 141.628 139.297 141.628L137.234 140.793Z" fill="#FF9554"/>
<path d="M137.583 126.684C137.798 124.589 140.135 123.938 141.151 125.681C141.554 126.373 141.941 127.261 142.143 128.328C142.68 131.16 140.208 141.163 139.955 142.068C139.702 142.974 138.232 143.378 137.073 142.243C135.915 141.108 137.538 129.813 137.54 128.431C137.541 127.958 137.517 127.327 137.583 126.684Z" fill="#C7D8F2"/>
<path d="M130.397 141.328C130.397 141.328 131.865 141.589 132.4 141.85C132.934 142.11 134.091 142.423 134.18 142.84C134.269 143.257 133.423 143.57 133.067 143.466C132.711 143.361 132.4 143.518 132.4 143.518C132.4 143.518 132.666 143.83 133.112 144.352C133.556 144.873 134.447 146.072 134.313 146.697C134.18 147.323 132.978 147.271 132.311 147.167C131.643 147.063 130.352 145.811 130.175 145.342C129.997 144.873 129.641 143.726 129.641 143.726L130.397 141.328Z" fill="#FF9554"/>
<path d="M118.852 130.018C117.342 128.866 115.416 130.549 115.906 132.58C116.1 133.386 116.433 134.303 117.002 135.169C118.513 137.469 128.633 144.015 129.388 144.369C130.143 144.723 131.352 143.661 131.352 141.892C131.352 140.123 120.93 131.984 120.023 131.1C119.713 130.797 119.315 130.371 118.852 130.018Z" fill="#C7D8F2"/>
<path d="M131.718 107.673C131.718 107.673 131.703 107.755 131.72 107.887C131.782 108.372 131.988 109.614 132.027 110.133C132.063 110.63 131.582 111.491 130.436 111.464C129.29 111.437 127.346 110.875 126.699 109.276C126.751 108.991 126.669 106.029 126.508 104.553L131.718 107.673Z" fill="#FF8654"/>
<path d="M133.362 99.5765C132.827 96.2286 130.562 94.328 128.001 95.0296C128.001 95.0296 125.225 95.3553 123.991 98.2121C122.758 101.068 124.57 103.47 125.73 104.985C126.219 105.607 126.589 106.087 126.822 106.392C126.906 106.508 126.99 106.625 127.078 106.729C127.094 106.751 127.102 106.763 127.102 106.763L127.105 106.759C127.898 107.687 128.806 108.213 129.478 108.447C130.595 108.837 131.916 108.613 132.629 107.723C133.342 106.832 133.897 102.925 133.362 99.5765Z" fill="#FF9554"/>
<path d="M125.673 103.376C125.673 103.376 124.831 102.027 124.211 102.39C123.591 102.753 125.053 105.71 125.983 105.658C126.824 105.503 125.673 103.376 125.673 103.376Z" fill="#FF9554"/>
<path d="M130.59 97.7503C130.59 97.7503 129.835 97.3965 129.457 98.635C129.08 99.8735 128.853 101.554 127.494 102.173C126.134 102.792 125.757 103.146 124.775 103.058C123.793 102.97 122.811 101.908 122.887 100.669C122.962 99.4309 123.416 95.8923 127.116 94.3885C130.817 92.8847 133.384 96.4233 133.838 98.635C134.291 100.846 133.535 101.023 133.535 101.023C133.535 101.023 133.46 97.3965 130.59 97.7503Z" fill="#BB543E"/>
<g opacity="0.35">
<path d="M184.266 159.006C184.266 163.807 189.495 167.699 195.945 167.699C202.396 167.699 207.625 163.807 207.625 159.006C207.625 154.206 202.396 150.314 195.945 150.314C189.495 150.314 184.266 154.206 184.266 159.006Z" fill="#A6D0F4"/>
</g>
<g opacity="0.35">
<path d="M152.562 140.724C152.562 149.324 161.931 156.296 173.487 156.296C185.043 156.296 194.411 149.324 194.411 140.724C194.411 132.124 185.043 125.152 173.487 125.152C161.931 125.152 152.562 132.124 152.562 140.724Z" fill="#A6D0F4"/>
</g>
<path d="M185.966 138.783C185.72 141.988 183.145 144.165 180.822 145.337C178.292 146.615 175.51 147.13 172.765 147.088C169.963 147.046 167.102 146.418 164.576 144.962C162.372 143.692 160.032 141.387 160.039 138.252C160.034 140.535 160.171 142.421 161.575 144.203C163.383 146.498 166.105 147.733 168.665 148.353C173.661 149.561 180.462 148.977 184.257 144.472C185.784 142.66 185.993 140.749 185.998 138.339C185.993 138.488 185.983 138.636 185.966 138.783Z" fill="#ADCDFC"/>
<path d="M182.164 132.948C187.249 136.387 187.282 141.964 182.23 145.403C177.178 148.842 168.953 148.841 163.867 145.403C158.782 141.964 158.762 136.387 163.814 132.948C168.866 129.509 177.079 129.51 182.164 132.948Z" fill="white"/>
<path d="M174.397 128.307L174.375 140.967L173.016 141.892L173.038 129.232L174.397 128.307Z" fill="#C7D8F2"/>
<path d="M173.038 129.232L173.016 141.892L171.648 140.967L171.67 128.307L173.038 129.232Z" fill="#7BAEFF"/>
<path d="M175.03 125.998L173.045 127.349L171.047 125.998L173.032 124.646L175.03 125.998Z" fill="#4DA5DC"/>
<path d="M160.133 82.9072C160.133 82.9072 156.045 85.7197 154.96 88.5789C153.875 91.438 154.166 111.499 159.861 120.394C165.557 129.289 176.134 130.56 178.575 129.289C181.016 128.018 195.12 119.759 196.204 115.629C197.289 111.499 191.865 108.322 188.882 106.733C185.898 105.145 184 102.921 182.372 97.2029C180.745 91.4846 179.932 81.6359 178.033 80.0476C176.134 78.4594 171.524 75.918 160.133 82.9072Z" fill="#25437F"/>
<path d="M180.387 126.459C182.377 125.423 192.117 119.741 196.236 115.44C197.108 111.403 191.818 108.297 188.881 106.734C185.897 105.145 183.999 102.921 182.372 97.2031C180.744 91.4848 179.931 81.6361 178.032 80.0478C176.134 78.4596 171.523 75.9178 160.132 82.907C160.132 82.907 158.268 84.1921 156.723 85.9059C155.698 89.2396 156.066 108.806 161.673 117.563C167.369 126.459 177.946 127.729 180.387 126.459Z" fill="#254DA1"/>
<path d="M184.815 83.3731C184.815 83.3731 186.022 83.8611 186.928 87.3997C187.834 90.9379 190.402 97.3076 189.496 100.138C188.589 102.969 185.87 101.377 185.115 99.2535C184.36 97.1307 181.344 87.2939 181.946 85.843C182.548 84.3921 183.608 82.8847 184.815 83.3731Z" fill="#113569"/>
<path d="M192.197 155.752C192.197 155.752 192.417 156.797 192.95 157.991C193.483 159.185 195.406 160.786 196.217 161.601C197.028 162.415 198.035 163.921 197.931 164.64C197.826 165.36 195.869 165.535 194.328 165.142C192.788 164.748 191.444 162.74 190.992 162.781C190.54 162.821 188.849 162.441 188.502 161.762C188.154 161.084 188.734 158.37 188.734 158.37L188.757 156.416L192.197 155.752Z" fill="#232839"/>
<path d="M199.745 150.09C199.745 150.09 199.964 151.135 200.497 152.329C201.03 153.523 202.953 155.125 203.764 155.939C204.575 156.753 205.583 158.259 205.478 158.979C205.374 159.698 203.416 159.874 201.875 159.48C200.335 159.087 198.991 157.078 198.539 157.119C198.087 157.16 196.396 156.779 196.048 156.101C195.701 155.422 196.281 152.709 196.281 152.709L196.304 150.755L199.745 150.09Z" fill="#232839"/>
<path d="M171.116 111.165C171.116 111.165 170.915 114.94 172.727 118.006C174.54 121.073 181.991 128.858 182.797 129.565C183.602 130.273 183.804 135.463 184.609 137.821C185.415 140.18 187.832 155.514 188.234 156.693C188.234 156.693 188.637 157.873 191.457 157.165C193.068 156.929 193.269 156.222 193.269 156.222C193.269 156.222 192.262 139.001 191.457 134.991C190.651 130.98 190.45 126.499 189.04 124.847C187.63 123.196 180.783 112.817 180.783 112.817L179.172 109.75L171.116 111.165Z" fill="#113C7A"/>
<path d="M183.609 107.393C183.609 107.393 194.485 114.469 195.995 116.062C197.505 117.654 198.563 119.777 198.865 121.723C198.985 122.502 200.073 149.854 200.526 151.092C200.677 152.154 197.807 152.862 196.448 152.331C195.693 151.8 195.089 150.738 195.089 150.738C195.089 150.738 192.37 134.284 192.37 131.985C192.37 129.685 191.161 122.785 191.161 122.785L178.625 114.469L177.719 110.754L183.609 107.393Z" fill="#113C7A"/>
<path d="M171.523 113.584C171.523 113.584 172.581 117.122 176.961 116.591C178.471 116.238 178.471 116.237 178.471 116.237L178.774 113.407C178.774 113.407 181.341 113.053 183.003 111.461C183.607 111.814 183.758 113.584 184.362 113.761C184.966 113.938 186.024 111.461 185.722 109.692C185.42 107.922 184.664 108.63 184.664 108.63C184.664 108.63 172.279 112.169 171.523 113.584Z" fill="#112C5C"/>
<path d="M176.149 81.5422C176.149 81.5422 170.981 85.8685 170.469 87.3071C169.958 88.7461 169.849 92.7506 170.914 95.4202C171.98 98.0899 171.59 107.913 171.974 109.834C172.358 111.755 176.781 112.362 179.518 111.742C182.256 111.121 185.566 108.802 185.463 105.063C185.359 101.325 185.428 94.3535 185.601 92.6693C185.775 90.9851 185.586 86.7552 184.919 83.9197C184.778 83.3216 183.059 82.6935 183.059 82.6935C183.059 82.6935 181.245 81.2892 176.149 81.5422Z" fill="white"/>
<path d="M180.644 80.727C180.644 80.727 180.63 80.8024 180.646 80.9225C180.703 81.3658 180.891 82.5005 180.926 82.9746C180.96 83.429 180.52 84.2163 179.473 84.1914C178.425 84.1665 176.648 83.6533 176.057 82.1917C176.105 81.932 176.03 79.2244 175.883 77.875L180.644 80.727Z" fill="#E16B40"/>
<path d="M176.009 81.2656C176.009 81.2656 176.84 84.2578 179.666 84.1812C179.728 84.1796 179.791 84.1765 179.854 84.1718L178.428 86.8595C178.428 86.8595 176.257 85.334 175.575 84.4623C174.893 83.5906 174.955 82.3557 174.955 82.3557L176.009 81.2656Z" fill="white"/>
<path d="M179.852 84.173L181.34 85.8438C181.34 85.8438 182.456 84.7542 181.774 82.2112L180.844 81.7754C180.844 81.7754 180.968 83.2283 179.852 84.173Z" fill="white"/>
<path d="M174.955 82.3555C174.955 82.3555 174.179 83.2268 175.203 85.4065C176.226 87.5858 177.342 91.291 177.435 95.432C177.528 99.5731 177.994 112.541 177.529 115.374C176.598 116.355 172.132 115.483 170.83 112.868C170.272 109.053 170.551 97.5028 169.9 95.1051C169.249 92.7079 169.435 88.3489 169.807 87.1499C170.272 85.9513 173.869 82.6824 174.955 82.3555Z" fill="#113C7A"/>
<path d="M182.148 82.2832C182.148 82.2832 183.017 85.988 182.893 90.2743C182.893 94.5607 183.947 112.36 184.133 112.723C184.319 113.086 186.49 110.834 186.552 108.219C186.614 105.603 185.808 89.5479 185.684 87.9498C185.56 86.3516 185.125 83.6634 184.815 83.3728C184.505 83.0823 182.521 82.3558 182.148 82.2832Z" fill="#113C7A"/>
<path d="M181.069 85.0511L180.399 86.7081L178.984 85.3997L179.852 84.1719L181.069 85.0511Z" fill="#113C7A"/>
<path d="M180.699 85.6608C180.699 85.6608 182.033 105.572 182.033 106.444L181.139 108.276L179.948 106.793L179.508 85.4863L180.699 85.6608Z" fill="#113C7A"/>
<path d="M170.059 86.4554C170.059 86.4554 169.052 87.399 168.247 90.3478C167.441 93.2965 166.938 103.558 166.938 105.091C166.938 106.625 166.938 108.394 168.045 109.22C169.153 110.045 170.462 109.927 171.167 108.394C171.872 106.86 172.375 98.132 172.878 95.4194C173.382 92.7067 174.188 89.9936 173.181 88.2245C172.174 86.4554 170.864 86.2193 170.059 86.4554Z" fill="#113C7A"/>
<path d="M183.761 107.746L193.88 119.069L186.026 124.2L175.906 112.877L183.761 107.746Z" fill="#CBDCEB"/>
<path d="M181.487 116.297C181.487 116.297 181.99 116.71 182.242 116.887C182.494 117.064 183.45 117.771 183.903 118.125C184.357 118.479 184.86 119.717 185.011 119.953C185.162 120.189 185.615 121.428 185.514 121.723C185.414 122.018 185.112 121.84 185.112 121.84C185.112 121.84 184.558 122.548 183.953 122.489C183.349 122.43 182.846 121.545 182.846 121.545C182.846 121.545 182.443 121.133 181.99 120.661C181.537 120.189 181.185 119.128 181.185 119.128L180.58 118.656C180.58 118.656 180.127 118.125 181.487 116.297Z" fill="#FF8654"/>
<path d="M179.602 118.273C179.602 118.273 180.231 116.179 180.986 115.648L181.842 116.356C181.842 116.356 180.885 117.654 180.734 118.892L179.602 118.273Z" fill="white"/>
<path d="M179.6 118.272C179.6 118.272 178.996 118.272 178.089 117.683C177.183 117.093 175.195 115.118 173.885 114.528C172.576 113.938 169.958 112.051 168.448 110.517C166.938 108.984 166.938 106.507 166.938 106.507C167.441 105.563 168.851 104.738 170.462 105.446C172.073 106.153 174.087 107.923 175.899 109.692C177.712 111.461 180.808 114.97 180.808 114.97L181.337 115.707C181.337 115.707 180.229 116.179 179.6 118.272Z" fill="#113C7A"/>
<path d="M186.628 100.845C186.628 100.845 186.477 102.614 186.93 104.383C187.383 106.152 186.326 112.168 186.779 112.699C187.232 113.23 188.138 113.937 189.498 113.583C189.951 113.23 190.404 112.875 190.404 112.875C190.404 112.875 190.857 106.86 190.857 105.091C190.857 103.322 190.404 98.3681 189.347 97.3065C188.289 96.2449 185.721 97.1296 186.628 100.845Z" fill="#113569"/>
<path d="M187.156 112.522C187.156 112.522 188.365 111.106 189.95 112.61L190.026 113.849C190.026 113.849 189.724 114.999 187.232 113.937L187.156 112.522Z" fill="white"/>
<path d="M187.383 113.613C187.383 113.613 188.667 112.758 189.799 113.731L189.9 114.203C189.9 114.203 190.228 115.264 190.353 115.736C190.479 116.208 190.278 116.945 190.278 116.945C190.278 116.945 190.202 118.066 190.101 118.272C190.001 118.478 189.799 118.42 189.623 118.39C189.447 118.36 188.44 117.889 188.037 117.682C187.635 117.476 187.509 116.444 187.433 116.09C187.358 115.736 187.458 114.793 187.484 114.468C187.509 114.144 187.383 113.613 187.383 113.613Z" fill="#FF8654"/>
<path d="M183.917 73.6242C183.596 70.2518 181.32 67.9132 178.532 68.0417C178.532 68.0417 175.544 67.7575 174.012 70.2691C172.481 72.7808 174.237 75.5087 175.362 77.2331C175.838 77.944 176.196 78.4906 176.423 78.8384C176.504 78.9688 176.585 79.1009 176.671 79.2216C176.686 79.2459 176.695 79.2594 176.695 79.2594L176.698 79.257C177.475 80.3311 178.406 81.039 179.106 81.4124C180.269 82.033 181.696 82.102 182.524 81.3898C183.352 80.6776 184.237 76.9969 183.917 73.6242Z" fill="#FF8654"/>
<path d="M174.915 67.7493C174.915 67.7493 176.003 65.9897 178.381 66.1846C180.759 66.3791 181.297 67.3945 182.313 67.691C183.328 67.9874 184.3 67.5865 184.911 68.9597C185.522 70.333 183.78 72.4357 183.78 72.4357C183.78 72.4357 182.978 72.0626 181.964 74.1801C180.949 76.2977 178.024 75.201 177.428 74.8645L176.818 75.9051L176.731 76.9237L176.023 76.6826C176.023 76.6826 176.437 75.492 175.758 74.9111C175.079 74.3301 174.796 75.1991 174.841 75.8968C174.885 76.5941 175.769 78.3535 176.656 78.9755L176.293 79.6039L176.048 80.0201C176.048 80.0201 175.008 78.8002 174.554 78.0293C174.099 77.2587 173.333 77.6966 172.521 75.0229C171.709 72.3495 172.182 70.4795 173.202 69.5125C174.222 68.5451 174.222 68.5451 174.222 68.5451L174.915 67.7493Z" fill="#96432A"/>
</g>
</g>
<defs>
<clipPath id="clip0_1261_4998">
<rect width="321" height="282" fill="white"/>
</clipPath>
</defs>
</svg>
