<svg width="14" height="14" viewBox="0 0 14 14" fill="none" xmlns="http://www.w3.org/2000/svg">
<g clip-path="url(#clip0_1143_1532)">
<path d="M11.7085 3.3273C10.8858 2.9498 10.0035 2.67168 9.0811 2.51239C9.0643 2.50931 9.04752 2.517 9.03887 2.53236C8.9254 2.73417 8.79972 2.99744 8.71171 3.20437C7.71957 3.05583 6.73252 3.05583 5.76072 3.20437C5.67269 2.99284 5.54245 2.73417 5.42847 2.53236C5.41982 2.51751 5.40304 2.50983 5.38624 2.51239C4.46431 2.67117 3.58207 2.94929 2.75884 3.3273C2.75172 3.33037 2.74561 3.3355 2.74155 3.34216C1.06813 5.84222 0.609707 8.28083 0.834593 10.6892C0.83561 10.701 0.842225 10.7123 0.851383 10.7194C1.95546 11.5302 3.02495 12.0225 4.07458 12.3487C4.09138 12.3539 4.10917 12.3477 4.11986 12.3339C4.36815 11.9948 4.58948 11.6373 4.77925 11.2613C4.79045 11.2393 4.77976 11.2132 4.75687 11.2045C4.40581 11.0713 4.07152 10.9089 3.74997 10.7245C3.72453 10.7097 3.7225 10.6733 3.74589 10.6559C3.81356 10.6052 3.88125 10.5524 3.94586 10.4992C3.95755 10.4894 3.97384 10.4874 3.98758 10.4935C6.10008 11.458 8.3871 11.458 10.4747 10.4935C10.4884 10.4869 10.5047 10.4889 10.5169 10.4987C10.5815 10.5519 10.6492 10.6052 10.7174 10.6559C10.7408 10.6733 10.7392 10.7097 10.7138 10.7245C10.3923 10.9125 10.058 11.0713 9.7064 11.204C9.68351 11.2127 9.67333 11.2393 9.68453 11.2613C9.87836 11.6368 10.0997 11.9943 10.3434 12.3334C10.3536 12.3477 10.3719 12.3539 10.3887 12.3487C11.4434 12.0225 12.5129 11.5302 13.617 10.7194C13.6266 10.7123 13.6327 10.7015 13.6338 10.6897C13.9029 7.90537 13.183 5.48675 11.7253 3.34266C11.7217 3.3355 11.7156 3.33037 11.7085 3.3273ZM5.09472 9.22275C4.45871 9.22275 3.93466 8.63885 3.93466 7.92176C3.93466 7.20467 4.44855 6.62077 5.09472 6.62077C5.74596 6.62077 6.26494 7.2098 6.25475 7.92176C6.25475 8.63885 5.74087 9.22275 5.09472 9.22275ZM9.38382 9.22275C8.74783 9.22275 8.22378 8.63885 8.22378 7.92176C8.22378 7.20467 8.73765 6.62077 9.38382 6.62077C10.0351 6.62077 10.554 7.2098 10.5439 7.92176C10.5439 8.63885 10.0351 9.22275 9.38382 9.22275Z" fill="white"/>
</g>
<defs>
<clipPath id="clip0_1143_1532">
<rect width="13.0263" height="13.0263" fill="white" transform="translate(0.726562 0.511719)"/>
</clipPath>
</defs>
</svg>
