<svg width="236" height="158" viewBox="0 0 236 158" fill="none" xmlns="http://www.w3.org/2000/svg">
<g clip-path="url(#clip0_1143_1164)">
<mask id="mask0_1143_1164" style="mask-type:luminance" maskUnits="userSpaceOnUse" x="0" y="0" width="236" height="158">
<path d="M236 0H0V158H236V0Z" fill="white"/>
</mask>
<g mask="url(#mask0_1143_1164)">
<path d="M210.083 50.0892H170.234V22.7109H210.083V50.0892ZM170.549 49.7732H209.768V23.0269H170.549V49.7732Z" fill="#EBEBEB"/>
<path d="M173.352 24.4761C173.352 24.916 172.997 25.2727 172.559 25.2727C172.121 25.2727 171.766 24.916 171.766 24.4761C171.766 24.0359 172.121 23.6795 172.559 23.6795C172.997 23.6795 173.352 24.0359 173.352 24.4761Z" fill="#A6A6A6"/>
<path d="M176.587 24.4763C176.587 24.9162 176.231 25.273 175.793 25.273C175.355 25.273 175 24.9162 175 24.4763C175 24.0361 175.355 23.6797 175.793 23.6797C176.231 23.6797 176.587 24.0361 176.587 24.4763Z" fill="#EBEBEB"/>
<path d="M179.821 24.4763C179.821 24.9162 179.466 25.273 179.027 25.273C178.589 25.273 178.234 24.9162 178.234 24.4763C178.234 24.0361 178.589 23.6797 179.027 23.6797C179.466 23.6797 179.821 24.0361 179.821 24.4763Z" fill="#FFC627"/>
<path d="M209.925 26.1949H170.391V25.8789H209.925V26.1949Z" fill="#EBEBEB"/>
<path d="M72.5213 106.042H32.6719V78.6641H72.5213V106.042ZM32.9865 105.726H72.2066V78.9801H32.9865V105.726Z" fill="#EBEBEB"/>
<path d="M35.7897 80.4294C35.7897 80.8696 35.4347 81.2261 34.9964 81.2261C34.5584 81.2261 34.2031 80.8696 34.2031 80.4294C34.2031 79.9893 34.5584 79.6328 34.9964 79.6328C35.4347 79.6328 35.7897 79.9893 35.7897 80.4294Z" fill="#A6A6A6"/>
<path d="M39.024 80.4294C39.024 80.8696 38.6688 81.2261 38.2305 81.2261C37.7924 81.2261 37.4375 80.8696 37.4375 80.4294C37.4375 79.9893 37.7924 79.6328 38.2305 79.6328C38.6688 79.6328 39.024 79.9893 39.024 80.4294Z" fill="#EBEBEB"/>
<path d="M42.2662 80.4294C42.2662 80.8696 41.9113 81.2261 41.473 81.2261C41.0349 81.2261 40.6797 80.8696 40.6797 80.4294C40.6797 79.9893 41.0349 79.6328 41.473 79.6328C41.9113 79.6328 42.2662 79.9893 42.2662 80.4294Z" fill="#FFC627"/>
<path d="M72.3628 82.148H32.8281V81.832H72.3628V82.148Z" fill="#EBEBEB"/>
<path d="M140.216 72.6119H64.0234V24.1641H140.216V72.6119Z" fill="white"/>
<path d="M140.217 72.613L64.0245 72.7296L63.9084 72.73V72.613L63.8675 24.1655L63.8672 24.0078H64.0245L140.217 24.0723L140.31 24.0726V24.1655L140.217 72.613ZM140.217 72.613L140.124 24.1655L140.217 24.2584L64.0245 24.3232L64.1812 24.1655L64.1403 72.613L64.0245 72.4964L140.217 72.613Z" fill="#C6C6C6"/>
<path d="M140.216 26.0278H64.0234V24.1641H140.216V26.0278Z" fill="#C6C6C6"/>
<path d="M65.8936 25.0969C65.8936 25.3188 65.7146 25.4986 65.4937 25.4986C65.2728 25.4986 65.0938 25.3188 65.0938 25.0969C65.0938 24.8751 65.2728 24.6953 65.4937 24.6953C65.7146 24.6953 65.8936 24.8751 65.8936 25.0969Z" fill="#C6C6C6"/>
<path d="M67.5264 25.0969C67.5264 25.3188 67.3474 25.4986 67.1265 25.4986C66.9053 25.4986 66.7266 25.3188 66.7266 25.0969C66.7266 24.8751 66.9053 24.6953 67.1265 24.6953C67.3474 24.6953 67.5264 24.8751 67.5264 25.0969Z" fill="white"/>
<path d="M69.1593 25.0969C69.1593 25.3188 68.9802 25.4986 68.7593 25.4986C68.5384 25.4986 68.3594 25.3188 68.3594 25.0969C68.3594 24.8751 68.5384 24.6953 68.7593 24.6953C68.9802 24.6953 69.1593 24.8751 69.1593 25.0969Z" fill="#FFC627"/>
<path d="M140.216 33.3383H64.0234V26.0273H140.216V33.3383Z" fill="#EBEBEB"/>
<path d="M135.527 30.501H72.75V28.7188H135.527V30.501Z" fill="white"/>
<path d="M135.548 30.5181H72.7344V28.6992H135.548V30.5181ZM72.7706 30.4818H135.511V28.7359H72.7706V30.4818Z" fill="#C6C6C6"/>
<path d="M74.1225 29.9931L73.9966 30.0892L73.8028 29.8332L73.7628 29.7792L73.7216 29.7236L73.7188 29.7214C73.7361 29.7147 73.7518 29.7037 73.7669 29.6929C73.7694 29.6904 73.7738 29.6875 73.7763 29.685C73.8006 29.6648 73.8207 29.6401 73.8367 29.6133L73.838 29.6164L73.8824 29.6743L73.9236 29.7277L74.1225 29.9931Z" fill="#EBEBEB"/>
<path d="M73.9272 29.7258L73.8856 29.6724C73.9004 29.6522 73.9124 29.6301 73.9206 29.6073L73.8721 29.5429L73.8696 29.5391C73.8668 29.5523 73.8614 29.5656 73.8561 29.5792C73.852 29.5899 73.8466 29.6007 73.84 29.6114C73.824 29.6383 73.8038 29.6629 73.7796 29.6832C73.7849 29.6791 73.7916 29.6737 73.7969 29.6683L73.7985 29.6705L73.8388 29.7233L73.8803 29.7773L74.032 29.978L74.0131 29.9928L73.8627 29.7931L73.8224 29.7397L73.7824 29.6854L73.7796 29.6832C73.7768 29.6857 73.773 29.6882 73.7702 29.6907C73.7554 29.7015 73.7393 29.7125 73.722 29.7192C73.7167 29.7233 73.7113 29.7249 73.7057 29.7274C73.6883 29.7344 73.6723 29.7385 73.6562 29.7423L73.6575 29.7451L73.7019 29.8026C73.7233 29.7972 73.7447 29.7881 73.7661 29.7773L73.8063 29.831L73.9996 30.087L74.1257 29.9916L73.9272 29.7258Z" fill="#EBEBEB"/>
<path d="M73.8818 29.2635C73.7667 29.1127 73.5508 29.0843 73.4004 29.2003C73.2503 29.3159 73.2204 29.533 73.3368 29.6837C73.4256 29.801 73.5735 29.844 73.7063 29.8038C73.7277 29.7981 73.7487 29.789 73.7701 29.7779C73.7865 29.77 73.8029 29.7593 73.8177 29.7485C73.8214 29.7457 73.8243 29.7431 73.8271 29.7403C73.8324 29.7349 73.8378 29.7311 73.8431 29.7242C73.8604 29.7093 73.8765 29.692 73.89 29.673C73.9048 29.6528 73.9165 29.6313 73.9246 29.6082C73.9715 29.4979 73.9596 29.3658 73.8818 29.2635ZM73.8604 29.5801C73.8564 29.5908 73.8507 29.6016 73.8441 29.6123C73.828 29.6392 73.8079 29.6635 73.7837 29.6837C73.7812 29.6863 73.7774 29.6891 73.7749 29.692C73.7598 29.7027 73.7434 29.7134 73.7261 29.7201C73.7207 29.7242 73.7154 29.7255 73.7097 29.7283C73.6924 29.7349 73.6764 29.739 73.6603 29.7431C73.643 29.7457 73.6254 29.7469 73.6093 29.7469C73.526 29.7469 73.446 29.7093 73.3922 29.6408C73.3013 29.521 73.3239 29.3485 73.4432 29.2568C73.5628 29.1652 73.7346 29.1879 73.8258 29.308C73.8765 29.3741 73.8929 29.4603 73.874 29.5396C73.8711 29.5532 73.8658 29.5665 73.8604 29.5801Z" fill="#EBEBEB"/>
<path d="M73.9247 29.6082C73.9719 29.4976 73.9596 29.3658 73.8819 29.2635C73.7664 29.1127 73.5505 29.0843 73.4004 29.2003C73.25 29.3159 73.2204 29.533 73.3372 29.6837C73.4259 29.801 73.5732 29.8443 73.706 29.8038C73.7277 29.7984 73.7491 29.789 73.7705 29.7782L73.8108 29.8316C73.8268 29.8237 73.8444 29.813 73.8592 29.801C73.8617 29.7984 73.8646 29.7969 73.8671 29.7943C73.8724 29.7902 73.8794 29.7849 73.8844 29.7782C73.902 29.7634 73.9181 29.7457 73.9316 29.7267L73.8901 29.673C73.9048 29.6528 73.9168 29.631 73.9247 29.6082ZM73.835 29.6351C73.8256 29.6483 73.8149 29.661 73.8026 29.6717C73.7972 29.6771 73.7919 29.6825 73.7865 29.6866C73.784 29.6891 73.7799 29.692 73.7771 29.6945C73.7651 29.704 73.7516 29.7119 73.7384 29.7185C73.7356 29.7201 73.7315 29.7213 73.729 29.7226C73.7076 29.7346 73.6846 29.7428 73.6619 29.7457C73.5612 29.7668 73.4552 29.7296 73.3894 29.6433C73.3454 29.5842 73.3252 29.5112 73.3347 29.4373C73.3454 29.3646 73.3828 29.2985 73.4407 29.254C73.4917 29.2151 73.5505 29.1962 73.6097 29.1962C73.6912 29.1962 73.7746 29.2338 73.8284 29.3055C73.8819 29.3753 73.8979 29.4629 73.8765 29.5438C73.8696 29.5693 73.8605 29.5918 73.8457 29.6149C73.8429 29.6215 73.8391 29.6284 73.835 29.6351Z" fill="#EBEBEB"/>
<path d="M66.3807 30.2185L65.7344 29.6213L66.3798 29L66.4795 29.1046L65.9452 29.6194L66.4789 30.112L66.3807 30.2185Z" fill="white"/>
<path d="M67.9429 29L68.5895 29.5976L67.9441 30.2191L67.8438 30.1142L68.3781 29.5998L67.845 29.1068L67.9429 29Z" fill="white"/>
<path d="M138.101 30.339C138.027 30.3852 137.945 30.4209 137.855 30.4427C137.623 30.4996 137.39 30.456 137.202 30.3387C137.019 30.2246 136.877 30.0401 136.822 29.8126C136.709 29.3515 136.99 28.887 137.449 28.7748C137.908 28.662 138.37 28.9442 138.483 29.4053C138.573 29.7759 138.408 30.1491 138.101 30.339Z" fill="#DBDBDB"/>
<path d="M137.911 29.5113C137.911 29.6557 137.794 29.7727 137.651 29.7727C137.507 29.7727 137.391 29.6557 137.391 29.5113C137.391 29.3669 137.507 29.25 137.651 29.25C137.794 29.25 137.911 29.3669 137.911 29.5113Z" fill="white"/>
<path d="M138.102 30.2328V30.3406C138.028 30.3867 137.945 30.4224 137.856 30.4442C137.624 30.5011 137.391 30.4572 137.203 30.3403V30.2328C137.203 29.9841 137.404 29.7812 137.652 29.7812C137.901 29.7812 138.102 29.9841 138.102 30.2328Z" fill="white"/>
<path d="M70.513 30.3846C70.0492 30.3846 69.6719 30.0058 69.6719 29.54C69.6719 29.0742 70.0492 28.6953 70.513 28.6953C70.934 28.6953 71.2924 29.011 71.3465 29.43L71.1945 29.4499C71.1505 29.1074 70.8575 28.8492 70.513 28.8492C70.1335 28.8492 69.8245 29.1592 69.8245 29.54C69.8245 29.9211 70.1335 30.2308 70.513 30.2308C70.7074 30.2308 70.8931 30.1476 71.0237 30.0026L71.1373 30.1056C70.9781 30.2829 70.7506 30.3846 70.513 30.3846Z" fill="white"/>
<path d="M70.8281 29.2288L70.8794 29.1523L71.2554 29.4067L71.4807 29.0117L71.5607 29.0575L71.286 29.5388L70.8281 29.2288Z" fill="white"/>
<path d="M117.294 53.0002H88.3281V49.0312H117.294V53.0002Z" fill="white"/>
<path d="M117.294 53.0002H88.3281V49.0312H117.294V53.0002Z" stroke="#C6C6C6" stroke-width="0.5" stroke-miterlimit="10"/>
<path d="M117.288 53.0002H113.336V49.0312H117.288V53.0002Z" fill="#A6A6A6"/>
<path d="M116.57 52.1271L116.205 52.4051L115.529 51.5086L115.281 51.1806C115.331 51.161 115.378 51.1342 115.423 51.1001C115.509 51.0343 115.572 50.9487 115.611 50.8555L115.873 51.2037L116.57 52.1271Z" fill="white"/>
<path d="M115.849 50.0165C115.515 49.5782 114.889 49.4954 114.452 49.8316C114.016 50.1679 113.933 50.7961 114.268 51.2347C114.569 51.6287 115.105 51.7352 115.527 51.509C115.575 51.4831 115.621 51.4537 115.665 51.4195C115.746 51.3567 115.815 51.2837 115.871 51.2043C116.118 50.8558 116.122 50.3739 115.849 50.0165ZM115.421 51.1004C115.377 51.1345 115.329 51.1617 115.279 51.181C115.037 51.278 114.752 51.2075 114.586 50.9898C114.386 50.7278 114.435 50.3518 114.696 50.1508C114.957 49.9498 115.331 49.9994 115.532 50.2617C115.666 50.4377 115.688 50.6653 115.609 50.8564C115.57 50.9497 115.507 51.0347 115.421 51.1004Z" fill="white"/>
<path d="M89.3674 52.2211H89.1562V49.8125H89.3674V52.2211Z" fill="#253138"/>
<path d="M95.0192 56.6755H88.3281V54.5469H95.0192V56.6755Z" fill="#C6C6C6"/>
<path d="M106.152 56.6755H99.4609V54.5469H106.152V56.6755Z" fill="#A6A6A6"/>
<path d="M117.379 56.6755H110.688V54.5469H117.379V56.6755Z" fill="#C6C6C6"/>
<path d="M112.047 46.0237H93.5703V44.7344H112.047V46.0237Z" fill="#EBEBEB"/>
<path d="M214.725 94.2376L210.595 94.3255L208.499 94.3612C207.798 94.3757 207.094 94.3729 206.392 94.3783L206.253 94.3792L206.252 94.2376L206.235 90.7016L206.234 90.543L206.392 90.5436L210.559 90.5635C211.947 90.5651 213.336 90.5989 214.725 90.6153L214.811 90.616L214.81 90.7016C214.805 91.3017 214.784 91.8983 214.769 92.4883L214.725 94.2376ZM214.725 94.2376L214.68 92.451C214.666 91.8623 214.645 91.2805 214.639 90.7016L214.725 90.7879C213.336 90.804 211.947 90.8375 210.559 90.8391L206.392 90.8596L206.549 90.7016L206.532 94.2376L206.392 94.0967C207.079 94.1021 207.763 94.0992 208.452 94.1141L210.522 94.1495L214.725 94.2376Z" fill="#EBEBEB"/>
<path d="M210.084 98.6983L205.954 98.7864L203.858 98.8218C203.158 98.8364 202.454 98.8335 201.752 98.8392L201.612 98.8401L201.611 98.6983L201.594 95.1625L201.594 95.0039L201.752 95.0045L205.918 95.0244C207.307 95.026 208.695 95.0598 210.084 95.076L210.171 95.0772L210.17 95.1625C210.164 95.7623 210.143 96.3589 210.129 96.9489L210.084 98.6983ZM210.084 98.6983L210.039 96.9119C210.025 96.3229 210.004 95.7411 209.998 95.1625L210.084 95.2485C208.695 95.2649 207.307 95.2987 205.918 95.3003L201.752 95.3202L201.909 95.1625L201.892 98.6983L201.752 98.5576C202.438 98.563 203.123 98.5602 203.811 98.5747L205.882 98.6104L210.084 98.6983Z" fill="#EBEBEB"/>
<path d="M29.6075 94.2376L25.4775 94.3255L23.3815 94.3612C22.6814 94.3757 21.9772 94.3729 21.2752 94.3783L21.1354 94.3792L21.1348 94.2376L21.1178 90.7016L21.1172 90.543L21.2752 90.5436L25.4413 90.5635C26.83 90.5651 28.2186 90.5989 29.6075 90.6153L29.6944 90.616L29.6934 90.7016C29.6874 91.3017 29.6664 91.8983 29.6522 92.4883L29.6075 94.2376ZM29.6075 94.2376L29.5628 92.451C29.5487 91.8623 29.5276 91.2805 29.5216 90.7016L29.6075 90.7879C28.2186 90.804 26.83 90.8375 25.4413 90.8391L21.2752 90.8596L21.4322 90.7016L21.4152 94.2376L21.2752 94.0967C21.9618 94.1021 22.6462 94.0992 23.3346 94.1141L25.4051 94.1495L29.6075 94.2376Z" fill="#EBEBEB"/>
<path d="M24.9594 98.6983L20.8294 98.7864L18.7334 98.8218C18.033 98.8364 17.329 98.8335 16.627 98.8392L16.4873 98.8401L16.4864 98.6983L16.4697 95.1625L16.4688 95.0039L16.627 95.0045L20.7929 95.0244C22.1815 95.026 23.5705 95.0598 24.9594 95.076L25.0456 95.0772L25.045 95.1625C25.039 95.7623 25.0179 96.3589 25.0038 96.9489L24.9594 98.6983ZM24.9594 98.6983L24.9147 96.9119C24.9006 96.3229 24.8795 95.7411 24.8735 95.1625L24.9594 95.2485C23.5705 95.2649 22.1815 95.2987 20.7929 95.3003L16.627 95.3202L16.7837 95.1625L16.7667 98.6983L16.627 98.5576C17.3133 98.563 17.998 98.5602 18.6865 98.5747L20.7564 98.6104L24.9594 98.6983Z" fill="#EBEBEB"/>
<path d="M219.381 98.6983L215.251 98.7864L213.155 98.8218C212.455 98.8364 211.751 98.8335 211.049 98.8392L210.909 98.8401L210.908 98.6983L210.892 95.1625L210.891 95.0039L211.049 95.0045L215.215 95.0244C216.604 95.026 217.993 95.0598 219.381 95.076L219.467 95.0772L219.467 95.1625C219.461 95.7623 219.44 96.3589 219.426 96.9489L219.381 98.6983ZM219.381 98.6983L219.336 96.9119C219.322 96.3229 219.301 95.7411 219.295 95.1625L219.381 95.2485C217.993 95.2649 216.604 95.2987 215.215 95.3003L211.049 95.3202L211.206 95.1625L211.189 98.6983L211.049 98.5576C211.735 98.563 212.42 98.5602 213.108 98.5747L215.179 98.6104L219.381 98.6983Z" fill="#EBEBEB"/>
<path d="M81.1544 81.2533L77.0244 81.3411L74.9284 81.3768C74.228 81.3914 73.524 81.3885 72.822 81.3939L72.6823 81.3951L72.6817 81.2529L72.6647 77.7172L72.6641 77.5586L72.822 77.5595L76.9879 77.5791C78.3768 77.5807 79.7655 77.6148 81.1544 77.631L81.2409 77.6319L81.2397 77.7172C81.234 78.317 81.2132 78.9139 81.1991 79.5039L81.1544 81.2533ZM81.1544 81.2533L81.1094 79.4666C81.0952 78.8779 81.0745 78.2958 81.0685 77.7172L81.1544 77.8035C79.7655 77.8196 78.3768 77.8534 76.9879 77.8553L72.822 77.8749L72.979 77.7172L72.9621 81.2529L72.8217 81.1123C73.5083 81.1177 74.193 81.1149 74.8815 81.1297L76.9517 81.1651L81.1544 81.2533Z" fill="#EBEBEB"/>
<path d="M76.506 85.7139L72.376 85.8017L70.28 85.8374C69.5798 85.852 68.8756 85.8495 68.1736 85.8545L68.0339 85.8558L68.0332 85.7139L68.0163 82.1782L68.0156 82.0195L68.1736 82.0202L72.3398 82.0401C73.7284 82.0417 75.117 82.0755 76.506 82.0916L76.5925 82.0928L76.5919 82.1782C76.5859 82.7779 76.5648 83.3745 76.5506 83.9645L76.506 85.7139ZM76.506 85.7139L76.4613 83.9275C76.4471 83.3385 76.426 82.7568 76.4201 82.1782L76.506 82.2641C75.117 82.2805 73.7284 82.3144 72.3398 82.3159L68.1736 82.3358L68.3306 82.1782L68.3136 85.7139L68.1736 85.5733C68.8602 85.5786 69.5446 85.5758 70.2331 85.5903L72.3036 85.626L76.506 85.7139Z" fill="#EBEBEB"/>
<path d="M85.8028 85.7139L81.6728 85.8017L79.5768 85.8374C78.8767 85.852 78.1725 85.8495 77.4705 85.8545L77.3308 85.8558L77.3301 85.7139L77.3131 82.1782L77.3125 82.0195L77.4705 82.0202L81.6363 82.0401C83.025 82.0417 84.4139 82.0755 85.8028 82.0916L85.8894 82.0928L85.8884 82.1782C85.8824 82.7779 85.8617 83.3745 85.8475 83.9645L85.8028 85.7139ZM85.8028 85.7139L85.7578 83.9275C85.7437 83.3385 85.7229 82.7568 85.7169 82.1782L85.8028 82.2641C84.4139 82.2805 83.025 82.3144 81.6363 82.3159L77.4705 82.3358L77.6275 82.1782L77.6105 85.7139L77.4705 85.5733C78.1568 85.5786 78.8415 85.5758 79.53 85.5903L81.6005 85.626L85.8028 85.7139Z" fill="#EBEBEB"/>
<path d="M172.404 52.1592L168.274 52.2477L166.178 52.2831C165.478 52.2976 164.774 52.2948 164.072 52.3005L163.932 52.3011L163.931 52.1592L163.915 48.6235L163.914 48.4648L164.072 48.4655L168.238 48.4857C169.627 48.487 171.015 48.5211 172.404 48.5372L172.491 48.5385L172.49 48.6235C172.484 49.2236 172.463 49.8202 172.449 50.4101L172.404 52.1592ZM172.404 52.1592L172.359 50.3725C172.346 49.7838 172.324 49.2024 172.318 48.6235L172.404 48.7094C171.015 48.7255 169.627 48.7597 168.238 48.7613L164.072 48.7815L164.229 48.6235L164.212 52.1592L164.072 52.0186C164.758 52.0243 165.443 52.0208 166.131 52.0356L168.202 52.071L172.404 52.1592Z" fill="#EBEBEB"/>
<path d="M214.248 17.8154L210.118 17.9036L208.022 17.939C207.322 17.9539 206.618 17.9507 205.916 17.9564L205.776 17.9573L205.775 17.8154L205.758 14.2797L205.758 14.1211L205.916 14.1217L210.082 14.1416C211.471 14.1432 212.86 14.177 214.248 14.1935L214.335 14.1944L214.334 14.2797C214.328 14.8795 214.307 15.4761 214.293 16.0661L214.248 17.8154ZM214.248 17.8154L214.203 16.0288C214.19 15.4401 214.168 14.8583 214.163 14.2797L214.248 14.3657C212.86 14.3818 211.471 14.4159 210.082 14.4175L205.916 14.4374L206.073 14.2797L206.056 17.8154L205.916 17.6745C206.602 17.6802 207.287 17.6774 207.975 17.6919L210.046 17.7273L214.248 17.8154Z" fill="#EBEBEB"/>
<path d="M218.897 22.2725L214.767 22.3606L212.671 22.396C211.97 22.4109 211.266 22.4077 210.564 22.4134L210.425 22.4144L210.424 22.2725L210.407 18.7368L210.406 18.5781L210.564 18.5788L214.73 18.5987C216.119 18.5999 217.508 18.6341 218.897 18.6502L218.983 18.6514L218.982 18.7368C218.977 19.3365 218.955 19.9331 218.941 20.5231L218.897 22.2725ZM218.897 22.2725L218.852 20.4858C218.838 19.8971 218.817 19.3154 218.811 18.7368L218.897 18.8227C217.508 18.8388 216.119 18.873 214.73 18.8745L210.564 18.8944L210.721 18.7368L210.704 22.2725L210.564 22.1315C211.251 22.1372 211.935 22.1341 212.624 22.1489L214.694 22.1843L218.897 22.2725Z" fill="#EBEBEB"/>
<path d="M24.9747 17.8194L20.8447 17.9078L18.7487 17.9432C18.0486 17.9578 17.3444 17.9549 16.6423 17.9606L16.5026 17.9612L16.502 17.8194L16.485 14.2836L16.4844 14.125L16.6423 14.1256L20.8085 14.1459C22.1971 14.1471 23.5858 14.1812 24.9747 14.1974L25.0612 14.1986L25.0606 14.2836C25.0546 14.8837 25.0336 15.4803 25.0194 16.0703L24.9747 17.8194ZM24.9747 17.8194L24.93 16.0327C24.9159 15.444 24.8948 14.8625 24.8888 14.2836L24.9747 14.3696C23.5858 14.3857 22.1971 14.4198 20.8085 14.4214L16.6423 14.4416L16.799 14.2836L16.7824 17.8194L16.6423 17.6787C17.3286 17.6844 18.0133 17.6809 18.7018 17.6958L20.7723 17.7312L24.9747 17.8194Z" fill="#EBEBEB"/>
<path d="M199.856 130.757H169.086V92.2461H199.856V130.757Z" fill="#EBEBEB"/>
<path d="M201.346 92.2426H167.594V90.6562H201.346V92.2426Z" fill="#DBDBDB"/>
<path d="M211.958 92.2426H201.344V90.6562H211.958V92.2426Z" fill="#EBEBEB"/>
<path d="M210.284 130.757H199.859V92.2461H210.284V130.757Z" fill="#DBDBDB"/>
<path d="M196.505 110.255H172.438V96.6289H196.505V110.255Z" stroke="#C6C6C6" stroke-width="0.25" stroke-miterlimit="10"/>
<path d="M185.794 103.307H181.094V100.594H185.794V103.307Z" fill="#C6C6C6"/>
<path d="M187.185 103.101H182.484V100.797H187.185V103.101Z" stroke="#C6C6C6" stroke-width="0.25" stroke-miterlimit="10"/>
<path d="M196.505 127.47H172.438V113.844H196.505V127.47Z" stroke="#C6C6C6" stroke-width="0.25" stroke-miterlimit="10"/>
<path d="M185.794 120.522H181.094V117.809H185.794V120.522Z" fill="#C6C6C6"/>
<path d="M187.185 120.32H182.484V118.016H187.185V120.32Z" stroke="#C6C6C6" stroke-width="0.25" stroke-miterlimit="10"/>
<path d="M166.306 142.807C166.306 146.026 144.681 148.637 118.004 148.637C91.3283 148.637 69.7031 146.026 69.7031 142.807C69.7031 139.587 91.3283 136.977 118.004 136.977C144.681 136.977 166.306 139.587 166.306 142.807Z" fill="#EBEBEB"/>
<path d="M68.2675 130.65L43.3994 130.679L18.5312 130.755L43.3994 130.832L68.2675 130.86L118.004 130.913L167.74 130.86L192.608 130.832L217.476 130.755L192.608 130.678L167.74 130.65L118.004 130.598L68.2675 130.65Z" fill="#253138"/>
<path d="M79.3748 29.734C79.2512 29.4006 79.2238 29.0673 79.2188 28.7339C79.2238 28.4008 79.2518 28.0674 79.3767 27.7344C79.5013 28.0678 79.5287 28.4011 79.5328 28.7342C79.5271 29.0676 79.4994 29.401 79.3748 29.734Z" fill="#253138"/>
<path d="M77.3456 30.3228C77.0725 30.0962 76.8827 29.8213 76.7125 29.535C76.5507 29.244 76.4091 28.9412 76.3516 28.5898C76.6253 28.8161 76.8151 29.091 76.985 29.3776C77.1458 29.669 77.2874 29.9717 77.3456 30.3228Z" fill="#253138"/>
<path d="M75.8797 31.8494C75.5304 31.7903 75.2286 31.6475 74.9388 31.4853C74.6537 31.3144 74.3809 31.1232 74.1562 30.8477C74.5058 30.9061 74.807 31.0489 75.0968 31.2117C75.3812 31.3833 75.6547 31.5745 75.8797 31.8494Z" fill="#253138"/>
<path d="M75.374 33.905C75.042 34.0295 74.7101 34.057 74.3781 34.0621C74.0464 34.057 73.7145 34.0286 73.3828 33.9031C73.7148 33.7783 74.0468 33.7505 74.3784 33.7461C74.7104 33.7518 75.0424 33.7802 75.374 33.905Z" fill="#253138"/>
<path d="M75.96 35.9414C75.7344 36.2157 75.4606 36.4066 75.1755 36.5775C74.8857 36.7399 74.5843 36.8821 74.2344 36.94C74.4597 36.665 74.7334 36.4745 75.0188 36.3039C75.309 36.1421 75.6104 35.9999 75.96 35.9414Z" fill="#253138"/>
<path d="M77.4819 37.4102C77.423 37.7609 77.2805 38.0636 77.1191 38.355C76.9488 38.6413 76.7584 38.9156 76.4844 39.1412C76.5426 38.7901 76.6845 38.4874 76.8469 38.1964C77.0174 37.9107 77.2081 37.6361 77.4819 37.4102Z" fill="#253138"/>
<path d="M79.5255 37.9219C79.6491 38.2553 79.6762 38.589 79.6812 38.9223C79.6762 39.2557 79.6485 39.5888 79.5233 39.9222C79.399 39.5885 79.3713 39.2551 79.3672 38.9217C79.3729 38.5883 79.4009 38.2553 79.5255 37.9219Z" fill="#253138"/>
<path d="M81.5547 37.3359C81.8278 37.5625 82.0172 37.8377 82.1875 38.1237C82.3492 38.4151 82.4908 38.7178 82.5484 39.0689C82.2746 38.8429 82.0849 38.568 81.915 38.2814C81.7542 37.9901 81.6129 37.687 81.5547 37.3359Z" fill="#253138"/>
<path d="M83.0156 35.8086C83.3649 35.8677 83.666 36.0108 83.9558 36.1729C84.2409 36.3439 84.5141 36.5351 84.7387 36.8103C84.3891 36.7519 84.088 36.6093 83.7982 36.4463C83.5137 36.275 83.2406 36.0835 83.0156 35.8086Z" fill="#253138"/>
<path d="M83.5312 33.7502C83.8632 33.626 84.1952 33.5988 84.5272 33.5938C84.8588 33.5985 85.1908 33.6266 85.5225 33.7521C85.1905 33.8772 84.8585 33.9047 84.5269 33.9091C84.1949 33.9034 83.8629 33.8753 83.5312 33.7502Z" fill="#253138"/>
<path d="M82.9375 31.7128C83.1631 31.4385 83.4366 31.2479 83.7213 31.077C84.0115 30.9149 84.3129 30.7727 84.6625 30.7148C84.4375 30.9898 84.1641 31.1803 83.8787 31.351C83.5885 31.5124 83.2871 31.6543 82.9375 31.7128Z" fill="#253138"/>
<path d="M81.4219 30.2428C81.4807 29.892 81.6229 29.5893 81.7844 29.2982C81.9546 29.0119 82.145 28.7377 82.4191 28.5117C82.3608 28.8631 82.2189 29.1655 82.0569 29.4566C81.886 29.7422 81.6956 30.0168 81.4219 30.2428Z" fill="#253138"/>
<path d="M144.515 58.0856C144.392 57.7522 144.364 57.4188 144.359 57.0854C144.364 56.7524 144.392 56.419 144.518 56.0859C144.642 56.4193 144.67 56.7527 144.674 57.0858C144.668 57.4191 144.64 57.7522 144.515 58.0856Z" fill="#253138"/>
<path d="M142.486 58.6698C142.213 58.4432 142.023 58.169 141.853 57.8827C141.691 57.5916 141.55 57.2886 141.492 56.9375C141.766 57.1638 141.956 57.4384 142.126 57.7247C142.286 58.016 142.428 58.3191 142.486 58.6698Z" fill="#253138"/>
<path d="M141.021 60.197C140.671 60.1379 140.37 59.9951 140.08 59.833C139.795 59.662 139.522 59.4709 139.297 59.1953C139.647 59.2538 139.948 59.3966 140.238 59.5593C140.522 59.7309 140.795 59.9221 141.021 60.197Z" fill="#253138"/>
<path d="M140.515 62.2527C140.183 62.3772 139.851 62.4047 139.519 62.4098C139.187 62.4047 138.855 62.3763 138.523 62.2508C138.856 62.1257 139.187 62.0982 139.519 62.0938C139.851 62.0994 140.183 62.1276 140.515 62.2527Z" fill="#253138"/>
<path d="M141.101 64.293C140.875 64.5673 140.601 64.7581 140.316 64.9291C140.026 65.0915 139.725 65.2337 139.375 65.2915C139.6 65.0166 139.874 64.8257 140.159 64.6554C140.45 64.4936 140.751 64.3514 141.101 64.293Z" fill="#253138"/>
<path d="M142.622 65.7617C142.564 66.1125 142.421 66.4152 142.26 66.7066C142.089 66.9929 141.899 67.2671 141.625 67.4928C141.683 67.1417 141.825 66.8386 141.987 66.5479C142.158 66.2619 142.349 65.9877 142.622 65.7617Z" fill="#253138"/>
<path d="M144.666 66.2734C144.79 66.6068 144.817 66.9405 144.822 67.2739C144.817 67.607 144.789 67.9403 144.664 68.2737C144.54 67.94 144.512 67.6063 144.508 67.2733C144.514 66.9399 144.542 66.6065 144.666 66.2734Z" fill="#253138"/>
<path d="M146.695 65.6836C146.968 65.9102 147.158 66.1854 147.328 66.4714C147.49 66.7627 147.631 67.0655 147.689 67.4165C147.415 67.1906 147.226 66.9157 147.056 66.6291C146.895 66.3377 146.754 66.0347 146.695 65.6836Z" fill="#253138"/>
<path d="M148.156 64.1602C148.506 64.2192 148.807 64.3621 149.097 64.5245C149.382 64.6955 149.655 64.8866 149.88 65.1619C149.53 65.1034 149.229 64.9609 148.939 64.7978C148.655 64.6263 148.382 64.4351 148.156 64.1602Z" fill="#253138"/>
<path d="M148.672 62.1024C149.004 61.9782 149.336 61.9504 149.667 61.9453C149.999 61.9504 150.331 61.9788 150.663 62.1043C150.331 62.2294 149.999 62.2569 149.667 62.2613C149.335 62.2556 149.004 62.2275 148.672 62.1024Z" fill="#253138"/>
<path d="M148.086 60.0643C148.312 59.79 148.585 59.5995 148.87 59.4285C149.16 59.2661 149.461 59.1239 149.811 59.0664C149.586 59.341 149.313 59.5319 149.027 59.7022C148.737 59.864 148.436 60.0059 148.086 60.0643Z" fill="#253138"/>
<path d="M146.562 58.5943C146.621 58.2433 146.764 57.9408 146.925 57.6498C147.095 57.3635 147.286 57.0892 147.56 56.8633C147.501 57.2147 147.36 57.5171 147.197 57.8081C147.027 58.0938 146.836 58.3684 146.562 58.5943Z" fill="#253138"/>
<path d="M30.5413 81.3009C30.5413 81.3009 23.629 80.3292 25.2448 71.9492C25.2448 71.9492 32.9677 73.6904 30.5413 81.3009Z" fill="#FFC627"/>
<path d="M30.5413 81.3009C30.5413 81.3009 23.629 80.3292 25.2448 71.9492C25.2448 71.9492 32.9677 73.6904 30.5413 81.3009Z" fill="black"/>
<path d="M30.1871 79.5521C30.0521 79.1283 29.8929 78.7121 29.7163 78.3032C29.711 78.2498 29.7031 78.1961 29.6987 78.1446C29.6886 78.0296 29.6789 77.9142 29.6701 77.7989C29.6506 77.5489 29.6348 77.2987 29.62 77.0481C29.5908 76.5478 29.5587 76.0467 29.5511 75.5452C29.5508 75.518 29.5093 75.5193 29.5093 75.5464C29.5049 76.0482 29.4973 76.5491 29.5165 77.0506C29.5263 77.3012 29.5404 77.5515 29.5571 77.8014C29.5609 77.857 29.565 77.9126 29.5691 77.9683C29.1827 77.1331 28.7147 76.3349 28.1826 75.5882C27.9454 75.2548 27.6959 74.9343 27.4271 74.6259C27.1518 74.309 26.8604 74.0078 26.5816 73.694C26.5637 73.6738 26.5335 73.7051 26.5524 73.7247C27.0609 74.2572 27.4816 74.8895 27.885 75.5031C28.0949 75.8226 28.2931 76.1503 28.4822 76.4834C28.4605 76.4748 28.4385 76.4666 28.4174 76.4578C28.3356 76.424 28.2538 76.3898 28.171 76.3579C27.9835 76.2856 27.7953 76.2138 27.6068 76.1434C27.2361 76.0053 26.8645 75.8694 26.4948 75.7281C26.4727 75.7196 26.4573 75.7585 26.4797 75.767C26.8469 75.9143 27.211 76.0697 27.5744 76.2274C27.7525 76.3045 27.9309 76.3813 28.1093 76.4584C28.1987 76.4973 28.289 76.5336 28.3793 76.5703C28.4397 76.5952 28.4995 76.6253 28.5628 76.6354C28.7022 76.8866 28.8406 77.1388 28.9674 77.3963C29.2874 78.0444 29.5719 78.714 29.8123 79.3963C29.829 79.444 29.8453 79.4923 29.862 79.54C29.6912 79.4244 29.4734 79.3486 29.2956 79.2658C29.0577 79.1555 28.8183 79.0484 28.5804 78.9384C28.0955 78.7147 27.6134 78.4878 27.149 78.2242C27.1251 78.211 27.1049 78.2486 27.1288 78.2615C27.604 78.5219 28.0691 78.7993 28.5448 79.0585C28.7827 79.1883 29.0219 79.3144 29.2654 79.4326C29.4655 79.5299 29.6905 79.6652 29.9149 79.6939C30.1311 80.3351 30.3123 80.9835 30.3677 81.6629C30.4448 82.6103 30.4363 83.5656 30.4583 84.5155C30.4586 84.5322 30.4822 84.531 30.4835 84.5148C30.5524 83.6534 30.5911 82.7838 30.5949 81.9189C30.599 81.0973 30.4357 80.3323 30.1871 79.5521Z" fill="#253138"/>
<path d="M29.1266 74.6249C29.0727 75.1125 29.0244 75.6121 29.058 76.1029C29.0589 76.1165 29.078 76.1161 29.0789 76.1025C29.1065 75.6124 29.1109 75.1239 29.1673 74.6357C29.1704 74.6088 29.1294 74.5981 29.1266 74.6249Z" fill="#253138"/>
<path d="M27.1539 75.0436C26.8478 74.9131 26.5438 74.7908 26.265 74.605C26.2427 74.5901 26.2213 74.6277 26.2442 74.6419C26.5234 74.817 26.8226 74.9873 27.1423 75.073C27.1593 75.0774 27.1709 75.0508 27.1539 75.0436Z" fill="#253138"/>
<path d="M30.7583 94.607C30.7527 93.84 30.7385 93.0731 30.7294 92.3062C30.7149 89.7586 30.6942 87.2113 30.6485 84.6637C30.6123 82.6413 30.5651 80.6196 30.5079 78.5975C30.5076 78.5858 30.5 78.5776 30.4902 78.5716C30.4877 78.0195 30.4852 77.4671 30.4818 76.9151C30.4821 76.9009 30.4654 76.8942 30.449 76.8945C30.4323 76.8945 30.4157 76.9021 30.4157 76.916C30.4122 77.4693 30.4087 78.0223 30.4056 78.5757C30.3974 78.582 30.3899 78.5889 30.3899 78.5994C30.2879 82.1983 30.1973 85.7985 30.1762 89.3983C30.1718 90.1302 30.1721 90.8621 30.169 91.5942C30.1447 93.9412 30.1337 96.2881 30.1422 98.6353C30.1397 99.0092 30.1353 99.3824 30.134 99.7562C30.1265 101.904 30.1561 104.051 30.1567 106.198C30.1567 106.314 30.2848 106.371 30.4204 106.377C30.5752 106.383 30.7407 106.321 30.7407 106.189C30.7417 103.821 30.7571 101.453 30.7568 99.085C30.7643 97.5922 30.7697 96.0998 30.7583 94.607Z" fill="#253138"/>
<path d="M27.8726 92.2765C27.8726 92.2765 24.5481 89.8032 21.3923 91.4742C18.2368 93.1455 17.7422 99.5891 17.7422 99.5891C17.7422 99.5891 22.3757 100.255 25.2936 97.4655C28.1054 94.778 27.8726 92.2765 27.8726 92.2765Z" fill="#FFC627"/>
<path d="M28.7773 92.4271C28.1757 92.1734 27.5055 92.1105 26.8513 92.1747C26.7188 92.145 26.5781 92.1446 26.4438 92.1348C26.2877 92.1238 26.131 92.1118 25.9749 92.0998C25.6521 92.0745 25.3289 92.0549 25.0058 92.0306C24.35 91.9816 23.6917 91.9411 23.0372 91.8751C23.0139 91.8729 23.0092 91.914 23.0328 91.9171C23.6804 91.9999 24.3254 92.0925 24.9752 92.1585C25.3094 92.1924 25.6439 92.2271 25.979 92.2508C26.0577 92.2568 26.1392 92.2653 26.2219 92.2748C26.1225 92.2969 26.0237 92.3206 25.9268 92.3481C25.4054 92.4967 24.9032 92.709 24.4205 92.9628C24.1587 93.0102 23.8981 93.0841 23.641 93.1448C23.2298 93.2418 22.8201 93.3486 22.4113 93.4564C21.6042 93.6687 20.8056 93.9076 20.0044 94.1418C19.9783 94.1493 19.99 94.1885 20.0161 94.1822C20.8169 93.985 21.6218 93.8043 22.4239 93.6128C22.8138 93.5196 23.204 93.4276 23.5929 93.3312C23.6936 93.3063 23.7955 93.2835 23.8984 93.2604C23.0032 93.8141 22.198 94.5244 21.5356 95.3236C20.8742 96.1218 20.3468 96.9956 19.893 97.9249C19.8814 97.9489 19.9148 97.972 19.9286 97.948C20.4661 97.0025 21.142 96.1114 21.916 95.328C21.9016 95.3723 21.8868 95.4168 21.8726 95.4617C21.8106 95.6579 21.7499 95.8548 21.6882 96.0513C21.5652 96.4444 21.4403 96.8372 21.3232 97.2322C21.3153 97.2588 21.355 97.267 21.3641 97.242C21.5041 96.8609 21.6376 96.4779 21.7716 96.0946L21.9689 95.5309C22.0029 95.4336 22.0359 95.3356 22.0687 95.238C22.0784 95.2076 22.0907 95.1779 22.1004 95.1482C22.4743 94.7858 22.8666 94.4451 23.2798 94.1389C23.8251 93.7347 24.4205 93.3935 25.0445 93.123C25.0328 93.1811 25.0224 93.2383 25.0105 93.2936C24.9781 93.4459 24.9441 93.5982 24.9129 93.7505C24.8478 94.0665 24.7864 94.3832 24.7254 94.7001C24.6001 95.346 24.5224 96.0008 24.4019 96.647C24.3969 96.6735 24.4365 96.6843 24.4428 96.6577C24.592 96.0077 24.7839 95.3682 24.9283 94.7166C25.0004 94.3911 25.0737 94.0659 25.1411 93.7389C25.1725 93.5865 25.2027 93.4339 25.2336 93.281C25.2506 93.196 25.2701 93.1106 25.2798 93.0253C25.3406 93.001 25.3997 92.9735 25.4608 92.9504C26.333 92.6265 27.2972 92.3908 28.227 92.57C29.1166 92.7416 29.879 93.3407 30.2283 94.18C30.2585 94.2527 30.3724 94.2078 30.3557 94.1332C30.1748 93.3312 29.5077 92.7356 28.7773 92.4271Z" fill="#253138"/>
<path d="M23.6852 95.1796C23.5911 95.6027 23.4973 96.0258 23.4042 96.449C23.3154 96.8528 23.2056 97.2703 23.172 97.6836C23.1704 97.7 23.194 97.7 23.199 97.6864C23.3346 97.2886 23.4007 96.855 23.4816 96.443C23.5634 96.0255 23.6449 95.6075 23.7258 95.19C23.7308 95.1632 23.6912 95.1531 23.6852 95.1796Z" fill="#253138"/>
<path d="M20.4779 96.2551C20.0546 96.4709 19.644 96.7158 19.2016 96.8927C19.1736 96.9038 19.1915 96.9449 19.2192 96.931C19.6449 96.7177 20.0855 96.529 20.4879 96.2715C20.4983 96.2645 20.4886 96.2497 20.4779 96.2551Z" fill="#253138"/>
<path d="M28.6169 87.7338C28.6169 87.7338 24.5529 87.9942 22.663 85.3035C20.7725 82.6121 21.197 78.7695 21.197 78.7695C21.197 78.7695 25.4652 79.2906 27.1603 81.223C28.8554 83.1553 28.6169 87.7338 28.6169 87.7338Z" fill="#FFC627"/>
<path d="M30.5247 91.7597C30.3841 91.3224 30.2097 90.892 30.0455 90.4629C29.8875 90.0511 29.7189 89.6435 29.5401 89.2403C29.1748 88.418 28.772 87.6151 28.322 86.8361C28.0354 86.3403 27.728 85.8591 27.4117 85.3844C27.4051 85.3124 27.3909 85.2397 27.3799 85.1673C27.3611 85.0409 27.3428 84.9145 27.3233 84.7881C27.283 84.53 27.2377 84.2724 27.1949 84.0146C27.1015 83.4511 26.9857 82.8915 26.8963 82.3271C26.8922 82.3006 26.8504 82.3009 26.8541 82.3281C26.9363 82.8849 26.992 83.4451 27.0697 84.0022C27.1077 84.2759 27.1433 84.5505 27.1848 84.8235C27.1996 84.9221 27.2154 85.021 27.2311 85.1196C26.6099 84.2114 25.9422 83.3371 25.221 82.5012C25.1238 82.3887 25.0234 82.2788 24.9243 82.1679C24.9142 82.1369 24.8988 82.1062 24.8865 82.0746C24.8566 81.9969 24.827 81.9188 24.7984 81.8408C24.7386 81.6793 24.6801 81.5169 24.6222 81.3542C24.508 81.035 24.406 80.7124 24.3195 80.384C24.3126 80.3575 24.2726 80.3698 24.2792 80.3964C24.3613 80.7313 24.4479 81.0656 24.5454 81.3962C24.5923 81.5561 24.6445 81.7138 24.7009 81.8705C24.71 81.8967 24.7201 81.923 24.7295 81.9492C24.2103 81.3807 23.6684 80.8328 23.1212 80.2914C23.102 80.2719 23.0734 80.3025 23.0923 80.3221C24.154 81.4139 25.0926 82.6194 25.9715 83.8638C25.8724 83.8319 25.7704 83.8066 25.6707 83.7874C25.3579 83.7264 25.0423 83.6821 24.7264 83.6417C24.0643 83.557 23.4041 83.4729 22.7446 83.3683C22.7181 83.3645 22.7075 83.4044 22.7345 83.4094C23.3642 83.5342 23.9881 83.6768 24.6134 83.8209C24.9085 83.8891 25.2046 83.9469 25.5017 84.0057C25.7493 84.0544 25.9787 84.1305 26.215 84.2098C26.2805 84.3043 26.3488 84.3972 26.4136 84.4924C26.7119 84.9281 26.9979 85.3727 27.2783 85.8211C27.1402 85.7933 27.0017 85.7668 26.8636 85.7396C26.5498 85.6786 26.2345 85.6214 25.9193 85.5693C25.2997 85.4669 24.6792 85.3588 24.0668 85.2188C24.0404 85.2128 24.03 85.2536 24.0564 85.2602C24.6779 85.4065 25.2934 85.5775 25.9101 85.7424C26.2078 85.8218 26.5077 85.8948 26.8082 85.9614C26.9586 85.9949 27.1093 86.0281 27.26 86.0594C27.3252 86.0727 27.3856 86.09 27.4432 86.091C28.0363 87.0576 28.5939 88.047 29.1093 89.0563C29.3362 89.5006 29.554 89.949 29.7657 90.4003C29.9829 90.8639 30.1688 91.3366 30.3693 91.8068C30.4092 91.9007 30.5578 91.8621 30.5247 91.7597Z" fill="#253138"/>
<path d="M26.3643 82.3791C26.2869 81.9898 26.2048 81.6014 26.1189 81.214C26.1129 81.1875 26.0733 81.1998 26.0786 81.2263C26.1554 81.6087 26.2287 81.9917 26.2979 82.3756C26.3662 82.7564 26.4216 83.1467 26.5283 83.5189C26.5305 83.5259 26.5415 83.5243 26.5412 83.517C26.5207 83.1356 26.4389 82.7529 26.3643 82.3791Z" fill="#253138"/>
<path d="M23.9978 82.2665C23.8093 82.172 23.6101 82.0958 23.4141 82.0197C23.3112 81.9795 23.2083 81.9394 23.106 81.8983C23.0535 81.8775 23.0012 81.8563 22.949 81.8354C22.8933 81.8127 22.825 81.7959 22.7772 81.7596C22.7467 81.7365 22.7268 81.7906 22.7577 81.7956C22.8175 81.8057 22.8763 81.8421 22.9314 81.867C22.9823 81.8901 23.0339 81.9132 23.0852 81.9359C23.184 81.9805 23.2828 82.0247 23.3816 82.069C23.5777 82.1559 23.7772 82.2434 23.9817 82.3076C24.0056 82.3148 24.0201 82.2775 23.9978 82.2665Z" fill="#253138"/>
<path d="M32.7812 84.5255C32.7812 84.5255 35.2407 79.9116 38.9821 79.1974C42.7231 78.4832 45.013 82.3489 45.013 82.3489C45.013 82.3489 42.2842 85.8483 38.8509 86.4594C35.4172 87.0705 32.7812 84.5255 32.7812 84.5255Z" fill="#FFC627"/>
<path d="M41.4862 81.2655C40.5167 81.1322 39.5242 81.1477 38.5522 81.3006C38.6082 81.27 38.6639 81.2387 38.719 81.2109C38.9965 81.0693 39.2725 80.9255 39.5491 80.7814C40.1234 80.4815 40.7042 80.1617 41.3056 79.9197C41.3336 79.9086 41.3163 79.8685 41.2886 79.8815C40.7033 80.1554 40.0966 80.3848 39.5094 80.6557C39.2159 80.7915 38.927 80.9328 38.6413 81.0851C38.4569 81.1834 38.2523 81.276 38.0711 81.3932C37.2492 81.5626 36.4465 81.8255 35.6932 82.187C35.8489 82.0167 36.0056 81.846 36.1611 81.6751C36.5097 81.2918 36.8524 80.8895 37.2357 80.54C37.2558 80.5217 37.225 80.4926 37.2051 80.5106C36.8134 80.868 36.4002 81.1985 36.0204 81.5698C35.836 81.7496 35.6598 81.9367 35.488 82.1285C35.4027 82.2243 35.3168 82.3235 35.2353 82.4259C33.6082 83.3138 32.224 84.6546 31.3114 86.2748C30.7922 87.1956 30.43 88.1916 30.2192 89.2275C30.2142 89.2534 30.2513 89.2679 30.2592 89.2411C30.773 87.4999 31.7428 85.8633 33.0097 84.5674C34.3838 83.1615 36.1202 82.1459 38.022 81.6552C39.151 81.3638 40.3184 81.2624 41.4811 81.3395C41.529 81.3426 41.5327 81.2722 41.4862 81.2655Z" fill="#253138"/>
<path d="M45.0164 82.3477C45.0164 82.3477 42.287 85.848 38.8527 86.4582C36.2337 86.9243 34.0795 85.5526 33.2047 84.8773L33.0156 84.5657C33.0156 84.5657 34.7869 83.066 38.1371 82.2014C41.4877 81.3365 45.0164 82.3477 45.0164 82.3477Z" fill="black"/>
<path d="M39.3091 79.6206C39.025 79.7944 38.7424 79.9675 38.4778 80.1711C38.2175 80.3714 37.9756 80.5891 37.7562 80.8343C37.7367 80.8558 37.7673 80.8833 37.7883 80.865C38.0369 80.6482 38.2861 80.4314 38.5442 80.2264C38.7975 80.0247 39.0555 79.8253 39.3315 79.6563C39.3548 79.6421 39.3324 79.606 39.3091 79.6206Z" fill="#253138"/>
<path d="M41.3673 80.4001C41.2288 80.4583 41.0872 80.5085 40.9485 80.5663C40.8097 80.6242 40.6709 80.682 40.5322 80.7395C40.5023 80.7518 40.5164 80.8008 40.5466 80.7885C40.6857 80.7316 40.8251 80.675 40.9642 80.6182C41.1039 80.5616 41.2398 80.4975 41.3796 80.4406C41.4047 80.4305 41.3925 80.3897 41.3673 80.4001Z" fill="#253138"/>
<path d="M32.2891 90.3297C32.2891 90.3297 32.9461 94.9054 36.3728 96.5065C39.7992 98.1071 43.977 96.5065 43.977 96.5065C43.977 96.5065 42.3339 86.6059 32.2891 90.3297Z" fill="#FFC627"/>
<path d="M41.6107 93.5298C41.2948 93.4938 40.9805 93.4394 40.6674 93.3819C40.5138 93.3538 40.3602 93.325 40.207 93.2947C40.1293 93.2792 40.0481 93.2606 39.9666 93.2464C39.8741 93.1598 39.7835 93.0722 39.6891 92.9882C39.0402 92.4143 38.3369 91.9053 37.5931 91.4629C37.1884 91.2217 36.7683 91.0056 36.3372 90.8144C36.3589 90.8154 36.3803 90.8166 36.4017 90.8176C36.7778 90.8337 37.1538 90.8495 37.5298 90.8666C38.2819 90.902 39.0339 90.9184 39.7854 90.9674C39.8127 90.9689 39.8112 90.9269 39.7844 90.925C39.0298 90.8735 38.2797 90.7904 37.5264 90.7253C37.1607 90.6934 36.7957 90.6605 36.4304 90.627C36.2422 90.6103 36.054 90.5942 35.8659 90.5781C35.8174 90.5739 35.7693 90.5679 35.7211 90.5623C35.5257 90.4893 35.329 90.4201 35.1299 90.3581C34.1928 90.0658 33.1877 89.9502 32.2274 90.1973C31.3652 90.4188 30.5052 90.986 30.2821 91.8986C30.2742 91.9302 30.323 91.952 30.3365 91.9201C30.6578 91.1576 31.5008 90.7737 32.2617 90.615C32.7733 90.5082 33.2969 90.5142 33.8133 90.5847C33.8347 90.8192 33.9225 91.0603 33.9864 91.2764C34.0814 91.5984 34.1748 91.9207 34.2718 92.2424C34.4659 92.8849 34.6802 93.5216 34.8696 94.1656C34.8772 94.1918 34.9165 94.1798 34.9099 94.1536C34.751 93.5112 34.6163 92.8631 34.4624 92.2197C34.3866 91.9037 34.3076 91.588 34.2296 91.2726C34.1796 91.0707 34.1377 90.8321 34.0568 90.6223C34.3583 90.6754 34.656 90.7471 34.9461 90.8328C35.4725 90.9882 35.9914 91.181 36.499 91.4041C36.5493 91.7305 36.622 92.0538 36.6963 92.3755C36.79 92.7793 36.8945 93.1797 37.0219 93.5744C37.0298 93.5993 37.0654 93.588 37.0603 93.5627C37.055 93.5377 37.05 93.5127 37.0449 93.4881L37.0443 93.4868C36.9675 93.1127 36.8851 92.7398 36.8064 92.3657C36.7432 92.0645 36.6853 91.7615 36.6198 91.4606C37.0455 91.6528 37.4641 91.8629 37.8687 92.0961C37.8769 92.1893 37.8999 92.2848 37.9131 92.3698C37.9379 92.5265 37.9663 92.6829 37.9949 92.839C38.0594 93.1923 38.1296 93.5443 38.2136 93.8929C38.376 94.5644 38.5578 95.2365 38.8026 95.8831C38.7979 95.891 38.7957 95.9011 38.8033 95.9096C38.8099 95.9172 38.8162 95.9248 38.8228 95.9327C38.8376 95.9497 38.8618 95.9298 38.8574 95.9109C38.6988 95.2331 38.5179 94.5606 38.3694 93.8796C38.2954 93.5399 38.2208 93.2002 38.1529 92.8589C38.1189 92.6886 38.0877 92.5177 38.0556 92.3467C38.0465 92.2987 38.0396 92.2462 38.0317 92.1934C38.4943 92.4687 38.942 92.766 39.3662 93.0874C40.0972 93.6417 40.7976 94.2743 41.4084 94.9597C41.4329 94.9872 41.4814 94.9483 41.4587 94.9189C41.1976 94.5739 40.9377 94.2364 40.6419 93.9182C40.4698 93.733 40.291 93.5535 40.1085 93.3781C40.1274 93.381 40.1469 93.3851 40.1655 93.3882C40.3259 93.4154 40.4867 93.4391 40.6479 93.4609C40.965 93.5033 41.2828 93.5349 41.6003 93.5709C41.6271 93.5741 41.6375 93.533 41.6107 93.5298Z" fill="#253138"/>
<path d="M39.2063 95.0817C39.201 95.0422 39.1944 95.0024 39.1868 94.9632C39.1771 94.9126 39.1525 94.8643 39.1453 94.8134C39.1453 94.8125 39.1444 94.8115 39.1444 94.8115C39.0736 94.5056 39.0141 94.1978 38.959 93.8885C38.9552 93.8667 38.9213 93.8733 38.9219 93.8942C38.9367 94.3028 39.0374 94.7085 39.1824 95.0887C39.1871 95.1013 39.2089 95.1 39.207 95.0852C39.2067 95.0839 39.2063 95.0826 39.2063 95.0817Z" fill="#253138"/>
<path d="M36.3381 95.0095C36.3374 94.9966 36.3274 94.9906 36.3179 94.99C36.2216 94.5848 36.1291 94.1794 36.0457 93.7715C36.0023 93.5566 35.9576 93.343 35.9167 93.1278C35.8947 93.0118 35.8733 92.8961 35.8528 92.7798C35.8349 92.6797 35.8261 92.5729 35.7789 92.4825C35.771 92.467 35.743 92.4705 35.7405 92.4882C35.7119 92.6806 35.7909 92.9135 35.8264 93.1025C35.8683 93.3259 35.9117 93.5493 35.9605 93.7708C36.0599 94.2224 36.1725 94.6724 36.2994 95.1167C36.3066 95.1413 36.3469 95.1356 36.345 95.1091C36.3428 95.0759 36.3403 95.0427 36.3381 95.0095Z" fill="#253138"/>
<path d="M41.3026 92.2103C40.6768 92.1244 40.0515 92.0334 39.4244 91.9572C39.398 91.954 39.387 91.9939 39.4143 91.998C40.0389 92.0906 40.6661 92.1686 41.2923 92.2514C41.3187 92.2549 41.3294 92.2141 41.3026 92.2103Z" fill="#253138"/>
<path d="M30.5298 79.5967C30.5298 79.5967 28.4332 70.3591 38.3168 66.6211C38.3168 66.6211 41.0551 78.7805 30.5298 79.5967Z" fill="#FFC627"/>
<path d="M32.6632 74.3579C32.7003 74.3342 32.7365 74.3115 32.7696 74.2931C32.9565 74.1898 33.1418 74.0843 33.3278 73.9797L34.4744 73.3357C35.229 72.9119 35.9738 72.4714 36.7331 72.0565C36.757 72.0435 36.7347 72.0075 36.7111 72.0205C35.9502 72.436 35.1758 72.825 34.4102 73.2314L33.2771 73.8327C33.1226 73.9146 32.9684 73.9961 32.8143 74.0783C33.144 73.4504 33.4965 72.8348 33.8835 72.242C34.4002 71.4507 34.9656 70.6971 35.555 69.9595C35.5821 69.9257 35.538 69.8821 35.5062 69.9127C34.6346 70.7501 33.8797 71.7083 33.2211 72.7261C33.2218 72.6935 33.2224 72.661 33.224 72.63C33.2353 72.4003 33.2416 72.1706 33.245 71.9405C33.2516 71.4896 33.2296 71.038 33.2431 70.5874C33.2438 70.5602 33.2019 70.5615 33.2007 70.5887C33.1824 71.0323 33.1292 71.4747 33.1041 71.9184C33.0915 72.1396 33.082 72.3611 33.0757 72.5826C33.072 72.7024 33.0606 72.8386 33.065 72.97C32.8615 73.2952 32.666 73.6254 32.4813 73.9598C32.1519 74.5557 31.857 75.1801 31.5978 75.82C31.588 75.59 31.5742 75.3603 31.5606 75.1302C31.531 74.6243 31.47 74.1209 31.4486 73.6147C31.4477 73.5875 31.4055 73.5885 31.4061 73.6156C31.4168 74.1219 31.3935 74.6278 31.4093 75.134C31.4171 75.3868 31.4244 75.6396 31.4411 75.8921C31.447 75.9847 31.4524 76.0795 31.4587 76.1743C31.1437 77.0032 30.8904 77.8564 30.712 78.7127C30.5194 79.638 30.441 80.5648 30.3438 81.5024C30.3429 81.509 30.3536 81.5087 30.3542 81.502C30.441 80.6662 30.6519 79.8222 30.8787 79.0148C31.0011 78.5787 31.1302 78.1449 31.2696 77.7145C31.6808 77.5201 32.0742 77.2774 32.4713 77.0562C32.8835 76.8268 33.2985 76.6025 33.7117 76.3749C34.5358 75.9209 35.359 75.4585 36.2101 75.0572C36.235 75.0455 36.2127 75.0101 36.1884 75.0212C35.3262 75.413 34.4581 75.7859 33.6123 76.2125C33.1909 76.4252 32.7762 76.6521 32.3655 76.8847C32.0226 77.0787 31.6698 77.273 31.3419 77.4964C31.4379 77.2089 31.5377 76.9226 31.6472 76.6398C31.9474 75.8637 32.2859 75.1008 32.6632 74.3579Z" fill="#253138"/>
<path d="M31.8389 72.2462C31.837 72.2193 31.7951 72.2203 31.7969 72.2475C31.8323 72.7746 31.8499 73.301 31.9053 73.8265C31.9085 73.8559 31.9523 73.8559 31.9511 73.8256C31.9329 73.2972 31.8775 72.773 31.8389 72.2462Z" fill="#253138"/>
<path d="M36.5713 74.0094C35.9523 74.2594 35.3284 74.4973 34.7129 74.7561C34.6956 74.7634 34.7031 74.7912 34.7214 74.7845C35.3457 74.5498 35.9624 74.2935 36.5836 74.0502C36.6087 74.0404 36.5965 73.9993 36.5713 74.0094Z" fill="#253138"/>
<path d="M37.5119 69.7483C36.9071 70.0299 36.3206 70.3415 35.7545 70.6954C35.7256 70.7131 35.7529 70.7573 35.7822 70.7403C36.3555 70.4037 36.9392 70.0808 37.5343 69.7844C37.5588 69.772 37.5361 69.737 37.5119 69.7483Z" fill="#253138"/>
<path d="M37.3625 114.663H23.1094V99.5742H37.3625V114.663Z" fill="#163370"/>
<path d="M22.8544 130.754H22.125V104.91H22.8544V130.754Z" fill="#253138"/>
<path d="M38.2685 130.754H37.5391V104.91H38.2685V130.754Z" fill="#253138"/>
<path d="M30.9481 130.754H30.2188V104.91H30.9481V130.754Z" fill="#253138"/>
<path d="M37.902 115.785H22.4922V113.695H37.902V115.785Z" fill="#253138"/>
<path d="M161.24 127.326H85.0469V78.8789H161.24V127.326Z" fill="white"/>
<path d="M161.24 127.326H85.0469V78.8789H161.24V127.326Z" stroke="#A6A6A6" stroke-width="0.5" stroke-miterlimit="10"/>
<path d="M161.24 80.743H85.0469V78.8789H161.24V80.743Z" fill="#001335"/>
<path d="M86.9171 79.8118C86.9171 80.0336 86.738 80.2134 86.5171 80.2134C86.2962 80.2134 86.1172 80.0336 86.1172 79.8118C86.1172 79.59 86.2962 79.4102 86.5171 79.4102C86.738 79.4102 86.9171 79.59 86.9171 79.8118Z" fill="#C6C6C6"/>
<path d="M88.5499 79.8118C88.5499 80.0336 88.3708 80.2134 88.1499 80.2134C87.929 80.2134 87.75 80.0336 87.75 79.8118C87.75 79.59 87.929 79.4102 88.1499 79.4102C88.3708 79.4102 88.5499 79.59 88.5499 79.8118Z" fill="white"/>
<path d="M90.1827 79.8118C90.1827 80.0336 90.0036 80.2134 89.7828 80.2134C89.5619 80.2134 89.3828 80.0336 89.3828 79.8118C89.3828 79.59 89.5619 79.4102 89.7828 79.4102C90.0036 79.4102 90.1827 79.59 90.1827 79.8118Z" fill="#FFC627"/>
<path d="M161.24 88.0532H85.0469V80.7422H161.24V88.0532Z" fill="#163370"/>
<path d="M156.558 85.2122H93.7812V83.4297H156.558V85.2122Z" fill="white"/>
<path d="M156.571 85.233H93.7578V83.4141H156.571V85.233ZM93.7943 85.1963H156.535V83.4504H93.7943V85.1963Z" fill="#C6C6C6"/>
<path d="M95.154 84.7083L95.0279 84.8037L94.8343 84.5477L94.7944 84.4937L94.7525 84.4384L94.75 84.4362C94.7673 84.4292 94.7837 84.4185 94.7985 84.4078C94.801 84.4049 94.8054 84.4024 94.8079 84.3995C94.8321 84.3793 94.852 84.3553 94.868 84.3281L94.8693 84.331L94.9139 84.3888L94.9552 84.4428L95.154 84.7083Z" fill="#EBEBEB"/>
<path d="M94.9506 84.4411L94.9091 84.3871C94.9239 84.3669 94.9358 84.3454 94.944 84.3223L94.8955 84.2579L94.8927 84.2538C94.8902 84.267 94.8849 84.2806 94.8795 84.2942C94.8754 84.3049 94.8701 84.316 94.8635 84.3264C94.8471 84.3536 94.827 84.3776 94.803 84.3978C94.8084 84.3941 94.815 84.3884 94.8203 84.383L94.8216 84.3855L94.8619 84.4383L94.9037 84.492L95.0554 84.693L95.0362 84.7078L94.8861 84.5084L94.8458 84.4544L94.8059 84.4007L94.803 84.3978C94.8002 84.4007 94.7961 84.4032 94.7936 84.4061C94.7788 84.4168 94.7628 84.4276 94.7455 84.4345C94.7401 84.4383 94.7344 84.4396 94.7291 84.4424C94.7118 84.449 94.6957 84.4531 94.6797 84.4573L94.6809 84.4601L94.7253 84.5176C94.7467 84.5126 94.7681 84.5028 94.7895 84.492L94.8298 84.5461L95.023 84.802L95.1492 84.7066L94.9506 84.4411Z" fill="#EBEBEB"/>
<path d="M94.8975 83.9783C94.7823 83.8276 94.5662 83.7991 94.4161 83.9151C94.2657 84.0308 94.2361 84.2479 94.3528 84.3986C94.4416 84.5158 94.5888 84.5588 94.7219 84.5183C94.7433 84.513 94.7647 84.5035 94.7861 84.4928C94.8025 84.4849 94.8182 84.4738 94.833 84.463C94.8371 84.4605 94.8399 84.458 94.8424 84.4551C94.8478 84.4498 94.8531 84.446 94.8585 84.439C94.8761 84.4242 94.8922 84.4068 94.9057 84.3878C94.9205 84.3673 94.9324 84.3461 94.9406 84.3231C94.9875 84.2125 94.9752 84.0807 94.8975 83.9783ZM94.8761 84.2949C94.872 84.3057 94.8667 84.3164 94.8601 84.3272C94.8437 84.354 94.8236 84.3784 94.7996 84.3986C94.7971 84.4014 94.7927 84.404 94.7902 84.4068C94.7754 84.4175 94.7594 84.4283 94.7421 84.4349C94.7367 84.439 94.7314 84.4403 94.7257 84.4431C94.7084 84.4498 94.6923 84.4539 94.6763 84.458C94.6587 84.4605 94.6414 84.4618 94.6253 84.4618C94.5419 84.4618 94.4617 84.4242 94.4079 84.3553C94.3166 84.2358 94.3396 84.0633 94.4589 83.9717C94.5784 83.88 94.7499 83.9028 94.8412 84.0229C94.8922 84.0889 94.9082 84.1749 94.8893 84.2545C94.8868 84.2678 94.8815 84.2813 94.8761 84.2949Z" fill="#EBEBEB"/>
<path d="M94.9406 84.3231C94.9875 84.2125 94.9752 84.0807 94.8975 83.9783C94.7823 83.8276 94.5662 83.7991 94.4161 83.9151C94.2657 84.0308 94.2361 84.2479 94.3528 84.3986C94.4416 84.5158 94.5888 84.5588 94.7219 84.5183C94.7433 84.5133 94.7647 84.5035 94.7861 84.4928L94.8264 84.5468C94.8424 84.5389 94.8601 84.5278 94.8748 84.5158C94.8774 84.5133 94.8802 84.512 94.8827 84.5092C94.8881 84.5051 94.895 84.4997 94.9003 84.4928C94.9176 84.4779 94.9337 84.4608 94.9472 84.4419L94.9057 84.3878C94.9205 84.3676 94.9324 84.3461 94.9406 84.3231ZM94.8506 84.3502C94.8412 84.3635 94.8305 84.3758 94.8182 84.3863C94.8132 84.3919 94.8078 84.3973 94.8025 84.4014C94.7996 84.404 94.7956 84.4068 94.7927 84.4093C94.7808 84.4188 94.7675 84.4267 94.754 84.4337C94.7515 84.4352 94.7474 84.4362 94.7446 84.4375C94.7232 84.4498 94.7002 84.458 94.6776 84.4608C94.5769 84.4823 94.4708 84.4444 94.405 84.3581C94.361 84.299 94.3409 84.226 94.3503 84.1521C94.361 84.0794 94.3984 84.0134 94.4563 83.9688C94.5073 83.93 94.5662 83.911 94.6253 83.911C94.7071 83.911 94.7902 83.9486 94.844 84.02C94.8975 84.0902 94.9136 84.1777 94.8922 84.2586C94.8855 84.2842 94.8761 84.3069 94.8613 84.33C94.8585 84.3366 94.8547 84.3436 94.8506 84.3502Z" fill="#EBEBEB"/>
<path d="M87.4045 84.9333L86.7578 84.3361L87.4032 83.7148L87.5036 83.8198L86.9693 84.3339L87.5026 84.8268L87.4045 84.9333Z" fill="white"/>
<path d="M88.9663 83.7109L89.6126 84.3088L88.9673 84.9301L88.8672 84.8252L89.4015 84.3107L88.8681 83.8181L88.9663 83.7109Z" fill="white"/>
<path d="M159.117 85.0539C159.043 85.1 158.96 85.1357 158.87 85.1575C158.638 85.2144 158.406 85.1705 158.218 85.0536C158.034 84.9395 157.892 84.7549 157.837 84.5274C157.725 84.0664 158.006 83.6019 158.465 83.4897C158.923 83.3769 159.386 83.6591 159.498 84.1201C159.588 84.4908 159.424 84.8636 159.117 85.0539Z" fill="#DBDBDB"/>
<path d="M158.927 84.2259C158.927 84.3703 158.81 84.4872 158.666 84.4872C158.523 84.4872 158.406 84.3703 158.406 84.2259C158.406 84.0818 158.523 83.9648 158.666 83.9648C158.81 83.9648 158.927 84.0818 158.927 84.2259Z" fill="white"/>
<path d="M159.118 84.9438V85.0515C159.043 85.0976 158.961 85.1334 158.871 85.1552C158.639 85.212 158.407 85.1681 158.219 85.0512V84.9438C158.219 84.6951 158.42 84.4922 158.668 84.4922C158.917 84.4922 159.118 84.6951 159.118 84.9438Z" fill="white"/>
<path d="M91.5442 85.0995C91.0804 85.0995 90.7031 84.7206 90.7031 84.2548C90.7031 83.789 91.0804 83.4102 91.5442 83.4102C91.9656 83.4102 92.3243 83.7258 92.3784 84.1449L92.2264 84.1648C92.1821 83.8222 91.8888 83.564 91.5442 83.564C91.1651 83.564 90.8564 83.874 90.8564 84.2548C90.8564 84.6356 91.1651 84.9456 91.5442 84.9456C91.7387 84.9456 91.925 84.8625 92.0552 84.7171L92.1692 84.8205C92.0096 84.9977 91.7818 85.0995 91.5442 85.0995Z" fill="white"/>
<path d="M91.8438 83.9437L91.8954 83.8672L92.2711 84.1216L92.4967 83.7266L92.5763 83.7727L92.3016 84.2537L91.8438 83.9437Z" fill="white"/>
<path d="M138.309 107.715H109.344V103.746H138.309V107.715Z" fill="white"/>
<path d="M138.309 107.715H109.344V103.746H138.309V107.715Z" stroke="#C6C6C6" stroke-miterlimit="10"/>
<path d="M138.312 107.715H134.359V103.746H138.312V107.715Z" fill="#FFC627"/>
<path d="M137.586 106.842L137.221 107.119L136.544 106.223L136.297 105.895C136.347 105.875 136.394 105.848 136.438 105.814C136.524 105.749 136.587 105.663 136.626 105.57L136.889 105.918L137.586 106.842Z" fill="white"/>
<path d="M136.873 104.731C136.538 104.293 135.913 104.21 135.476 104.546C135.039 104.883 134.957 105.511 135.292 105.949C135.593 106.344 136.128 106.451 136.55 106.224C136.598 106.198 136.644 106.168 136.688 106.135C136.77 106.072 136.839 105.998 136.895 105.919C137.141 105.571 137.145 105.089 136.873 104.731ZM136.445 105.815C136.4 105.849 136.352 105.876 136.303 105.896C136.061 105.993 135.776 105.922 135.61 105.705C135.409 105.443 135.458 105.067 135.719 104.866C135.98 104.665 136.355 104.715 136.555 104.977C136.689 105.152 136.711 105.38 136.632 105.571C136.593 105.664 136.53 105.75 136.445 105.815Z" fill="white"/>
<path d="M110.383 106.936H110.172V104.527H110.383V106.936Z" fill="#253138"/>
<path d="M116.035 111.39H109.344V109.262H116.035V111.39Z" fill="#C6C6C6"/>
<path d="M127.175 111.39H120.484V109.262H127.175V111.39Z" fill="#FFC627"/>
<path d="M138.394 111.39H131.703V109.262H138.394V111.39Z" fill="#C6C6C6"/>
<path d="M133.07 100.738H114.594V99.4492H133.07V100.738Z" fill="#163370"/>
<g opacity="0.113978">
<path d="M265.24 97.0468H189.047V48.6406H265.24V97.0468Z" fill="white"/>
<path d="M265.24 97.0468H189.047V48.6406H265.24V97.0468Z" stroke="#A6A6A6" stroke-width="0.5" stroke-miterlimit="10"/>
<path d="M263.888 62.7179H189.047V50.5039H263.888V62.7179Z" fill="#FFC627"/>
<path d="M240.875 55.2123H198.969V52.7734H240.875V55.2123Z" fill="white"/>
<path d="M240.909 55.2388H198.953V52.75H240.909V55.2388ZM199.003 55.1892H240.859V52.7999H199.003V55.1892Z" fill="#C6C6C6"/>
<path d="M199.614 54.7341H199.484V53.2539H199.614V54.7341Z" fill="#C6C6C6"/>
<path d="M194.385 54.828L193.5 54.0105L194.383 53.1602L194.52 53.3036L193.789 54.0077L194.519 54.6817L194.385 54.828Z" fill="white"/>
<path d="M196.526 53.1602L197.411 53.9776L196.528 54.828L196.391 54.6845L197.122 53.9808L196.392 53.3065L196.526 53.1602Z" fill="white"/>
<path d="M265.24 50.5044H189.047V48.6406H265.24V50.5044Z" fill="#001335"/>
<path d="M190.917 49.5735C190.917 49.7953 190.738 49.9751 190.517 49.9751C190.296 49.9751 190.117 49.7953 190.117 49.5735C190.117 49.3517 190.296 49.1719 190.517 49.1719C190.738 49.1719 190.917 49.3517 190.917 49.5735Z" fill="#C6C6C6"/>
<path d="M192.55 49.5735C192.55 49.7953 192.371 49.9751 192.15 49.9751C191.929 49.9751 191.75 49.7953 191.75 49.5735C191.75 49.3517 191.929 49.1719 192.15 49.1719C192.371 49.1719 192.55 49.3517 192.55 49.5735Z" fill="white"/>
<path d="M194.183 49.5735C194.183 49.7953 194.004 49.9751 193.783 49.9751C193.562 49.9751 193.383 49.7953 193.383 49.5735C193.383 49.3517 193.562 49.1719 193.783 49.1719C194.004 49.1719 194.183 49.3517 194.183 49.5735Z" fill="#FFC627"/>
</g>
</g>
</g>
<defs>
<clipPath id="clip0_1143_1164">
<rect width="236" height="158" fill="white"/>
</clipPath>
</defs>
</svg>
