<svg width="14" height="14" viewBox="0 0 14 14" fill="none" xmlns="http://www.w3.org/2000/svg">
<g clip-path="url(#clip0_1143_1524)">
<path d="M6.76316 1.68559C8.50328 1.68559 8.70755 1.69334 9.39532 1.72437C10.0314 1.75281 10.3753 1.85882 10.6054 1.94932C10.9105 2.06826 11.1277 2.20788 11.3552 2.43541C11.5827 2.66295 11.725 2.88014 11.8413 3.18524C11.9292 3.41536 12.0378 3.75925 12.0663 4.39531C12.0973 5.08308 12.105 5.28734 12.105 7.02746C12.105 8.76758 12.0973 8.97184 12.0663 9.65962C12.0378 10.2957 11.9318 10.6396 11.8413 10.8697C11.7224 11.1748 11.5827 11.392 11.3552 11.6195C11.1277 11.847 10.9105 11.9893 10.6054 12.1056C10.3753 12.1935 10.0314 12.3021 9.39532 12.3306C8.70755 12.3616 8.50328 12.3693 6.76316 12.3693C5.02304 12.3693 4.81878 12.3616 4.13101 12.3306C3.49495 12.3021 3.15106 12.1961 2.92094 12.1056C2.61584 11.9867 2.39865 11.847 2.17111 11.6195C1.94358 11.392 1.80137 11.1748 1.68502 10.8697C1.59711 10.6396 1.48851 10.2957 1.46007 9.65962C1.42904 8.97184 1.42128 8.76758 1.42128 7.02746C1.42128 5.28734 1.42904 5.08308 1.46007 4.39531C1.48851 3.75925 1.59452 3.41536 1.68502 3.18524C1.80395 2.88014 1.94358 2.66295 2.17111 2.43541C2.39865 2.20788 2.61584 2.06567 2.92094 1.94932C3.15106 1.86141 3.49495 1.75281 4.13101 1.72437C4.81878 1.69076 5.02563 1.68559 6.76316 1.68559ZM6.76316 0.511719C4.9946 0.511719 4.77224 0.519476 4.07671 0.550503C3.38376 0.58153 2.9106 0.692712 2.4969 0.85302C2.06769 1.0185 1.7057 1.24345 1.34371 1.60543C0.981729 1.96742 0.759366 2.33199 0.591301 2.75862C0.430993 3.17231 0.319812 3.64548 0.288784 4.34101C0.257757 5.03396 0.25 5.25632 0.25 7.02488C0.25 8.79344 0.257757 9.0158 0.288784 9.71133C0.319812 10.4043 0.430993 10.8774 0.591301 11.2937C0.75678 11.7229 0.981729 12.0849 1.34371 12.4469C1.7057 12.8089 2.07027 13.0313 2.4969 13.1993C2.9106 13.3596 3.38376 13.4708 4.0793 13.5018C4.77483 13.5329 4.9946 13.5406 6.76575 13.5406C8.53689 13.5406 8.75667 13.5329 9.4522 13.5018C10.1451 13.4708 10.6183 13.3596 11.0346 13.1993C11.4638 13.0338 11.8258 12.8089 12.1878 12.4469C12.5498 12.0849 12.7721 11.7203 12.9402 11.2937C13.1005 10.88 13.2117 10.4069 13.2427 9.71133C13.2737 9.0158 13.2815 8.79602 13.2815 7.02488C13.2815 5.25373 13.2737 5.03396 13.2427 4.33843C13.2117 3.64548 13.1005 3.17231 12.9402 2.75603C12.7747 2.32682 12.5498 1.96483 12.1878 1.60285C11.8258 1.24086 11.4612 1.0185 11.0346 0.850434C10.6209 0.690126 10.1477 0.578945 9.4522 0.547917C8.75409 0.519476 8.53172 0.511719 6.76316 0.511719Z" fill="white"/>
<path d="M6.76316 1.68559C8.50328 1.68559 8.70755 1.69334 9.39532 1.72437C10.0314 1.75281 10.3753 1.85882 10.6054 1.94932C10.9105 2.06826 11.1277 2.20788 11.3552 2.43541C11.5827 2.66295 11.725 2.88014 11.8413 3.18524C11.9292 3.41536 12.0378 3.75925 12.0663 4.39531C12.0973 5.08308 12.105 5.28734 12.105 7.02746C12.105 8.76758 12.0973 8.97184 12.0663 9.65962C12.0378 10.2957 11.9318 10.6396 11.8413 10.8697C11.7224 11.1748 11.5827 11.392 11.3552 11.6195C11.1277 11.847 10.9105 11.9893 10.6054 12.1056C10.3753 12.1935 10.0314 12.3021 9.39532 12.3306C8.70755 12.3616 8.50328 12.3693 6.76316 12.3693C5.02304 12.3693 4.81878 12.3616 4.13101 12.3306C3.49495 12.3021 3.15106 12.1961 2.92094 12.1056C2.61584 11.9867 2.39865 11.847 2.17111 11.6195C1.94358 11.392 1.80137 11.1748 1.68502 10.8697C1.59711 10.6396 1.48851 10.2957 1.46007 9.65962C1.42904 8.97184 1.42128 8.76758 1.42128 7.02746C1.42128 5.28734 1.42904 5.08308 1.46007 4.39531C1.48851 3.75925 1.59452 3.41536 1.68502 3.18524C1.80395 2.88014 1.94358 2.66295 2.17111 2.43541C2.39865 2.20788 2.61584 2.06567 2.92094 1.94932C3.15106 1.86141 3.49495 1.75281 4.13101 1.72437C4.81878 1.69076 5.02563 1.68559 6.76316 1.68559Z" fill="white"/>
<path d="M6.76766 3.67969C4.92153 3.67969 3.42188 5.17676 3.42188 7.02547C3.42188 8.87418 4.91894 10.3713 6.76766 10.3713C8.61637 10.3713 10.1134 8.87418 10.1134 7.02547C10.1134 5.17676 8.61637 3.67969 6.76766 3.67969ZM6.76766 9.1948C5.56793 9.1948 4.59574 8.22261 4.59574 7.02288C4.59574 5.82316 5.56793 4.85097 6.76766 4.85097C7.96738 4.85097 8.93957 5.82316 8.93957 7.02288C8.93957 8.22261 7.96738 9.1948 6.76766 9.1948Z" fill="#0A65CC"/>
<path d="M10.2418 4.32734C10.673 4.32734 11.0226 3.97773 11.0226 3.54648C11.0226 3.11523 10.673 2.76562 10.2418 2.76562C9.81054 2.76562 9.46094 3.11523 9.46094 3.54648C9.46094 3.97773 9.81054 4.32734 10.2418 4.32734Z" fill="#0A65CC"/>
</g>
<defs>
<clipPath id="clip0_1143_1524">
<rect width="13.0263" height="13.0263" fill="white" transform="translate(0.25 0.511719)"/>
</clipPath>
</defs>
</svg>
