<svg width="29" height="29" viewBox="0 0 29 29" fill="none" xmlns="http://www.w3.org/2000/svg">
<path d="M16.2059 0.42424V2.35268C18.1133 2.35268 19.9002 2.83479 21.5666 3.799C23.1528 4.74314 24.4177 6.00867 25.3613 7.59561C26.3251 9.26291 26.8069 11.0507 26.8069 12.9591H28.7344C28.7344 10.6891 28.1622 8.57992 27.0177 6.6314C25.9135 4.74314 24.4177 3.24659 22.5304 2.14175C20.5828 0.996745 18.4747 0.42424 16.2059 0.42424ZM6.23733 3.3169C5.69524 3.3169 5.22341 3.48764 4.82186 3.82914L1.71985 6.99298L1.8102 6.93271C1.30826 7.35456 0.97698 7.87685 0.816359 8.49957C0.675815 9.12229 0.71597 9.72493 0.936825 10.3075C1.499 11.8743 2.25191 13.4814 3.19556 15.1286C4.52069 17.3985 6.09679 19.4374 7.92386 21.2453C10.8552 24.1983 14.4993 26.5284 18.8562 28.2359H18.8863C19.4685 28.4368 20.0508 28.477 20.633 28.3564C21.2354 28.2359 21.7674 27.9748 22.2292 27.573L25.271 24.5297C25.6725 24.1279 25.8733 23.6358 25.8733 23.0532C25.8733 22.4506 25.6725 21.9484 25.271 21.5467L21.3257 17.5693C20.9242 17.1675 20.4222 16.9666 19.8199 16.9666C19.2176 16.9666 18.7156 17.1675 18.3141 17.5693L16.4167 19.4977C14.8908 18.7745 13.5657 17.8806 12.4413 16.816C11.317 15.7312 10.4235 14.4155 9.76097 12.8687L11.6884 10.9402C12.1101 10.4983 12.3209 9.97603 12.3209 9.37339C12.3209 8.75067 12.0799 8.24847 11.5981 7.8668L11.6884 7.9572L7.65281 3.82914C7.25126 3.48764 6.77943 3.3169 6.23733 3.3169ZM16.2059 4.28111V6.20955C17.4306 6.20955 18.555 6.51087 19.579 7.11351C20.623 7.71614 21.4462 8.53975 22.0485 9.58432C22.6508 10.6088 22.952 11.7337 22.952 12.9591H24.8795C24.8795 11.3922 24.4879 9.93585 23.7049 8.58996C22.9219 7.28425 21.8778 6.23968 20.5728 5.45626C19.2276 4.67283 17.772 4.28111 16.2059 4.28111ZM6.23733 5.24533C6.29757 5.24533 6.36784 5.27546 6.44815 5.33573L10.3934 9.37339C10.4135 9.45374 10.3934 9.52405 10.3332 9.58432L7.47211 12.4167L7.68293 13.0193L8.07444 13.863C8.39568 14.546 8.76712 15.2089 9.18875 15.8517C9.771 16.7557 10.4135 17.5291 11.1162 18.1719C12.0599 19.0959 13.1942 19.9396 14.5194 20.703C15.1819 21.0846 15.7441 21.3659 16.2059 21.5467L16.8082 21.8178L19.7295 18.8951C19.7697 18.8549 19.7998 18.8348 19.8199 18.8348C19.84 18.8348 19.8701 18.8549 19.9102 18.8951L23.976 22.9628C24.0161 23.003 24.0362 23.0332 24.0362 23.0532C24.0362 23.0532 24.0161 23.0733 23.976 23.1135L20.9643 26.0966C20.5226 26.4782 20.0407 26.5787 19.5187 26.3979C15.4229 24.8109 12.0097 22.6414 9.2791 19.8894C7.59258 18.202 6.11687 16.2836 4.85197 14.1342C3.94848 12.5875 3.24576 11.0909 2.74382 9.64458V9.61445C2.66351 9.43366 2.65347 9.22273 2.7137 8.98168C2.77393 8.72054 2.88436 8.51966 3.04498 8.37904L6.02652 5.33573C6.08675 5.27546 6.15702 5.24533 6.23733 5.24533ZM16.2059 8.13799V10.0664C17.009 10.0664 17.6917 10.3477 18.2538 10.9101C18.816 11.4726 19.0971 12.1556 19.0971 12.9591H21.0245C21.0245 12.0953 20.8037 11.2918 20.362 10.5485C19.9403 9.80528 19.3581 9.22273 18.6152 8.80089C17.8723 8.35895 17.0692 8.13799 16.2059 8.13799Z" fill="black"/>
</svg>
