<svg width="27" height="26" viewBox="0 0 27 26" fill="none" xmlns="http://www.w3.org/2000/svg">
<path fill-rule="evenodd" clip-rule="evenodd" d="M0.6875 13C0.6875 20.1797 6.5078 26 13.6875 26C20.8672 26 26.6875 20.1797 26.6875 13C26.6875 5.8203 20.8672 0 13.6875 0C6.5078 0 0.6875 5.8203 0.6875 13ZM21.0534 10.6751C22.2478 10.6751 23.2193 11.6425 23.2193 12.8314C23.2193 13.6176 22.7928 14.3044 22.1608 14.6805C22.1868 14.8601 22.2008 15.0416 22.2008 15.2252C22.2008 18.2914 18.461 20.7862 13.8645 20.7862C9.26756 20.7862 5.52819 18.2914 5.52819 15.2252C5.52819 15.0272 5.5445 14.8316 5.57477 14.6385C4.98063 14.254 4.58594 13.5885 4.58594 12.8314C4.58594 11.6425 5.55741 10.6753 6.75185 10.6751C7.28248 10.6751 7.76927 10.8673 8.14639 11.1844C9.58454 10.2785 11.5036 9.70975 13.6189 9.66843L14.8557 5.77644C14.9207 5.56943 15.1362 5.44779 15.3484 5.49733L18.5514 6.24761C18.8381 5.63878 19.4579 5.21484 20.177 5.21484C21.1666 5.21484 21.9723 6.01656 21.9723 7.00231C21.9723 7.98806 21.1669 8.78977 20.177 8.78977C19.207 8.78977 18.4165 8.01968 18.3846 7.06197L15.5341 6.3937L14.4893 9.68129C16.4761 9.78016 18.2702 10.3449 19.6273 11.2128C20.0086 10.8793 20.5071 10.6751 21.0534 10.6751Z" fill="#0A65CC"/>
<path d="M21.9302 13.8224C21.6255 13.0413 21.0707 12.3269 20.3281 11.7183C20.5365 11.5832 20.7846 11.5039 21.0514 11.5039C21.7858 11.5039 22.3831 12.0986 22.3831 12.8297C22.3827 13.225 22.2069 13.5795 21.9302 13.8224Z" fill="#0A65CC"/>
<path d="M20.1801 6.04688C20.7101 6.04688 21.1412 6.4763 21.1412 7.00396C21.1412 7.53162 20.7101 7.96083 20.1801 7.96083C19.6499 7.96083 19.2188 7.53162 19.2188 7.00396C19.2188 6.4763 19.6499 6.04688 20.1801 6.04688Z" fill="#0A65CC"/>
<path fill-rule="evenodd" clip-rule="evenodd" d="M12.3955 14.2253C12.3955 13.525 11.8251 12.9375 11.1214 12.9375C10.418 12.9375 9.82812 13.525 9.82812 14.2253C9.82812 14.9254 10.4183 15.494 11.1214 15.494C11.8251 15.4932 12.3955 14.9254 12.3955 14.2253ZM16.7015 12.9375C15.9981 12.9375 15.4062 13.5248 15.4062 14.2251C15.4062 14.9257 15.9981 15.4938 16.7015 15.4938C17.4051 15.4938 17.976 14.9261 17.976 14.2251C17.9755 13.5244 17.4051 12.9375 16.7015 12.9375ZM13.9131 17.9986C15.0775 17.9986 15.8722 17.7707 16.3441 17.3014C16.5074 17.1395 16.7716 17.1395 16.9349 17.3019C17.0977 17.4638 17.0977 17.7264 16.9345 17.889C16.2984 18.5214 15.31 18.8294 13.9131 18.8294C13.9113 18.8294 13.9096 18.8291 13.9079 18.8287C13.9062 18.8284 13.9046 18.8281 13.903 18.8281C13.9013 18.8281 13.8997 18.8284 13.8981 18.8287C13.8965 18.8291 13.8948 18.8294 13.893 18.8294C12.4959 18.8294 11.5077 18.5214 10.8723 17.8885C10.7092 17.7268 10.7092 17.464 10.8723 17.3014C11.0351 17.1391 11.2994 17.1391 11.4622 17.3014C11.9335 17.7707 12.7284 17.9986 13.893 17.9986C13.8947 17.9986 13.8962 17.9988 13.8978 17.9991C13.8995 17.9994 13.9011 17.9996 13.903 17.9996C13.9046 17.9996 13.9062 17.9994 13.9079 17.9991C13.9096 17.9989 13.9113 17.9986 13.9131 17.9986Z" fill="#0A65CC"/>
<path d="M5.42188 12.8297C5.42188 12.0988 6.0192 11.5039 6.75331 11.5039C7.00126 11.5039 7.23291 11.5733 7.43216 11.6915C6.68915 12.2925 6.13312 12.9998 5.81953 13.7729C5.57412 13.5323 5.42188 13.1986 5.42188 12.8297Z" fill="#0A65CC"/>
</svg>
