<svg width="15" height="14" viewBox="0 0 15 14" fill="none" xmlns="http://www.w3.org/2000/svg">
<g clip-path="url(#clip0_1143_1529)">
<path d="M10.3413 0.511719H8.09241V9.3847C8.09241 10.4419 7.22749 11.3104 6.15111 11.3104C5.07473 11.3104 4.20979 10.4419 4.20979 9.3847C4.20979 8.3464 5.05551 7.49683 6.09346 7.45909V5.23141C3.80615 5.26915 1.96094 7.10039 1.96094 9.3847C1.96094 11.6879 3.84459 13.538 6.17034 13.538C8.49605 13.538 10.3797 11.669 10.3797 9.3847V4.83494C11.2254 5.43907 12.2634 5.79776 13.359 5.81665V3.58895C11.6675 3.53232 10.3413 2.17304 10.3413 0.511719Z" fill="white"/>
</g>
<defs>
<clipPath id="clip0_1143_1529">
<rect width="13.0263" height="13.0263" fill="white" transform="translate(0.984375 0.511719)"/>
</clipPath>
</defs>
</svg>
