<svg width="14" height="14" viewBox="0 0 14 14" fill="none" xmlns="http://www.w3.org/2000/svg">
<g clip-path="url(#clip0_1143_1521)">
<path d="M11.9471 4.40732C11.9521 4.52195 11.9521 4.63137 11.9521 4.746C11.9571 8.22143 9.40371 12.2336 4.73418 12.2336C3.35695 12.2336 2.00485 11.8219 0.84375 11.0508C1.04481 11.0768 1.24586 11.0872 1.44692 11.0872C2.58791 11.0872 3.69875 10.6912 4.59847 9.95655C3.51277 9.9357 2.55775 9.20102 2.22601 8.12764C2.60802 8.2058 3.00008 8.19017 3.37203 8.08075C2.19083 7.84106 1.34136 6.76248 1.33634 5.50674C1.33634 5.49632 1.33634 5.4859 1.33634 5.47548C1.68819 5.67869 2.08527 5.79332 2.48738 5.80374C1.37655 5.03258 1.02973 3.49547 1.70326 2.29184C2.99505 3.93837 4.89503 4.93358 6.93575 5.043C6.72967 4.13116 7.01114 3.17242 7.6696 2.52631C8.68996 1.5311 10.2984 1.5832 11.2635 2.64094C11.8315 2.52631 12.3793 2.30747 12.877 2.00005C12.686 2.60968 12.2889 3.12552 11.7611 3.45379C12.2637 3.39126 12.7563 3.25058 13.2188 3.04215C12.877 3.57363 12.4447 4.03216 11.9471 4.40732Z" fill="white"/>
</g>
<defs>
<clipPath id="clip0_1143_1521">
<rect width="13.0263" height="13.0263" fill="white" transform="translate(0.515625 0.511719)"/>
</clipPath>
</defs>
</svg>
